<svg width="160" height="140" fill="none" xmlns="http://www.w3.org/2000/svg"><g clip-path="url(#clip0)"><path d="M40.874 81.457c22.574 0 40.874-18.234 40.874-40.728S63.448 0 40.874 0 0 18.235 0 40.729c0 22.493 18.3 40.728 40.874 40.728z" fill="#BCBEC0"/><path d="M38.827 1.726c22.681 0 41.11 18.364 41.11 40.965a38.58 38.58 0 01-.236 4.316c.315-2.04.551-4.16.551-6.357 0-21.659-17.641-39.316-39.456-39.316-2.127 0-4.253.157-6.38.55 1.497-.079 2.993-.158 4.41-.158z" fill="#fff"/><path opacity=".5" d="M2.284 38.845c0 22.601 18.429 40.964 41.11 40.964a38.98 38.98 0 004.332-.235c-2.048.314-4.174.55-6.38.55-21.736 0-39.377-17.658-39.377-39.317 0-2.119.158-4.238.551-6.356a40.001 40.001 0 00-.236 4.394z" fill="#EFEFEF"/><path d="M40.874 78.004c20.66 0 37.409-16.689 37.409-37.275 0-20.587-16.748-37.276-37.409-37.276-20.66 0-37.409 16.689-37.409 37.276 0 20.587 16.749 37.275 37.41 37.275z" fill="#fff" stroke="#BCBEC0" stroke-miterlimit="10" stroke-linecap="round" stroke-linejoin="round"/><path opacity=".5" d="M40.874 76.278c19.703 0 35.676-15.916 35.676-35.55 0-19.633-15.973-35.549-35.676-35.549-19.704 0-35.676 15.916-35.676 35.55 0 19.633 15.973 35.549 35.676 35.549z" fill="#EFEFEF"/><path d="M40.874 70.235c16.354 0 29.612-13.21 29.612-29.506S57.228 11.222 40.874 11.222s-29.612 13.21-29.612 29.507c0 16.296 13.258 29.506 29.612 29.506z" fill="#FDF3DF"/><path d="M40.874 72.511c17.616 0 31.896-14.23 31.896-31.782 0-17.553-14.28-31.783-31.896-31.783S8.978 23.176 8.978 40.73s14.28 31.78 31.896 31.78z" fill="#fff"/><path opacity=".5" d="M10.553 56.345L69.935 18.52S47.962-1.726 21.658 8.868c.079 0-25.36 16.793-11.105 47.477z" fill="#F7F7F7"/><path d="M38.275 8.24l.551 5.18 2.048-.629v-6.2l-2.599.236V8.24zm1.418 60.661l.63 5.101 1.969-.549v-6.278l-2.6.314V68.9zM8.19 42.298l5.12-.55-.552-2.04h-6.3l.236 2.59h1.497z" fill="#190902"/><path d="M68.99 40.886l5.119-.628-.551-1.962h-6.3l.314 2.59h1.418z" fill="#3E3830"/><path d="M18.98 64.35l3.229-4.002-1.811-1.02-4.41 4.394 1.968 1.648 1.024-1.02zm41.977-43.868l3.308-4.08-1.89-.942-4.41 4.394 2.047 1.648.945-1.02zm3.465 41.043l-4.017-3.218-1.023 1.805 4.41 4.395 1.654-1.962-1.024-1.02zM20.398 19.619L16.38 16.4l-1.024 1.884 4.41 4.394 1.655-2.04-1.024-1.02zm18.271 20.403s.236-24.405 1.654-24.405c1.417 0 2.047 24.876 2.047 24.876l-3.701-.47zm4.174.942s13.86 4.395 14.806 5.964c.945 1.57-16.224-3.453-16.224-3.453l1.418-2.51z" fill="#190902"/><path opacity=".3" d="M93.845 140c32.013 0 57.964-5.727 57.964-12.792 0-7.064-25.951-12.791-57.964-12.791-32.012 0-57.964 5.727-57.964 12.791 0 7.065 25.952 12.792 57.964 12.792z" fill="#BCBEC0"/><path d="M87.86 64.82s-14.019 1.1-19.453 1.963C58.17 61.21 56.122 61.21 53.444 60.897c-2.6-.314-5.198 4.316 4.568 12.32 9.687 8.084 12.443 5.808 24.256 6.279 11.814.47 5.592-14.204 5.592-14.204" fill="#FDD8CF"/><path d="M87.86 64.82s-14.019 1.1-19.453 1.963C58.17 61.21 56.122 61.21 53.444 60.897c-2.6-.314-5.198 4.316 4.568 12.32 9.687 8.084 12.443 5.808 24.256 6.279 11.814.47 5.592-14.204 5.592-14.204" stroke="#C6957F" stroke-miterlimit="10" stroke-linecap="round" stroke-linejoin="round"/><path opacity=".3" d="M87.86 65.37v-.47s-3.701.313-8.033.705c-5.355 10.987-14.412 8.24-23.705 6.043.55.55 1.18 1.099 1.89 1.648 9.687 8.083 12.443 5.807 24.256 6.278 11.814.47 5.592-14.204 5.592-14.204z" fill="#F9C7BD"/><path d="M55.57 65.606c2.442 1.098 2.205-1.413 2.52-2.355 1.576-5.1-2.126-6.67-2.835-9.103-.709-2.433-2.205-2.747-3.308-2.433-.708.157-1.102 1.648-.393 3.375.709 1.726.709 2.59.551 4.551-.079 1.805.394 4.552 3.465 5.965z" fill="#FDD8CF"/><path d="M53.05 60.74c.158-1.962.079-3.296-.394-4.787-.472-1.413-.945-2.825.158-3.218.709-.235 1.496.157 2.205.942-.63-1.57-1.969-2.59-3.308-1.883-1.024.47-.787 1.648-.315 3.139.473 1.412.867 2.59.551 4.708 0 1.491.473 4.16 2.127 5.18-.788-1.256-1.024-2.982-1.024-4.081z" fill="#F9C7BD"/><path d="M58.012 63.251c1.575-5.022-2.127-6.67-2.836-9.103-.708-2.433-2.52-2.904-3.465-2.354-1.181.706-.551 2.197-.078 3.61.472 1.412.63 2.275.472 4.237 0 0-.079 5.337 4.253 6.043" stroke="#C6957F" stroke-miterlimit="10" stroke-linecap="round" stroke-linejoin="round"/><path d="M45.568 61.21c1.654 3.846 3.308 7.456 8.27 7.064 4.174-.314 5.513-3.532 2.756-7.22-4.646-6.357-12.05-2.276-11.026.157z" fill="#FDD8CF"/><path opacity=".3" d="M50.924 59.877c-2.127.784-3.308 2.276-1.733 4.551 1.654 2.355 4.332 1.727 5.986.079 1.496-1.413.55-6.357-1.654-5.493l-2.6.863z" fill="#F9C7BD"/><path d="M52.341 57.444c-.472-.55-1.811-1.962-1.811-1.962s.079-.785-.551-2.511-3.23-2.825-3.544-2.04c-.71 1.726-.473 2.432-.08 3.845.316 1.098-.078.706 2.206 3.217.709.785 2.52 2.12 3.465 1.727 1.34-.314 1.024-1.413.315-2.276z" fill="#FDD8CF"/><path d="M49.979 53.05c.63 1.726.551 2.51.551 2.51s1.339 1.413 1.811 1.962c.71.785 1.497 1.962.237 2.433h-.08c.552-.55-.472-1.57-.865-2.276-.552-.863-1.97-2.197-1.97-2.197s.316-.785-.314-2.511c-.394-1.099-1.575-1.883-2.6-2.119.71-.314 2.757.706 3.23 2.197z" fill="#F9C7BD"/><path d="M52.341 57.444c-.472-.55-1.811-1.962-1.811-1.962s.079-.785-.551-2.511-3.23-2.825-3.544-2.04c-.71 1.726-.473 2.432-.08 3.845.316 1.098-.078.706 2.206 3.217.315.393.945.942 1.654 1.334" stroke="#C6957F" stroke-miterlimit="10" stroke-linecap="round" stroke-linejoin="round"/><path d="M49.427 60.74c-1.417-.314-3.78-2.354-4.646-3.531-.867-1.178-1.575-1.884-2.048-4.395-.236-1.099 1.89-1.805 3.387-.392 1.496 1.49 2.047 3.217 2.047 3.217s1.733 1.256 2.757 2.747c.945 1.57-.079 2.668-1.497 2.354z" fill="#FDD8CF"/><path d="M50.845 58.464c.63.942.473 1.727-.079 2.119.08-.47 0-1.099-.393-1.648-.945-1.491-2.678-2.747-2.678-2.747s-.551-1.726-2.048-3.217c-.945-.942-2.126-1.02-2.835-.628.394-.785 2.048-1.02 3.308.157 1.496 1.491 2.047 3.218 2.047 3.218s1.733 1.255 2.678 2.746z" fill="#F9C7BD"/><path d="M49.349 60.819c-1.418-.314-3.78-2.355-4.647-3.532-.866-1.177-1.575-1.883-2.048-4.395-.157-1.098 1.89-1.805 3.387-.313 1.496 1.49 2.048 3.217 2.048 3.217s1.732 1.256 2.756 2.747" stroke="#C6957F" stroke-miterlimit="10" stroke-linecap="round" stroke-linejoin="round"/><path d="M49.034 62.859c-1.34 0-4.096-1.413-5.277-2.433-1.181-1.02-1.969-1.49-3.229-4.002-.551-1.099 1.103-2.433 2.835-1.256 1.812 1.177 2.836 2.747 2.836 2.747s1.968.863 3.307 2.197c1.34 1.256.867 2.747-.472 2.747z" fill="#FDD8CF"/><path d="M49.506 60.112c.788.785.945 1.648.63 2.197-.079-.549-.315-1.098-.866-1.648-1.339-1.334-3.308-2.197-3.308-2.197s-1.103-1.648-2.835-2.746c-1.103-.707-2.205-.471-2.678.078.158-.942 1.497-1.648 2.914-.706 1.812 1.177 2.835 2.746 2.835 2.746s1.97.942 3.308 2.276z" fill="#F9C7BD"/><path d="M48.955 62.937c-1.339 0-4.095-1.412-5.277-2.432-1.181-1.02-1.969-1.491-3.229-4.003-.551-1.098 1.103-2.432 2.836-1.255 1.81 1.177 2.835 2.746 2.835 2.746s1.969.864 3.307 2.198m4.175-2.198s-4.883 2.12-5.513 4.63" stroke="#C6957F" stroke-miterlimit="10" stroke-linecap="round" stroke-linejoin="round"/><path d="M49.821 65.448c-1.339.393-3.859-.863-5.119-1.569-1.496-.863-3.701-3.139-4.016-4.16-.473-1.333.945-2.197 2.52-1.176 1.575 1.098 2.677 2.354 2.677 2.354s1.418.47 3.15 1.334c1.654.942 2.127 2.904.788 3.217z" fill="#FDD8CF"/><path d="M43.206 58.543c1.575 1.098 2.677 2.354 2.677 2.354s1.418.47 3.15 1.334c1.418.785 1.97 2.276 1.26 2.982-.63-1.648-2.362-3.374-5.197-3.845 0 0-1.103-2.668-3.78-3.218.472-.157 1.181-.078 1.89.393z" fill="#F9C7BD"/><path d="M48.955 62.31a26.888 26.888 0 00-3.15-1.335s-1.024-1.334-2.678-2.354c-1.654-1.099-2.993-.235-2.52 1.177.315 1.02 2.52 3.296 4.016 4.16 1.26.706 2.678.863 4.332 2.825 0 0 2.126 2.118 6.222 1.177" stroke="#C6957F" stroke-miterlimit="10" stroke-linecap="round" stroke-linejoin="round"/><path d="M99.91 64.9s12.522-.236 18.035.627c10.159-5.572 14.412-2.197 17.011-2.511 2.599-.314-4.647 11.3-12.207 13.89-4.647 1.648-3.308 2.59-15.2 1.334-11.735-1.255-7.64-12.948-7.64-12.948" fill="#FDD8CF"/><path d="M99.91 64.9s12.522-.236 18.035.627c10.159-5.572 14.412-2.197 17.011-2.511 2.599-.314-4.647 11.3-12.207 13.89-4.647 1.648-3.308 2.59-15.2 1.334-11.735-1.255-7.64-12.948-7.64-12.948" stroke="#C6957F" stroke-miterlimit="10" stroke-linecap="round" stroke-linejoin="round"/><path d="M131.648 65.449c-2.127.941-1.89-1.178-2.127-2.04-1.338-4.395 1.812-5.73 2.442-7.77.63-2.04 1.89-2.354 2.835-2.04.551.157.945 1.412.315 2.825-.63 1.49-.63 2.197-.472 3.924.078 1.57-.394 3.923-2.993 5.1z" fill="#FDD8CF"/><path d="M133.853 61.368c-.158-1.648-.079-2.825.315-4.08.394-1.256.788-2.434-.158-2.747-.551-.157-1.26.156-1.89.784.552-1.334 1.654-2.197 2.836-1.57.866.393.63 1.413.236 2.669-.394 1.255-.709 2.197-.473 4.002 0 1.256-.393 3.532-1.811 4.395.709-1.099.945-2.511.945-3.453z" fill="#F9C7BD"/><path d="M129.521 63.486c-1.338-4.316 1.812-5.728 2.442-7.769.63-2.04 2.126-2.511 2.914-1.962 1.024.628.472 1.884.079 3.06-.394 1.257-.552 1.963-.394 3.61 0 0 .079 4.552-3.623 5.18" stroke="#C6957F" stroke-miterlimit="10" stroke-linecap="round" stroke-linejoin="round"/><path d="M140.232 61.682c-1.339 3.296-2.835 6.356-7.088 5.964-3.623-.314-4.725-3.06-2.363-6.121 4.017-5.337 10.239-1.805 9.451.157z" fill="#FDD8CF"/><path opacity=".3" d="M135.586 60.583c1.811.706 2.835 1.884 1.496 3.924-1.418 1.962-3.702 1.412-5.119.078-1.26-1.255-.473-5.414 1.417-4.708l2.206.706z" fill="#F9C7BD"/><path d="M134.404 58.543c.394-.471 1.497-1.648 1.497-1.648s-.079-.628.472-2.119c.552-1.491 2.757-2.433 3.072-1.727.551 1.492.394 2.12.078 3.297-.236.941.079.549-1.89 2.746-.551.628-2.205 1.805-2.992 1.491-1.103-.392-.867-1.334-.237-2.04z" fill="#FDD8CF"/><path d="M136.373 54.776c-.472 1.491-.472 2.119-.472 2.119s-1.103 1.177-1.497 1.648c-.63.706-1.26 1.648-.157 2.04h.079c-.473-.47.393-1.334.787-1.883.473-.785 1.654-1.884 1.654-1.884s-.236-.706.236-2.197c.315-.942 1.339-1.648 2.205-1.805-.63-.235-2.362.628-2.835 1.962z" fill="#F9C7BD"/><path d="M134.404 58.543c.394-.471 1.497-1.648 1.497-1.648s-.079-.628.472-2.119c.551-1.491 2.757-2.433 3.072-1.727.551 1.492.393 2.12.078 3.297-.236.941.079.549-1.89 2.746-.315.314-.866.785-1.417 1.099" stroke="#C6957F" stroke-miterlimit="10" stroke-linecap="round" stroke-linejoin="round"/><path d="M136.925 61.368c1.181-.236 3.228-1.962 3.937-2.982.709-1.02 1.339-1.57 1.733-3.767.157-.942-1.575-1.57-2.835-.314s-1.733 2.747-1.733 2.747-1.496 1.098-2.284 2.354c-.866 1.256 0 2.197 1.182 1.962z" fill="#FDD8CF"/><path d="M135.664 59.406c-.472.785-.393 1.491.079 1.805-.079-.392 0-.863.315-1.413.788-1.255 2.284-2.354 2.284-2.354s.473-1.49 1.733-2.747c.787-.784 1.811-.863 2.362-.549-.393-.628-1.732-.863-2.756.157-1.26 1.256-1.733 2.747-1.733 2.747s-1.417 1.02-2.284 2.354z" fill="#F9C7BD"/><path d="M136.924 61.368c1.182-.236 3.229-2.04 3.938-2.982.709-1.02 1.339-1.57 1.733-3.767.157-.942-1.575-1.57-2.835-.314s-1.733 2.747-1.733 2.747-1.496 1.098-2.284 2.354" stroke="#C6957F" stroke-miterlimit="10" stroke-linecap="round" stroke-linejoin="round"/><path d="M137.239 63.094c1.103 0 3.466-1.255 4.49-2.119.945-.863 1.732-1.255 2.756-3.453.472-.941-.945-2.04-2.441-1.098-1.497.942-2.442 2.354-2.442 2.354s-1.654.706-2.835 1.884c-1.103 1.177-.63 2.432.472 2.432z" fill="#FDD8CF"/><path d="M136.767 60.74c-.709.706-.788 1.413-.551 1.883.078-.47.315-.941.708-1.412 1.182-1.099 2.836-1.883 2.836-1.883s.945-1.413 2.441-2.355c.945-.628 1.89-.392 2.284.079-.079-.785-1.26-1.413-2.52-.55-1.497.942-2.442 2.355-2.442 2.355s-1.575.784-2.756 1.883z" fill="#F9C7BD"/><path d="M137.318 63.173c1.103 0 3.465-1.256 4.489-2.119.945-.863 1.733-1.256 2.757-3.453.472-.942-.945-2.04-2.442-1.099-1.496.942-2.441 2.355-2.441 2.355s-1.654.706-2.835 1.883m-2.284-.47s2.914.548 3.465 2.746" stroke="#C6957F" stroke-miterlimit="10" stroke-linecap="round" stroke-linejoin="round"/><path d="M136.531 65.37c1.181.314 3.307-.785 4.331-1.334 1.26-.785 3.15-2.668 3.387-3.531.393-1.178-.788-1.884-2.205-1.02a13.912 13.912 0 00-2.284 2.04s-1.182.392-2.678 1.177c-1.26.628-1.654 2.354-.551 2.668z" fill="#FDD8CF"/><path d="M142.201 59.484c-1.339.942-2.284 2.04-2.284 2.04s-1.181.393-2.677 1.178c-1.261.628-1.733 1.962-1.103 2.511.551-1.412 2.048-2.825 4.41-3.296 0 0 .945-2.276 3.229-2.747-.394-.235-.945-.156-1.575.314z" fill="#F9C7BD"/><path d="M137.318 62.702a16.036 16.036 0 012.678-1.177s.866-1.099 2.284-2.04c1.339-.942 2.599-.157 2.205 1.02-.315.863-2.126 2.825-3.386 3.531-1.024.628-2.284.785-3.702 2.433 0 0-1.811 1.805-5.355 1.02" stroke="#C6957F" stroke-miterlimit="10" stroke-linecap="round" stroke-linejoin="round"/><path d="M108.021 66.155c-2.205-3.767-4.961-6.67-4.961-6.67s-12.207-1.178-16.066 1.333c-5.198 3.375-13.546 16.48-13.546 29.978 0 13.576 5.749 16.087 21.028 18.128 15.278 2.04 21.815-8.554 20.791-20.325-.158-1.805-1.733-10.124-5.277-15.617" fill="#FDD8CF"/><path d="M108.021 66.155c-1.417-2.355-3.15-4.552-5.04-6.592h.079c-2.757-.236-5.513-.236-8.27-.157-1.417.078-2.756.157-4.095.392-1.339.236-2.677.55-3.78 1.334-2.205 1.648-3.938 3.846-5.434 6.122a49.264 49.264 0 00-3.938 7.22c-2.205 5.022-3.544 10.436-3.623 15.93 0 2.746.158 5.493 1.024 8.083a10.525 10.525 0 004.883 6.121c2.362 1.334 5.04 2.119 7.718 2.668 2.678.549 5.434 1.02 8.19 1.334 2.757.235 5.513.157 8.112-.628a14.723 14.723 0 006.852-4.159c1.89-1.962 3.15-4.473 3.78-7.141.709-2.669.867-5.415.709-8.162-.315-2.746-.945-5.414-1.811-8.083-.788-2.668-1.812-5.257-3.308-7.612 1.496 2.355 2.599 4.944 3.465 7.534.867 2.668 1.575 5.336 1.969 8.083.236 2.746.079 5.572-.551 8.318-.709 2.668-1.969 5.337-3.859 7.377-1.89 2.119-4.411 3.61-7.088 4.394-2.757.785-5.592.942-8.348.628-2.757-.314-5.513-.706-8.27-1.255-2.756-.55-5.513-1.334-7.954-2.747-1.181-.706-2.363-1.648-3.229-2.747-.866-1.098-1.575-2.432-1.969-3.766-.866-2.747-1.024-5.572-1.024-8.319.08-5.572 1.497-11.143 3.702-16.166 1.103-2.51 2.441-5.022 4.017-7.298 1.575-2.276 3.386-4.473 5.67-6.2 1.181-.863 2.599-1.177 4.016-1.412 1.418-.236 2.757-.314 4.174-.392 2.757-.079 5.592.078 8.348.313h.079c1.812 2.355 3.387 4.552 4.804 6.985z" fill="#C6957F"/><path opacity=".3" d="M79.512 76.278c3.229-7.769 23.075-3.374 26.383-13.34a51.27 51.27 0 00-2.756-3.454s-12.207-1.177-16.066 1.334c-5.198 3.375-13.546 16.48-13.546 29.978 0 13.576 5.749 16.087 21.027 18.128 10.632 1.412 17.012-3.296 19.61-10.202-14.884-4.316-40.401-8.161-34.652-22.444z" fill="#F9C7BD"/><path d="M91.483 104.215l-.473 10.281-.315 7.141C74.63 124.933 67.07 114.417 61.792 105l-.945-1.648c-5.355-9.81.866-15.852 8.19-13.498 7.325 2.355 10.79 6.278 10.79 6.278l11.656 8.083zm8.505-1.177l.473 10.28.315 7.142c16.066 3.296 23.626-7.22 28.903-16.637l.945-1.648c5.355-9.81-.866-15.852-8.19-13.498-7.325 2.354-10.79 6.278-10.79 6.278l-11.656 8.083z" fill="#F9C7BD" stroke="#C6957F" stroke-miterlimit="10" stroke-linecap="round" stroke-linejoin="round"/><path d="M84.71 122.343s13.782 3.061 22.13-1.177c-1.654-7.612 9.923-24.877 9.923-24.877l-1.024-5.65s-26.54 2.825-42.291 1.02c-.788 3.846.394 5.965.394 5.965s11.97 15.145 10.868 24.719z" fill="#fff" stroke="#BCBEC0" stroke-miterlimit="10" stroke-linecap="round" stroke-linejoin="round"/><path opacity=".5" d="M116.763 96.21l-1.024-5.65s-.708.08-1.968.158c.708 7.69-5.356 14.361-9.845 20.56-1.89 3.139-1.26 8.083-3.78 9.339-3.544 1.726-7.403 2.119-11.42 2.354 4.726.628 12.601.942 18.035-1.805-1.575-7.612 10.002-24.955 10.002-24.955z" fill="#EFEFEF"/><path d="M86.6 78.397c1.392 0 2.52-.633 2.52-1.413s-1.128-1.412-2.52-1.412c-1.392 0-2.52.632-2.52 1.412 0 .78 1.128 1.413 2.52 1.413zm15.594 0c1.391 0 2.52-.633 2.52-1.413s-1.129-1.412-2.52-1.412c-1.392 0-2.52.632-2.52 1.412 0 .78 1.128 1.413 2.52 1.413z" fill="#F9C7BD"/><path d="M53.759 121.872l-12.837-1.883c1.969-14.597 7.01-21.58 10.79-26.133a11.328 11.328 0 012.992-2.51c9.845-5.337 15.909.863 13.546 8.16-2.363 7.299-6.3 10.752-6.3 10.752l-8.191 11.614z" fill="#FDD8CF"/><path d="M53.759 121.872l-12.916-1.648c-.079 0-.158-.078-.158-.235.71-5.493 1.97-11.065 4.253-16.166 1.103-2.59 2.52-5.023 4.174-7.298a53.172 53.172 0 012.6-3.296c.944-1.02 2.204-1.962 3.465-2.511l.945-.471c.315-.157.708-.236 1.023-.393.316-.078.63-.235 1.024-.314l1.024-.235c1.418-.236 2.914-.393 4.332 0a6.915 6.915 0 013.701 2.197c.945 1.099 1.496 2.511 1.654 4.002.157 1.413-.079 2.904-.472 4.238a58.409 58.409 0 01-1.576 3.924c-1.26 2.511-2.835 4.865-4.882 6.827l-8.191 11.379zm0 0l7.876-11.614c1.968-1.884 3.465-4.316 4.646-6.749 1.103-2.511 2.284-5.18 1.969-7.848-.157-1.334-.709-2.59-1.496-3.61-.867-1.02-2.048-1.647-3.308-1.961-1.26-.314-2.678-.236-4.017 0l-1.023.235c-.316.079-.63.236-.945.314-.316.157-.63.235-.946.392l-.945.471c-1.26.55-2.362 1.334-3.229 2.355a115.416 115.416 0 00-2.599 3.217c-1.653 2.276-2.992 4.63-4.174 7.141-2.283 5.023-3.622 10.437-4.489 15.931l-.157-.236 12.837 1.962z" fill="#C6957F"/><path opacity=".3" d="M49.742 121.087l-8.426-1.255c1.969-15.067 7.481-22.287 11.104-26.76a5.147 5.147 0 011.418-1.177c-6.458 8.553-9.372 19.618-4.096 29.192z" fill="#F9C7BD"/><path d="M135.271 120.774l12.837-1.884c-1.969-14.439-7.167-21.737-10.868-26.289a10.321 10.321 0 00-2.835-2.354c-9.845-5.337-15.909.863-13.546 8.161 2.362 7.298 6.3 10.751 6.3 10.751l8.112 11.615z" fill="#FDD8CF"/><path d="M135.271 120.774l12.837-2.041-.157.236c-.788-5.494-2.206-10.908-4.49-15.931a36.041 36.041 0 00-4.174-7.141 50.033 50.033 0 00-2.52-3.218c-.866-1.02-1.969-1.805-3.229-2.354l-.945-.47c-.315-.158-.63-.236-.945-.393-.315-.079-.63-.236-.945-.314l-1.024-.235c-1.339-.236-2.677-.314-4.016 0-1.26.314-2.52 1.02-3.308 1.962-.866 1.02-1.418 2.275-1.496 3.61-.315 2.668.866 5.336 1.969 7.847 1.181 2.511 2.677 4.865 4.646 6.749l7.797 11.693zm0 0l-8.269-11.379c-2.048-1.962-3.623-4.316-4.883-6.828a23.938 23.938 0 01-1.575-3.923c-.394-1.335-.63-2.826-.473-4.238a7.801 7.801 0 011.654-4.002 6.915 6.915 0 013.701-2.198c1.418-.392 2.914-.314 4.332 0l1.024.236c.315.078.709.235 1.024.314.315.157.708.235 1.023.392l.946.47c1.26.55 2.52 1.413 3.465 2.512.945 1.099 1.732 2.197 2.599 3.374 1.654 2.276 3.071 4.709 4.174 7.299 2.284 5.101 3.544 10.672 4.331 16.166 0 .078-.078.235-.157.235l-12.916 1.57z" fill="#C6957F"/><path opacity=".3" d="M139.366 120.146l8.742-1.256c-2.205-16.087-8.348-23.228-12.05-27.702-.315-.157-.551-.314-.866-.47 6.537 8.553 9.53 19.775 4.174 29.428z" fill="#F9C7BD"/><path d="M40.134 113.632s-2.363-6.435-5.355-4.551c-3.072 1.962.236 4.865 2.047 5.493" fill="#FDD8CF"/><path d="M40.134 113.632c-.63-1.177-1.26-2.276-2.048-3.217-.393-.471-.866-.863-1.338-1.099a1.676 1.676 0 00-1.497 0c-.472.236-1.024.628-1.181 1.099-.236.471-.079 1.02.157 1.569.237.55.71 1.02 1.103 1.413.472.471.945.785 1.575 1.098-1.26-.392-2.441-1.098-3.229-2.275-.394-.55-.551-1.413-.315-2.119l.236-.471a.943.943 0 01.394-.392c.158-.157.236-.236.394-.314.157-.079.315-.236.472-.314.63-.393 1.575-.393 2.206 0 .63.392 1.102.863 1.496 1.412a12.295 12.295 0 011.575 3.61z" fill="#C6957F"/><path d="M35.409 114.26s-.709-2.982-2.678-2.119c-1.969.863-.079 2.668.394 2.825" fill="#FDD8CF"/><path d="M35.409 114.26c-.315-.549-.63-1.099-1.103-1.491-.394-.392-.866-.471-1.417-.235a1.708 1.708 0 00-.63.392c-.158.157-.158.314-.158.628.157.471.473 1.098.945 1.491a1.888 1.888 0 01-.866-.471c-.236-.236-.473-.471-.63-.863-.158-.314-.158-.864.078-1.256.237-.392.63-.549.946-.706.315-.157.787-.157 1.18-.079.395.079.71.393.946.628.551.628.709 1.256.709 1.962z" fill="#C6957F"/><path d="M33.046 115.045s-1.181-2.119-2.441-.785c-.552.628-.394 1.805.551 2.119-1.418-1.02-2.599.471-2.048 1.413.552.941 1.34 1.098 1.34 1.098s-1.418-.628-1.733.157c-.394.942.315 1.805 1.653 2.433" fill="#FDD8CF"/><path d="M33.046 115.045c-.315-.393-.63-.706-1.024-.942-.393-.235-.787-.157-1.102.157-.315.314-.394.706-.315 1.02.078.393.315.628.709.707l-.316.627c-.315-.235-.63-.314-.945-.235a.853.853 0 00-.63.628v.392c0 .079.158.314.315.471.237.314.552.549.867.628l-.237.706c-.315-.157-.708-.314-1.023-.235-.158 0-.237.078-.315.235-.08.157-.158.314-.08.471 0 .314.237.706.552 1.02.315.314.63.549 1.024.785-.394-.157-.788-.314-1.181-.628a1.61 1.61 0 01-.788-1.177c-.079-.236 0-.549.079-.785.079-.314.394-.549.63-.628.551-.157 1.024 0 1.496.157.158.079.315.236.236.471a.434.434 0 01-.393.236c-.63-.079-1.024-.393-1.34-.785-.157-.236-.314-.393-.393-.706-.079-.314-.079-.628 0-.864.158-.549.63-1.02 1.181-1.177.552-.157 1.182.079 1.575.393.158.157.158.313.08.47-.08.157-.237.157-.394.079a1.772 1.772 0 01-1.024-1.334c-.08-.55.236-1.177.63-1.413.236-.157.472-.314.787-.314.315 0 .551.079.71.236.157.471.472.863.63 1.334z" fill="#C6957F"/><path d="M46.12 117.164s-4.41-4.316-8.506-3.846c-4.095.471-9.372 3.532-7.324 7.691 2.047 4.081 8.663 8.318 17.01 8.318 2.679 0 7.719-.078 7.246-5.493-.315-4.159-3.15-2.433-8.426-6.67z" fill="#FDD8CF"/><path d="M46.12 117.163c-.946-.863-2.048-1.726-3.23-2.354-1.18-.628-2.362-1.177-3.701-1.412-1.339-.236-2.599.157-3.859.549-1.26.471-2.441 1.02-3.386 1.883-.946.864-1.733 1.962-1.733 3.218 0 1.255.709 2.354 1.496 3.374 1.654 2.041 3.86 3.453 6.3 4.552 2.363 1.099 4.962 1.726 7.561 1.962 1.34.078 2.6.157 3.938.078 1.26-.078 2.599-.392 3.623-1.177s1.496-2.119 1.417-3.374c0-.628-.078-1.334-.236-1.962-.157-.628-.63-1.177-1.181-1.491-1.103-.628-2.442-1.02-3.623-1.648-1.26-.628-2.363-1.334-3.386-2.198zm0 0c1.023.785 2.205 1.57 3.386 2.119 1.181.628 2.441.942 3.623 1.648.551.314 1.102.864 1.26 1.491.236.628.315 1.334.315 1.962 0 .706-.079 1.334-.315 2.041-.236.627-.63 1.255-1.181 1.726-1.103.863-2.52 1.256-3.86 1.334-1.338.157-2.677.157-4.016.079a23.119 23.119 0 01-7.876-1.884c-2.441-1.098-4.804-2.668-6.458-4.787-.393-.549-.787-1.098-1.102-1.726a4.565 4.565 0 01-.473-2.041c.08-1.491 1.024-2.668 2.048-3.531 1.103-.863 2.284-1.413 3.623-1.805 1.26-.392 2.599-.628 3.938-.392 1.338.235 2.598.784 3.701 1.412 1.339.628 2.441 1.491 3.387 2.354z" fill="#C6957F"/><path opacity=".3" d="M31.313 119.047s3.23-5.415 8.664-4.159c5.434 1.255-1.182 5.101 2.283 7.22 3.466 2.118 6.852-2.355 9.845.314 2.992 2.746 1.417 5.1-3.23 5.571-4.567.393-18.507-2.276-17.562-8.946z" fill="#F9C7BD"/><path d="M148.423 113.946s2.52-6.435 5.513-4.394c2.992 2.04-.394 4.865-2.205 5.414" fill="#FDD8CF"/><path d="M148.423 113.946c.394-1.255.866-2.433 1.732-3.531.394-.55.867-1.02 1.576-1.334.63-.393 1.575-.314 2.205.078.157.079.315.157.472.314.158.157.315.236.394.314.158.157.236.314.315.392.079.157.158.314.236.55.237.784 0 1.569-.393 2.119-.788 1.177-1.969 1.883-3.229 2.197.551-.314 1.102-.628 1.575-1.099a5.148 5.148 0 001.181-1.412c.315-.55.394-1.099.158-1.57-.158-.471-.631-.863-1.103-1.177-.473-.314-1.024-.314-1.496-.078-.552.235-.945.627-1.418 1.098-.866.942-1.496 2.041-2.205 3.139z" fill="#C6957F"/><path d="M153.148 114.731s.788-2.904 2.757-2.04c1.969.863 0 2.668-.473 2.825" fill="#FDD8CF"/><path d="M153.148 114.731c0-.628.236-1.334.709-1.883.236-.314.551-.55.945-.628.394-.079.788-.079 1.181.078.315.157.709.314.945.707.237.392.237.863.079 1.255-.157.392-.394.628-.709.863-.236.236-.551.393-.945.471.473-.392.867-.942 1.024-1.491.079-.235 0-.471-.079-.628-.078-.157-.393-.314-.63-.392-.472-.235-.945-.157-1.417.235-.394.314-.788.864-1.103 1.413z" fill="#C6957F"/><path d="M155.432 115.594s1.26-2.119 2.442-.706c.551.628.393 1.805-.63 2.119 1.417-1.02 2.598.549 2.047 1.491-.63.941-1.417 1.02-1.417 1.02s1.417-.628 1.732.235c.394.942-.394 1.805-1.732 2.355" fill="#FDD8CF"/><path d="M155.432 115.594c.236-.392.473-.785.945-1.098.236-.157.473-.236.788-.236.315 0 .551.157.709.314.393.314.708.942.63 1.491a1.772 1.772 0 01-1.024 1.334c-.158.079-.394-.078-.473-.235-.079-.157 0-.314.158-.393.394-.314 1.024-.549 1.575-.392a1.772 1.772 0 011.181 1.177c.079.314.079.628 0 .863-.157.314-.236.471-.472.707-.394.392-.788.706-1.418.784-.157 0-.394-.078-.394-.314 0-.157.079-.313.237-.392.472-.157.945-.314 1.496-.157a.854.854 0 01.63.628c.079.235.079.549.079.785-.079.549-.473.863-.867 1.098-.393.236-.787.471-1.181.55a5.067 5.067 0 001.024-.785c.315-.314.551-.628.551-1.02 0-.157 0-.314-.079-.471-.078-.157-.157-.157-.315-.236-.315-.078-.708.079-1.023.236l-.158-.706c.315-.079.63-.314.866-.55.158-.157.237-.314.315-.471.079-.157.079-.313 0-.392a.853.853 0 00-.63-.628c-.315-.078-.63 0-.945.236l-.315-.628c.315-.079.63-.393.709-.706.079-.393 0-.785-.315-1.099-.315-.314-.709-.392-1.103-.235-.551.235-.866.549-1.181.941z" fill="#C6957F"/><path d="M142.358 117.399s4.489-4.16 8.585-3.61c4.095.549 9.214 3.845 7.088 7.847-2.127 4.081-8.9 8.083-17.248 7.848-2.677-.079-7.718-.314-7.088-5.651.473-4.159 3.308-2.354 8.663-6.434z" fill="#FDD8CF"/><path d="M142.359 117.399c1.024-.863 2.047-1.648 3.229-2.354 1.181-.628 2.441-1.177 3.78-1.334 1.339-.157 2.678.157 3.938.549 1.26.471 2.52 1.02 3.544 1.962 1.024.863 1.969 2.119 1.969 3.531 0 .707-.158 1.413-.473 2.041-.315.627-.709 1.177-1.102 1.726-1.733 2.119-4.096 3.61-6.616 4.63a22.792 22.792 0 01-7.875 1.648c-1.339.079-2.678 0-4.017-.157-1.339-.157-2.756-.549-3.78-1.491-.552-.471-.945-1.098-1.103-1.726-.236-.628-.236-1.334-.236-2.041.079-.706.157-1.334.394-1.962a2.76 2.76 0 011.339-1.491c1.181-.627 2.52-.941 3.701-1.491a20.819 20.819 0 003.308-2.04zm0 0c-1.024.785-2.205 1.491-3.387 2.119-1.181.628-2.52.942-3.622 1.569a3.127 3.127 0 00-1.261 1.413c-.236.628-.315 1.256-.315 1.883-.078 1.256.315 2.669 1.339 3.453 1.024.785 2.284 1.099 3.623 1.256 1.339.078 2.599.157 3.938.078 2.599-.157 5.198-.706 7.639-1.726 2.442-.942 4.725-2.354 6.379-4.316.788-.942 1.575-2.119 1.575-3.296 0-1.256-.708-2.433-1.653-3.296-.946-.863-2.127-1.491-3.387-1.962-1.26-.471-2.52-.785-3.859-.628-1.339.157-2.599.628-3.701 1.256-1.182.549-2.284 1.334-3.308 2.197z" fill="#C6957F"/><path opacity=".3" d="M157.165 119.675s-3.072-5.493-8.506-4.395c-5.513 1.099 1.024 5.18-2.52 7.142-3.544 2.04-6.852-2.59-9.844.078-3.072 2.668-1.497 5.101 3.071 5.65 4.489.471 18.508-1.805 17.799-8.475z" fill="#F9C7BD"/><path d="M120.386 40.572s2.756-6.592 8.033-4.395c5.277 2.119-.709 15.695-7.324 13.027" fill="#FDD8CF"/><path d="M120.386 40.572c.473-1.177 1.103-2.276 1.969-3.218.866-.941 1.969-1.648 3.308-1.883.315 0 .63-.079 1.023-.079.315.079.63.079.945.157.316.079.631.157.946.314l.472.236c.158.078.315.235.394.314.551.47.866 1.098 1.102 1.726.237.628.237 1.334.237 1.962-.158 2.59-1.26 5.022-2.914 6.984-.867.942-1.89 1.805-3.072 2.276-.63.235-1.26.314-1.89.314-.63 0-1.26-.157-1.811-.471.63.157 1.181.235 1.811.235a6.286 6.286 0 001.733-.47c1.102-.55 1.969-1.334 2.756-2.276a15.535 15.535 0 001.812-3.14c.472-1.098.787-2.275.787-3.452s-.236-2.354-1.024-3.14l-.315-.235-.393-.157-.867-.313c-.315-.079-.551-.079-.866-.157h-.866c-1.182.157-2.284.784-3.151 1.57-.787.784-1.496 1.804-2.126 2.903z" fill="#C6957F"/><path d="M122.827 41.67s-.472 1.334.631 1.256c1.102-.078.63 1.334-.316 2.197-.945.864 3.466 1.178 4.49-3.61.945-4.865-3.387-3.53-4.805.157z" fill="#F9C7BD"/><path d="M67.935 40.572s-2.757-6.592-8.033-4.395c-5.277 2.119.709 15.695 7.324 13.027" fill="#FDD8CF"/><path d="M67.935 40.572c-.63-1.099-1.34-2.119-2.205-2.904-.867-.785-1.97-1.412-3.15-1.57h-.867c-.315.08-.551.08-.866.158l-.867.314-.393.157-.237.157c-.866.706-1.102 1.961-1.023 3.139.078 1.177.315 2.354.787 3.452a15.516 15.516 0 001.812 3.14c.787.941 1.653 1.804 2.756 2.275a6.273 6.273 0 001.733.471c.63 0 1.26-.078 1.811-.235a6.832 6.832 0 01-1.811.47c-.63 0-1.26-.078-1.89-.313-1.182-.471-2.206-1.334-3.072-2.276-1.654-1.962-2.756-4.395-2.914-6.984 0-.628.079-1.335.236-1.962.158-.628.552-1.256 1.103-1.727.157-.078.315-.235.394-.314l.472-.235c.315-.079.63-.157.945-.314.315-.079.63-.079.945-.157.315 0 .63 0 1.024.078 1.339.236 2.442 1.02 3.308 1.884.866 1.02 1.575 2.119 1.969 3.296z" fill="#C6957F"/><path d="M65.572 41.67s.473 1.334-.63 1.256c-1.102-.078-.63 1.334.315 2.197.945.864-3.465 1.178-4.489-3.61-1.024-4.865 3.308-3.53 4.804.157z" fill="#F9C7BD"/><path d="M90.932 9.888c-8.9.706-30.636 5.964-26.305 31.468-5.67 15.46 4.174 24.406 13.231 28.173 8.978 3.767 16.854 3.61 16.854 3.61s9.057.235 19.059-6.67c9.687-6.592 12.994-14.91 9.372-25.505 2.205-28.8-24.1-31.782-32.211-31.076z" fill="#FDD8CF"/><path d="M90.931 9.888c-3.937.313-7.796 1.255-11.498 2.746-3.623 1.491-7.088 3.61-9.687 6.592-1.339 1.491-2.441 3.06-3.307 4.866-.867 1.726-1.418 3.688-1.812 5.571-.787 3.846-.551 7.848.079 11.693v.079c-1.418 4.002-2.127 8.318-1.181 12.477a19.614 19.614 0 002.362 5.807c1.103 1.805 2.52 3.375 4.096 4.709 1.575 1.412 3.386 2.511 5.197 3.531 1.89 1.02 3.86 1.805 5.828 2.433a48.424 48.424 0 0012.444 2.354c2.126.079 4.174-.235 6.3-.627 2.048-.471 4.095-1.02 6.064-1.805 3.938-1.57 7.64-3.767 10.869-6.514 3.229-2.747 5.827-6.2 6.93-10.28 1.103-4.08.63-8.476-.788-12.4v-.078c.315-4.237.158-8.632-1.102-12.713-1.26-4.08-3.544-7.926-6.773-10.75-3.229-2.905-7.167-4.866-11.341-6.043-4.016-1.335-8.348-1.962-12.68-1.648zm0 0c4.332-.314 8.664.313 12.838 1.49 4.174 1.178 8.111 3.14 11.34 6.043a22.772 22.772 0 014.253 4.866c1.182 1.805 2.048 3.845 2.757 5.885 1.339 4.16 1.575 8.554 1.26 12.87v-.078c1.417 4.002 2.047 8.475.945 12.713-1.103 4.237-3.78 7.847-7.009 10.672-3.229 2.825-7.01 5.023-11.026 6.67-1.969.786-4.095 1.492-6.143 1.884-2.127.471-4.253.785-6.458.628-4.332-.235-8.584-1.099-12.68-2.433-2.047-.706-4.016-1.49-5.985-2.51-1.969-1.1-3.78-2.355-5.355-3.768-1.654-1.412-3.072-3.06-4.175-4.944-1.102-1.883-1.968-3.845-2.362-5.964-.867-4.237-.158-8.632 1.339-12.634v.078c-.63-3.924-.788-7.926 0-11.771.787-3.846 2.52-7.534 5.198-10.437 2.677-2.904 6.064-5.101 9.765-6.514 3.702-1.57 7.56-2.433 11.498-2.746z" fill="#C6957F"/><path opacity=".3" d="M65.966 53.677c-3.465-4.865 3.465-9.025 2.757-13.89-1.182-5.258-2.363-10.594-2.284-15.852-2.206 4.395-3.15 10.045-1.89 17.421-5.671 15.46 4.173 24.406 13.23 28.173 8.978 3.767 16.854 3.61 16.854 3.61s.788 0 2.205-.157c-12.443-1.334-24.256-8.554-30.872-19.305z" fill="#F9C7BD"/><path d="M91.247 49.989s-1.576 4.865 3.228 2.276l-3.228-2.276z" fill="#FDD8CF"/><path d="M91.247 49.989c0 .55 0 1.02.078 1.49.08.472.237.864.473 1.021.236.157.787.078 1.26.078.472-.078.945-.235 1.496-.313-.393.392-.866.706-1.338.863-.473.157-1.103.392-1.812 0-.315-.236-.551-.471-.63-.785-.079-.157-.079-.314-.079-.47v-.393c.08-.471.237-1.02.552-1.491z" fill="#7C3D3D"/><path d="M89.199 60.19c-.552-3.766 8.663-8.082 8.663 1.02l-8.663-1.02z" fill="#8C483F"/><path d="M89.199 60.19c-.158-.627 0-1.255.236-1.883.315-.55.709-1.099 1.181-1.49a5.344 5.344 0 013.623-1.413c.709 0 1.34.235 1.97.549.55.392 1.023.942 1.26 1.49.55 1.178.55 2.512.472 3.69-.158-1.178-.394-2.434-1.024-3.454-.551-1.02-1.575-1.648-2.678-1.648-1.102 0-2.284.393-3.229 1.099-.945.863-1.811 1.805-1.811 3.06z" fill="#EE8F93"/><path d="M97.862 61.21s-4.49 8.24-8.663-1.02l8.663 1.02z" fill="#8C483F"/><path d="M97.862 61.21c-.394.942-.945 1.884-1.733 2.59a5.173 5.173 0 01-1.339.942 3.228 3.228 0 01-1.732.236c-1.182-.236-2.048-1.1-2.6-1.962-.63-.864-1.023-1.805-1.26-2.825.552.863 1.103 1.726 1.733 2.432.63.707 1.418 1.413 2.284 1.491.867.157 1.733-.235 2.52-.784.788-.55 1.497-1.334 2.127-2.12z" fill="#EE8F93"/><path d="M87.545 56.11s.551 4.002-2.599 4.395l2.599-4.395z" fill="#FDD8CF"/><path d="M87.545 56.11c.236.47.315.942.315 1.49 0 .472-.079 1.021-.315 1.492-.236.47-.63.942-1.103 1.177-.472.314-1.023.314-1.496.236.473-.236.866-.471 1.103-.785.315-.314.55-.628.708-1.02.158-.393.315-.785.394-1.256l.394-1.334z" fill="#C6957F"/><path d="M102.115 54.54s-4.253 5.494 1.575 7.22l-1.575-7.22z" fill="#FDD8CF"/><path d="M102.115 54.54c-.315.707-.63 1.413-.788 2.12-.236.705-.315 1.412-.315 2.118.079.706.394 1.256.866 1.726.237.236.552.471.867.707.315.235.63.392 1.024.549-.394-.078-.788-.078-1.182-.235-.394-.157-.787-.314-1.102-.55a2.87 2.87 0 01-1.261-2.119c-.078-.863.158-1.648.473-2.354.394-.785.788-1.412 1.418-1.962z" fill="#C6957F"/><path d="M73.526 43.632s4.41-3.06 8.033-2.432c3.623.627 2.836-.628.394-1.491-2.441-.864-5.749.863-8.427 3.923zm36.307-2.825s-4.883-2.276-8.348-1.02c-3.466 1.256-2.914-.157-.63-1.413 2.284-1.255 5.828-.078 8.978 2.433z" fill="#A56438"/><path d="M98.413 44.574c.079 2.433 2.599 2.668 5.986 2.59 4.725-.079 5.276-2.12 5.04-4.003-.236-1.883-4.174-2.668-6.458-2.354-2.284.314-4.646 1.805-4.568 3.767z" fill="#F9C7BD"/><path d="M99.752 45.673c-.079-1.02.63-3.61 4.804-3.61 3.859 0 4.332 3.06 4.332 3.06s.472-1.02-.552-2.197c-1.023-1.177-3.465-1.883-5.749-1.256-1.89.628-3.229 2.355-2.835 4.003z" fill="#190902"/><path d="M108.337 48.498c-2.993-1.334-6.065.078-6.695.55-.708.548 1.182.94 3.308.862" fill="#FDD8CF"/><path d="M85.812 46.144c0 2.04-1.811 3.53-5.591 3.845-4.253.392-6.222-1.256-6.3-3.375-.08-2.118 4.095-3.61 6.615-3.688 2.52-.078 5.276 1.099 5.276 3.218z" fill="#F9C7BD"/><path d="M84.71 47.32c-.08-1.02-1.26-3.374-5.356-2.667-3.859.627-3.78 3.688-3.78 3.688s-.63-.942.158-2.197c.787-1.335 3.15-2.355 5.434-2.12 2.126.158 3.701 1.57 3.544 3.297z" fill="#190902"/><path d="M81.245 52.578c.945-.235 2.441-1.098 2.205-1.726-.237-.628-2.284-1.57-6.143.55m10.002 15.224s4.331 2.354 5.985 2.354c3.465 0 5.434-2.04 7.088-2.355" fill="#FDD8CF"/><path d="M87.309 66.626l3.307 1.255c.552.157 1.103.392 1.654.55.237.078.552.156.788.156h.787c1.103-.078 2.206-.392 3.308-.784 1.024-.393 2.126-1.02 3.308-1.177-.552.235-1.024.47-1.575.784a14.75 14.75 0 01-1.497.864c-1.023.549-2.284.941-3.465 1.02h-.945l-.945-.236c-.551-.235-1.103-.392-1.654-.706-1.102-.47-2.126-1.099-3.071-1.727z" fill="#C6957F"/><path d="M70.691 50.617s-1.732.078-2.52 1.57c-.787 1.49.63 1.647 1.418.235.787-1.491 1.102-1.805 1.102-1.805zm-4.411-1.099s-1.496-.863-2.834 0c-1.34.863-.237 1.805 1.102.942 1.34-.785 1.733-.942 1.733-.942zm5.199-2.747s-1.339-1.098-2.835-.392c-1.497.628-.473 1.726.945 1.099 1.417-.628 1.89-.707 1.89-.707zm40.716-1.02s1.339-1.02 2.914-.47c1.575.549.63 1.647-.866 1.098-1.496-.55-2.048-.628-2.048-.628zm2.757-2.197s1.102-1.334 2.678-.942c1.575.314.787 1.648-.709 1.256-1.497-.314-1.969-.314-1.969-.314zm-2.914-1.099s.63-1.57 2.284-1.726c1.575-.157 1.26 1.334-.315 1.412-1.497.157-1.969.314-1.969.314z" fill="#70B6FF"/><path d="M82.426 52.343l-1.181 2.354m2.599-3.217l-1.26 3.139m3.228-3.61l-1.26 2.747m2.599-1.806l-.55.785m17.876-1.883l1.575 2.119m-3.15-2.747l1.733 2.825m-3.702-2.982l1.654 2.511m-2.835-1.334l.709.707" stroke="#F9C7BD" stroke-miterlimit="10" stroke-linecap="round" stroke-linejoin="round"/><path d="M89.356 8.631c-2.442.55-7.56 2.669-6.852 7.142.709 4.394 9.45 5.728 9.057 9.652-.394 3.924 7.403.706 11.262-8.868 3.859-9.574-9.608-8.789-13.467-7.926z" fill="#A56438"/><path d="M89.356 8.632c-1.26.314-2.441.785-3.544 1.413-1.102.628-2.126 1.57-2.677 2.668-.63 1.099-.63 2.511-.237 3.688.473 1.177 1.497 2.04 2.52 2.747 1.024.706 2.206 1.334 3.308 2.04 1.103.707 2.284 1.413 2.993 2.669.157.313.236.706.315 1.02v.941c.079.55.472.785 1.024.707.551 0 1.181-.236 1.654-.55.55-.314 1.102-.628 1.575-1.02 1.969-1.49 3.622-3.531 4.883-5.729a27.718 27.718 0 001.653-3.452c.237-.55.394-1.178.473-1.805.079-.628.079-1.256-.079-1.805-.315-1.178-1.26-2.198-2.362-2.747-1.103-.628-2.363-.942-3.702-1.099-2.599-.235-5.198-.157-7.797.314zm0 0c2.52-.55 5.198-.628 7.718-.314 1.26.157 2.6.393 3.781 1.02 1.181.55 2.283 1.57 2.677 2.826.158.627.236 1.334.158 1.962-.079.627-.237 1.334-.394 1.961-.394 1.256-.945 2.433-1.575 3.61-1.26 2.276-2.914 4.395-5.04 6.043-.552.392-1.103.785-1.733 1.099-.63.313-1.26.549-1.969.549-.394 0-.788-.079-1.103-.314-.393-.236-.55-.706-.55-1.099v-1.019c0-.315-.08-.55-.237-.786-.551-1.02-1.575-1.805-2.678-2.51-1.102-.707-2.205-1.413-3.229-2.198-1.024-.785-2.047-1.727-2.52-2.982-.394-1.256-.315-2.668.394-3.846.63-1.177 1.654-2.04 2.756-2.668 1.103-.627 2.284-1.098 3.544-1.334z" fill="#7F3F34"/><path opacity=".4" d="M102.981 11.379c.315 4.473-2.441 8.946-6.064 11.457 1.26-1.883 2.52-3.767 2.52-5.964-.63 3.453-4.725 3.767-7.246 5.337.316-.942.63-2.198 0-3.14-1.26-.941-1.89-1.57-3.465-1.883-2.52-.863-3.701-3.374-4.489-6.043-1.26 1.1-2.047 2.669-1.733 4.552.71 4.395 9.451 5.729 9.057 9.652-.393 3.924 7.403.707 11.262-8.867.946-2.198.867-3.924.158-5.101z" fill="#BCBEC0"/></g><defs><clipPath id="clip0"><path fill="#fff" d="M0 0h160v140H0z"/></clipPath></defs></svg>