<svg width="127" height="140" fill="none" xmlns="http://www.w3.org/2000/svg"><g clip-path="url(#clip0)"><path opacity=".3" d="M117.175 126.684c0-7.828-22.443-14.216-50.115-14.216-27.671 0-50.115 6.388-50.115 14.216C16.945 134.512 39.39 140 67.06 140c27.762 0 50.115-5.488 50.115-13.316z" fill="#BCBEC0"/><path d="M55.072 62.622S40.47 69.28 34.882 72.34c-13.16-1.98-15.413-1.17-18.387-.54-2.885.72-3.876 6.658 9.734 11.517 13.61 4.859 15.684 1.35 28.573-2.7 12.89-4.048.36-17.544.36-17.544" fill="#FDD8CF"/><path d="M55.072 62.622S40.47 69.28 34.882 72.34c-13.16-1.98-15.413-1.17-18.387-.54-2.885.72-3.876 6.658 9.734 11.517 13.61 4.859 15.684 1.35 28.573-2.7 12.89-4.048.36-17.544.36-17.544" stroke="#C6957F" stroke-miterlimit="10" stroke-linecap="round" stroke-linejoin="round"/><path opacity=".3" d="M55.253 63.162l-.18-.54s-3.877 1.71-8.383 3.869c-1.442 13.946-12.26 14.576-23.075 15.835.811.36 1.713.72 2.704 1.08 13.61 4.859 15.684 1.35 28.573-2.7 12.8-4.138.36-17.544.36-17.544z" fill="#F9C7BD"/><path d="M20.64 76.028c3.065.27 1.803-2.34 1.803-3.509-.36-6.118-4.957-6.388-6.67-8.727-1.712-2.34-3.425-2.07-4.507-1.35-.63.45-.54 2.25.902 3.779 1.442 1.62 1.802 2.52 2.433 4.769.541 1.89 2.164 4.768 6.04 5.038z" fill="#FDD8CF"/><path d="M15.954 71.8c-.541-2.16-1.262-3.6-2.254-4.95-1.081-1.349-2.073-2.698-1.081-3.508.63-.54 1.622-.36 2.794.09-1.262-1.44-3.065-1.98-4.327-.72-.9.9-.18 2.07.902 3.509 1.082 1.35 1.983 2.43 2.524 4.859.54 1.53 2.073 4.228 4.326 4.768-1.532-1.17-2.434-2.789-2.884-4.049z" fill="#F9C7BD"/><path d="M22.353 72.52c-.27-6.029-4.957-6.389-6.67-8.728-1.712-2.34-3.785-2.16-4.597-1.17-.991 1.26.27 2.61 1.352 3.959 1.082 1.35 1.533 2.16 2.164 4.409 0 0 1.982 5.758 6.94 4.858" stroke="#C6957F" stroke-miterlimit="10" stroke-linecap="round" stroke-linejoin="round"/><path d="M8.112 75.219c3.245 3.509 6.49 6.748 11.627 4.318 4.417-1.98 4.507-6.028.18-8.907-7.48-4.949-13.79 2.43-11.807 4.589z" fill="#FDD8CF"/><path opacity=".3" d="M13.34 71.62c-1.983 1.709-2.704 3.688-.09 5.578 2.704 1.89 5.318.09 6.49-2.25 1.081-2.159-1.893-7.017-3.876-5.308l-2.524 1.98z" fill="#F9C7BD"/><path d="M13.97 68.56c-.72-.36-2.703-1.44-2.703-1.44s-.27-.809-1.533-2.519c-1.352-1.619-4.597-1.799-4.597-.81-.09 2.16.451 2.79 1.443 4.23.72 1.08.18.72 3.695 2.609.992.54 3.605 1.26 4.417.54 1.081-.99.36-2.07-.721-2.61z" fill="#FDD8CF"/><path d="M9.644 64.692c1.352 1.619 1.532 2.519 1.532 2.519s1.983.99 2.704 1.44c1.082.63 2.344 1.529 1.172 2.519l-.09.09c.36-.81-1.082-1.44-1.803-2.07-.9-.72-2.974-1.62-2.974-1.62s0-.99-1.352-2.609c-.811-.99-2.434-1.44-3.605-1.35.72-.629 3.335-.36 4.416 1.08z" fill="#F9C7BD"/><path d="M13.88 68.56c-.72-.36-2.703-1.44-2.703-1.44s-.27-.809-1.533-2.519c-1.352-1.619-4.596-1.799-4.596-.81-.09 2.16.45 2.79 1.442 4.23.72 1.08.18.72 3.695 2.609.541.27 1.442.63 2.254.72" stroke="#C6957F" stroke-miterlimit="10" stroke-linecap="round" stroke-linejoin="round"/><path d="M12.168 73.239c-1.622.18-4.957-1.08-6.4-1.98-1.442-.9-2.433-1.349-3.875-3.958-.631-1.17 1.352-2.7 3.515-1.71 2.163.99 3.425 2.61 3.425 2.61s2.344.72 4.056 1.889c1.533 1.35.812 2.97-.72 3.149z" fill="#FDD8CF"/><path d="M12.8 70.18c.99.72 1.17 1.71.72 2.34-.09-.54-.45-1.17-1.081-1.62-1.623-1.26-3.966-1.89-3.966-1.89s-1.262-1.62-3.425-2.609c-1.352-.63-2.614-.27-3.245.45.18-.99 1.802-1.89 3.605-1.08 2.163.99 3.425 2.61 3.425 2.61s2.254.54 3.966 1.799z" fill="#F9C7BD"/><path d="M12.078 73.329c-1.622.18-4.957-1.08-6.4-1.98-1.351-.9-2.433-1.35-3.875-3.958-.631-1.17 1.352-2.7 3.515-1.71 2.073 1.08 3.425 2.7 3.425 2.7s2.344.72 4.056 1.889" stroke="#C6957F" stroke-miterlimit="10" stroke-linecap="round" stroke-linejoin="round"/><path d="M12.528 75.668c-1.443.54-4.958 0-6.58-.63-1.623-.63-2.704-.9-5.048-3.059-.991-.99.18-2.969 2.524-2.429 2.343.54 4.146 1.89 4.146 1.89s2.434.18 4.417 1.08c1.893.81 1.893 2.609.54 3.148z" fill="#FDD8CF"/><path d="M11.988 72.43c1.172.54 1.622 1.439 1.532 2.159-.27-.54-.811-1.08-1.532-1.44-1.983-.9-4.417-1.08-4.417-1.08s-1.802-1.35-4.146-1.89c-1.532-.359-2.524.36-2.794 1.17-.27-.99.991-2.339 2.884-1.889 2.344.54 4.146 1.89 4.146 1.89s2.344.18 4.327 1.08z" fill="#F9C7BD"/><path d="M12.438 75.758c-1.442.54-4.958 0-6.58-.63-1.623-.63-2.704-.9-5.048-3.059-.991-.99.18-2.969 2.524-2.429s4.146 1.89 4.146 1.89 2.434.18 4.417 1.08m3.606-3.96s-4.417 4.23-4.146 7.198" stroke="#C6957F" stroke-miterlimit="10" stroke-linecap="round" stroke-linejoin="round"/><path d="M14.421 78.188c-1.351.9-4.506.54-6.129.27-1.983-.36-5.227-1.98-6.039-2.97-.991-1.26.09-2.789 2.254-2.249 2.163.54 3.785 1.53 3.785 1.53s1.713 0 3.876.27c2.254.27 3.515 2.249 2.254 3.149z" fill="#FDD8CF"/><path d="M4.597 73.24c2.163.539 3.785 1.529 3.785 1.529s1.713-.09 3.876.27c1.893.27 3.065 1.71 2.524 2.699-1.352-1.53-3.876-2.7-7.03-2.16 0 0-2.164-2.429-5.318-1.979.36-.36 1.171-.54 2.163-.36z" fill="#F9C7BD"/><path d="M12.258 75.129c-2.163-.27-3.875-.27-3.875-.27s-1.713-.99-3.876-1.53c-2.164-.45-3.335.99-2.254 2.25.812.989 3.966 2.609 5.95 2.879 1.622.27 3.244-.09 5.768 1.35 0 0 3.155 1.439 7.21-1.17" stroke="#C6957F" stroke-miterlimit="10" stroke-linecap="round" stroke-linejoin="round"/><path d="M74.902 61.992s13.88 3.51 19.74 6.029c12.889-3.15 16.584 1.889 19.559 2.249 2.974.45-8.473 11.067-17.667 11.787-5.588.45-4.416 1.889-17.125-2.97-12.62-4.858-4.597-16.555-4.597-16.555" fill="#FDD8CF"/><path d="M74.902 61.992s13.88 3.51 19.74 6.029c12.889-3.15 16.584 1.889 19.559 2.249 2.974.45-8.473 11.067-17.667 11.787-5.588.45-4.416 1.889-17.125-2.97-12.62-4.858-4.597-16.555-4.597-16.555" stroke="#C6957F" stroke-miterlimit="10" stroke-linecap="round" stroke-linejoin="round"/><path d="M109.873 71.98c-2.613.45-1.712-1.89-1.712-2.88-.18-5.218 3.695-5.758 4.957-7.827 1.262-2.07 2.704-1.98 3.786-1.44.631.36.631 1.89-.541 3.239-1.081 1.44-1.352 2.25-1.712 4.229-.451 1.62-1.623 4.139-4.778 4.678z" fill="#FDD8CF"/><path d="M113.48 68.02c.36-1.889.811-3.148 1.622-4.408.811-1.26 1.622-2.43.631-3.06-.541-.36-1.442-.18-2.344.27.992-1.349 2.434-1.889 3.606-.9.811.72.27 1.8-.541 2.97-.811 1.26-1.442 2.25-1.713 4.319-.36 1.35-1.442 3.779-3.335 4.319 1.172-.9 1.803-2.43 2.074-3.51z" fill="#F9C7BD"/><path d="M108.071 69.19c-.18-5.128 3.695-5.758 4.957-7.828 1.262-2.069 3.065-2.159 3.786-1.35.901.99 0 2.25-.811 3.42-.812 1.26-1.172 1.98-1.533 3.869 0 0-1.262 5.038-5.588 4.678" stroke="#C6957F" stroke-miterlimit="10" stroke-linecap="round" stroke-linejoin="round"/><path d="M120.42 70.36c-2.524 3.239-4.958 6.208-9.554 4.589-3.876-1.35-4.327-4.769-.812-7.558 5.949-4.769 11.898.99 10.366 2.969z" fill="#FDD8CF"/><path opacity=".3" d="M115.643 67.75c1.802 1.26 2.614 2.97.45 4.77-2.073 1.799-4.506.54-5.678-1.44-1.082-1.71 1.082-6.118 2.884-4.769l2.344 1.44z" fill="#F9C7BD"/><path d="M114.921 65.141c.631-.36 2.163-1.35 2.163-1.35s.09-.719 1.172-2.249c.991-1.53 3.786-1.889 3.876-.99.18 1.8-.181 2.43-.902 3.69-.54.99-.09.63-2.884 2.519-.811.54-2.974 1.35-3.695.81-1.172-.9-.631-1.89.27-2.43z" fill="#FDD8CF"/><path d="M118.257 61.542c-.992 1.53-1.172 2.25-1.172 2.25s-1.623.99-2.163 1.35c-.902.63-1.893 1.439-.812 2.249 0 0 .091 0 .091.09-.361-.72.811-1.35 1.442-1.89.721-.72 2.433-1.62 2.433-1.62s-.09-.809.902-2.339c.631-.9 1.983-1.35 2.974-1.35-.631-.45-2.794 0-3.695 1.26z" fill="#F9C7BD"/><path d="M114.922 65.141c.631-.36 2.163-1.35 2.163-1.35s.09-.719 1.172-2.249c.991-1.53 3.785-1.889 3.875-.99.181 1.8-.18 2.43-.901 3.69-.541.99-.09.63-2.884 2.519-.451.27-1.172.63-1.893.81" stroke="#C6957F" stroke-miterlimit="10" stroke-linecap="round" stroke-linejoin="round"/><path d="M116.814 69.01c1.353.09 4.147-1.26 5.318-2.16 1.082-.899 1.983-1.349 3.065-3.598.451-.99-1.352-2.25-3.065-1.17-1.712.99-2.704 2.52-2.704 2.52s-1.983.81-3.244 1.889c-1.443 1.08-.722 2.43.63 2.52z" fill="#FDD8CF"/><path d="M116.094 66.401c-.812.72-.812 1.53-.451 1.98 0-.45.27-.99.811-1.44 1.262-1.17 3.245-1.89 3.245-1.89s.991-1.44 2.704-2.519c1.082-.63 2.253-.36 2.794.09-.18-.81-1.712-1.53-3.155-.63-1.802.99-2.704 2.52-2.704 2.52s-1.983.72-3.244 1.889z" fill="#F9C7BD"/><path d="M116.905 69.1c1.352 0 4.146-1.26 5.318-2.16 1.081-.899 1.983-1.349 3.064-3.598.451-.99-1.352-2.25-3.064-1.17-1.713.99-2.704 2.52-2.704 2.52s-1.983.81-3.245 1.889" stroke="#C6957F" stroke-miterlimit="10" stroke-linecap="round" stroke-linejoin="round"/><path d="M116.724 71.08c1.262.36 4.237-.36 5.589-.99 1.352-.63 2.253-.9 4.056-2.97.811-.899-.361-2.518-2.344-1.889-1.983.63-3.335 1.89-3.335 1.89s-2.073.36-3.605 1.17c-1.803.9-1.623 2.429-.361 2.789z" fill="#FDD8CF"/><path d="M116.905 68.29c-.992.54-1.262 1.35-1.082 1.89.18-.45.631-.99 1.262-1.26 1.622-.9 3.605-1.26 3.605-1.26s1.443-1.259 3.425-1.889c1.262-.36 2.164.09 2.524.72.09-.9-.991-1.89-2.614-1.35-1.983.63-3.335 1.89-3.335 1.89s-2.163.36-3.785 1.26z" fill="#F9C7BD"/><path d="M116.724 71.17c1.262.36 4.237-.36 5.589-.99 1.352-.63 2.253-.9 4.056-2.97.811-.899-.361-2.518-2.344-1.889-1.983.63-3.335 1.89-3.335 1.89s-2.073.36-3.605 1.17m-2.434-1.261s3.065 1.53 2.975 4.05" stroke="#C6957F" stroke-miterlimit="10" stroke-linecap="round" stroke-linejoin="round"/><path d="M115.282 73.33c1.172.719 3.876.179 5.228-.18 1.622-.45 4.236-2.07 4.867-2.88.811-1.17-.27-2.34-2.073-1.71a15.627 15.627 0 00-3.155 1.53s-1.442.09-3.244.45c-1.893.36-2.795 2.07-1.623 2.79z" fill="#FDD8CF"/><path d="M123.214 68.47c-1.803.63-3.155 1.53-3.155 1.53s-1.442.09-3.244.45c-1.533.36-2.434 1.71-1.983 2.52.991-1.44 3.064-2.52 5.858-2.34 0 0 1.713-2.25 4.417-2.07-.361-.27-1.082-.36-1.893-.09z" fill="#F9C7BD"/><path d="M116.905 70.54c1.802-.36 3.245-.45 3.245-.45s1.352-.99 3.154-1.53c1.803-.63 2.885.54 2.073 1.71-.54.9-3.154 2.43-4.867 2.88-1.352.359-2.794.18-4.777 1.619 0 0-2.524 1.44-6.219-.45" stroke="#C6957F" stroke-miterlimit="10" stroke-linecap="round" stroke-linejoin="round"/><path d="M81.39 66.58c-2.523-4.318-5.678-7.647-5.678-7.647s-13.97-1.35-18.297 1.44c-5.949 3.869-15.503 18.894-15.503 34.37 0 15.565 6.58 18.445 24.066 20.784 17.486 2.339 24.967-9.807 23.796-23.303-.18-2.07-1.984-11.607-6.04-17.905" fill="#FDD8CF"/><path d="M81.392 66.581c-1.623-2.7-3.606-5.219-5.769-7.558h.09c-3.155-.27-6.31-.27-9.464-.18-1.623.09-3.155.18-4.687.45-1.532.27-3.065.63-4.326 1.53-2.524 1.89-4.507 4.408-6.22 7.018a56.51 56.51 0 00-4.507 8.277c-2.523 5.759-4.056 11.967-4.146 18.265 0 3.15.18 6.298 1.172 9.267.901 2.97 2.884 5.489 5.588 7.018 2.704 1.53 5.769 2.43 8.834 3.06 3.064.629 6.219 1.169 9.374 1.529 3.154.27 6.309.18 9.284-.72a16.846 16.846 0 007.841-4.768c2.163-2.25 3.606-5.129 4.327-8.188.81-3.06.991-6.208.81-9.357-.36-3.15-1.08-6.209-2.072-9.268-.902-3.059-2.073-6.028-3.786-8.727 1.713 2.699 2.975 5.668 3.966 8.637.992 3.06 1.803 6.119 2.253 9.268.27 3.149.09 6.388-.63 9.537-.812 3.059-2.254 6.118-4.417 8.458-2.163 2.429-5.048 4.138-8.112 5.038-3.155.9-6.4 1.08-9.555.72-3.154-.36-6.309-.81-9.464-1.44-3.154-.63-6.31-1.529-9.103-3.149-1.352-.81-2.704-1.889-3.696-3.149-.991-1.26-1.803-2.789-2.253-4.319-.992-3.149-1.172-6.388-1.172-9.537.09-6.388 1.713-12.776 4.236-18.535 1.262-2.879 2.795-5.758 4.597-8.367 1.803-2.61 3.876-5.129 6.49-7.108 1.352-.99 2.974-1.35 4.597-1.62 1.622-.27 3.154-.36 4.777-.45 3.155.09 6.31.27 9.464.54h.09c2.163 2.43 4.056 5.039 5.589 7.828z" fill="#C6957F"/><path opacity=".3" d="M48.763 78.098c3.695-8.908 26.41-3.87 30.195-15.296a58.806 58.806 0 00-3.155-3.959s-14.06-1.26-18.387 1.53c-5.95 3.869-15.503 18.894-15.503 34.37 0 15.565 6.58 18.445 24.066 20.784 12.168 1.619 19.469-3.779 22.443-11.697-17.035-4.858-46.239-9.357-39.66-25.732z" fill="#F9C7BD"/><path d="M62.554 110.218l-.541 11.787-.36 8.188c-18.388 3.779-27.041-8.278-33.08-19.075l-1.082-1.889c-6.13-11.247.992-18.175 9.374-15.476 8.383 2.7 12.349 7.198 12.349 7.198l13.34 9.267zm9.644-1.349l.54 11.787.361 8.187c18.388 3.779 27.041-8.277 33.08-19.074l1.081-1.89c6.13-11.247-.991-18.175-9.374-15.475-8.382 2.699-12.348 7.198-12.348 7.198l-13.34 9.267z" fill="#F9C7BD" stroke="#C6957F" stroke-miterlimit="10" stroke-linecap="round" stroke-linejoin="round"/><path d="M54.712 130.913s15.773 3.509 25.328-1.35c-1.893-8.728 11.357-28.522 11.357-28.522l-1.172-6.478s-30.375 3.24-48.402 1.17c-.902 4.408.45 6.838.45 6.838s13.7 17.455 12.439 28.342z" fill="#fff" stroke="#BCBEC0" stroke-miterlimit="10" stroke-linecap="round" stroke-linejoin="round"/><path opacity=".5" d="M91.397 101.041l-1.172-6.478s-.811.09-2.253.18c.81 8.817-6.13 16.465-11.267 23.573-2.164 3.599-1.442 9.268-4.327 10.707-4.056 1.98-8.472 2.429-13.07 2.699 5.409.72 14.422 1.08 20.642-2.069-1.803-8.818 11.447-28.612 11.447-28.612z" fill="#EFEFEF"/><path d="M56.875 80.617c1.593 0 2.884-.725 2.884-1.62 0-.894-1.291-1.62-2.884-1.62s-2.884.726-2.884 1.62c0 .895 1.291 1.62 2.884 1.62zm17.847 0c1.593 0 2.884-.725 2.884-1.62 0-.894-1.291-1.62-2.884-1.62s-2.885.726-2.885 1.62c0 .895 1.292 1.62 2.885 1.62z" fill="#F9C7BD"/><path d="M62.553 110.218l-2.163 14.666c-18.478-2.519-26.68-9.537-31.818-13.766l-1.081-1.889c-6.13-11.247.991-18.175 9.374-15.476 8.382 2.7 12.348 7.198 12.348 7.198l13.34 9.267z" fill="#FDD8CF"/><path d="M62.553 110.218l-1.892 14.756c0 .09-.09.18-.27.18-2.885-.45-5.86-.9-8.654-1.619-2.884-.72-5.678-1.53-8.382-2.7-2.704-1.079-5.408-2.519-7.842-4.048a59.864 59.864 0 01-7.03-5.309l-.09-.09c-.812-1.529-1.713-3.059-2.344-4.679l-.45-1.259-.271-1.26-.18-.63-.09-.629c0-.45-.09-.9-.09-1.35 0-1.8.45-3.599 1.441-5.129.992-1.53 2.614-2.609 4.327-3.149s3.605-.45 5.318-.09c1.712.36 3.335 1.08 4.957 1.8 3.155 1.44 6.13 3.329 8.563 5.938l12.98 9.267zm0 0l-13.34-8.997c-2.343-2.43-5.407-4.229-8.472-5.578-1.532-.63-3.155-1.35-4.867-1.71-1.623-.36-3.335-.36-4.958.09a6.816 6.816 0 00-3.876 2.79c-.901 1.349-1.352 3.058-1.261 4.678 0 .45.09.81.09 1.26l.09.629.18.63.27 1.26.451 1.17c.631 1.529 1.442 3.059 2.253 4.588l-.09-.09c2.254 1.89 4.507 3.689 6.94 5.309a42.399 42.399 0 007.752 4.049c2.704 1.079 5.499 2.069 8.293 2.789 2.794.81 5.678 1.259 8.563 1.709l-.27.18 2.252-14.756z" fill="#C6957F"/><path opacity=".3" d="M61.652 114.807l-1.442 9.627c-18.297-2.429-26.5-9.267-31.547-13.406-.18-.27-.36-.63-.54-.899 9.824 7.287 22.533 10.706 33.53 4.678z" fill="#F9C7BD"/><path d="M52.008 106.08s3.154-2.61 6.94-4.229c3.876-1.62 4.146-5.938 7.391-3.15 3.245 2.88-.991 6.389-.991 6.389s3.425.81 2.253 3.149c-1.172 2.249-1.622 1.89-1.622 1.89s1.802-.54 1.802 1.709c0 2.159-2.253 2.609-2.253 2.609s2.524.09 2.343 2.25c-.18 2.159-.63 2.609-2.974 3.959.36.539.991 3.509-1.082 4.858-2.073 1.44-8.292 1.26-12.348-3.959-1.803-2.249-2.163-5.398-2.163-5.398" fill="#FDD8CF"/><path d="M52.008 106.08a25.823 25.823 0 015.137-3.509c.902-.54 1.893-.9 2.704-1.44.812-.54 1.533-1.26 2.254-2.07.36-.36.72-.81 1.172-1.079.45-.36 1.081-.63 1.712-.45.541.18 1.082.45 1.442.81.451.36.812.72 1.172 1.26.631.989.54 2.339.09 3.329-.45.989-1.172 1.889-1.983 2.609l-.18-.72c.63.18 1.172.45 1.713.81.27.18.54.45.72.72.18.27.361.719.271 1.079 0 .36-.09.72-.27 1.08-.18.27-.27.54-.451.81l-.54.81-.361.359c-.09.09-.18.09-.36.18-.181 0-.271.09-.632-.09-.18-.09-.27-.359-.09-.539.09-.09.18-.18.27-.18a2.2 2.2 0 011.082 0c.36.09.721.36.901.629.451.63.451 1.26.36 1.89-.09.63-.36 1.26-.9 1.709-.451.45-1.082.72-1.713.9l-.09-.9c.45 0 .811.09 1.262.27.36.18.811.45 1.081.81.27.36.451.81.451 1.26 0 .45-.09.81-.09 1.169-.09.36-.18.81-.36 1.17-.18.36-.451.72-.812.99-.63.54-1.262.9-1.983 1.259l.09-.539c.18.359.27.629.36.899.091.27.091.54.091.81 0 .54 0 1.17-.18 1.71-.27 1.079-1.172 2.069-2.344 2.429-1.081.36-2.163.45-3.245.36-1.081-.09-2.163-.36-3.154-.72a10.52 10.52 0 01-2.794-1.53c-.812-.629-1.623-1.349-2.254-2.249-1.352-1.709-2.073-3.779-2.253-5.848.36 2.069 1.171 4.139 2.523 5.668 1.352 1.62 3.065 2.789 5.048 3.509.992.36 1.983.54 2.974.63.992.09 2.074 0 2.975-.36a3.035 3.035 0 001.803-1.979c.09-.45.18-.99.18-1.44 0-.27-.09-.45-.09-.72-.09-.18-.18-.45-.18-.63-.09-.18-.09-.449.09-.539.63-.36 1.261-.72 1.802-1.17.541-.45.721-.99.812-1.71.09-.359.09-.719.09-.989s-.09-.54-.27-.81c-.361-.45-.992-.72-1.623-.72-.27 0-.45-.18-.45-.45 0-.18.18-.36.36-.36.45-.09.901-.36 1.262-.629.36-.36.54-.72.63-1.17.09-.45 0-.99-.18-1.35-.18-.27-.63-.36-.991-.27l.18-.719c-.18-.09-.09-.09-.18-.09h.09l.27-.27c.18-.18.36-.45.451-.63.18-.27.27-.54.45-.72.09-.27.181-.45.181-.63 0-.45-.27-.81-.721-1.169-.45-.27-.992-.54-1.442-.72-.18-.09-.36-.27-.27-.54 0-.09.09-.18.09-.18a8.635 8.635 0 001.802-2.249c.36-.9.45-1.8 0-2.61-.45-.72-1.352-1.53-2.163-1.8-.811-.18-1.623.63-2.344 1.35-.72.72-1.442 1.53-2.343 2.07-.901.54-1.893.81-2.794 1.349-1.893.45-3.606 1.53-5.318 2.79z" fill="#C6957F"/><path opacity=".3" d="M60.84 122.365c2.074-2.789 4.958-2.519 6.851-4.769-.27 1.44-.901 1.89-2.884 3.059.36.45 1.081 3.509-.992 4.949-2.073 1.35-8.202 1.17-12.258-3.869-.991-1.26-1.442-2.969-1.713-4.049 2.434 3.689 8.203 10.257 10.997 4.679z" fill="#F9C7BD"/><path d="M72.198 108.869l2.163 14.666c18.478-2.52 26.68-9.538 31.818-13.766l1.081-1.89c6.13-11.247-.991-18.175-9.374-15.475-8.382 2.699-12.348 7.198-12.348 7.198l-13.34 9.267z" fill="#FDD8CF"/><path d="M72.198 108.869l2.344 14.666-.27-.18c2.883-.45 5.768-.99 8.562-1.71 2.794-.72 5.588-1.709 8.292-2.789 2.704-1.08 5.318-2.519 7.752-4.049 2.434-1.619 4.687-3.419 6.94-5.308l-.09.09c.811-1.53 1.623-2.97 2.254-4.589l.45-1.17.271-1.259.18-.63.09-.63c0-.45.09-.81.09-1.26.09-1.62-.36-3.329-1.262-4.678-.901-1.35-2.343-2.34-3.876-2.79-1.622-.45-3.335-.45-4.957-.09-1.622.36-3.245.99-4.867 1.71-3.155 1.35-6.13 3.24-8.473 5.578l-13.43 9.088zm0 0l13.07-9.447c2.433-2.52 5.408-4.41 8.562-5.939 1.623-.72 3.155-1.44 4.958-1.8 1.712-.36 3.605-.45 5.318.09 1.712.54 3.335 1.62 4.326 3.15.992 1.53 1.533 3.329 1.442 5.128 0 .45-.09.9-.09 1.35l-.09.63-.18.63-.271 1.259-.45 1.26c-.631 1.619-1.533 3.149-2.344 4.679 0 .09-.09.09-.09.09-2.253 1.889-4.597 3.688-7.03 5.308a46.259 46.259 0 01-7.842 4.049c-2.704 1.17-5.588 1.979-8.383 2.699-2.884.72-5.768 1.17-8.653 1.62-.09 0-.27-.09-.27-.18l-1.983-14.576z" fill="#C6957F"/><path opacity=".3" d="M72.829 113.458l1.442 9.987c18.478-2.52 26.68-9.538 31.818-13.766.18-.36.36-.63.54-.99-9.824 7.558-22.623 10.977-33.8 4.769z" fill="#F9C7BD"/><path d="M82.653 104.73s-3.154-2.609-6.94-4.229c-3.876-1.62-4.146-5.938-7.391-3.149-3.245 2.879.991 6.388.991 6.388s-3.425.81-2.253 3.149c1.172 2.25 1.622 1.89 1.622 1.89s-.991 0-.991 2.159c0 2.16 1.442 2.16 1.442 2.16s-2.524.09-2.343 2.249c.18 2.159.63 2.609 2.974 3.959-.36.54-.992 3.509 1.082 4.858 2.073 1.44 8.292 1.26 12.348-3.958 1.803-2.25 2.163-5.399 2.163-5.399" fill="#FDD8CF"/><path d="M82.654 104.73c-1.623-1.26-3.425-2.339-5.228-3.239-.901-.45-1.893-.81-2.794-1.35-.902-.54-1.713-1.35-2.344-2.07-.721-.719-1.442-1.529-2.343-1.349-.812.27-1.713.99-2.164 1.8-.45.81-.36 1.799 0 2.609.36.9 1.082 1.62 1.803 2.249.18.18.18.45 0 .54-.09.09-.09.09-.18.09-.541.18-1.082.36-1.442.72-.451.27-.721.72-.721 1.17 0 .18.09.45.18.629.09.27.27.54.45.72.18.27.27.45.451.63l.27.27h.09l-.18.09.27.72s-.18.09-.18.18c-.09.09-.18.27-.18.45-.09.36-.09.809-.09 1.259 0 .45.09.81.27 1.08.18.27.451.45.722.45v.9c-.631 0-1.352.269-1.623.719-.18.18-.27.54-.27.81s0 .72.09.99c.09.72.36 1.259.811 1.709.541.45 1.172.81 1.803 1.17.18.09.27.36.18.54-.09.09-.18.36-.18.63-.09.27-.09.45-.09.719 0 .45 0 .99.18 1.44.27.9.901 1.62 1.803 1.98.901.359 1.983.449 2.974.359.992-.09 2.073-.27 2.975-.629 1.892-.72 3.695-1.98 5.047-3.509 1.352-1.53 2.163-3.599 2.524-5.669-.27 2.07-.901 4.139-2.253 5.849-.631.899-1.443 1.619-2.254 2.249-.901.63-1.803 1.17-2.794 1.529-.991.45-2.073.63-3.155.72-1.081.09-2.163.09-3.245-.36-1.081-.36-1.983-1.349-2.343-2.429-.18-.54-.18-1.17-.18-1.709 0-.27.09-.54.09-.81.09-.27.09-.54.36-.9l.09.54c-.63-.36-1.352-.72-1.983-1.26-.27-.27-.63-.63-.81-.989-.181-.36-.271-.81-.361-1.17-.09-.36-.09-.72-.09-1.17 0-.45.18-.9.45-1.259.27-.36.631-.63 1.082-.81.45-.18.811-.27 1.262-.27.27 0 .45.18.45.45s-.18.45-.45.45c-.721 0-1.262-.45-1.532-.9a3.43 3.43 0 01-.361-1.53c0-.45 0-.989.18-1.529.09-.27.18-.54.36-.72.181-.27.451-.45.902-.54.27 0 .45.18.45.36s-.09.27-.18.36c-.36.18-.45.09-.63.09-.09 0-.27-.09-.361-.18-.18-.09-.27-.27-.36-.36l-.541-.81c-.18-.27-.27-.54-.451-.81-.18-.269-.27-.629-.27-1.079 0-.36.09-.72.27-1.08.18-.27.45-.54.721-.72.54-.36 1.082-.63 1.713-.809l-.18.719c-.812-.719-1.533-1.529-1.984-2.609-.45-.99-.54-2.34.09-3.329.271-.45.722-.9 1.172-1.26.451-.36.902-.63 1.533-.81.63-.18 1.262.09 1.712.45.45.36.811.72 1.172 1.08.721.81 1.352 1.53 2.253 2.07.812.54 1.803.899 2.704 1.439 1.623 1.53 3.335 2.699 4.868 4.049z" fill="#C6957F"/><path opacity=".3" d="M73.64 121.015c-2.164-2.879-4.868-2.699-6.67-5.038.27 1.439 1.081 2.069 3.064 3.239-.36.54-1.172 3.599.811 4.948 2.073 1.44 8.293 1.08 12.349-4.138 1.081-1.35 1.622-2.97 1.893-4.049-2.614 3.869-8.653 10.797-11.448 5.038z" fill="#F9C7BD"/><path d="M95.543 37.16s3.155-7.558 9.194-5.04c6.039 2.43-.811 17.996-8.383 14.937" fill="#FDD8CF"/><path d="M95.543 37.16c.54-1.35 1.262-2.61 2.253-3.69.992-1.08 2.254-1.889 3.786-2.159.361 0 .721-.09 1.172-.09.36.09.721.09 1.081.18.361.09.721.18 1.082.36l.541.27c.18.09.36.27.45.36.631.54.992 1.26 1.262 1.98.271.719.271 1.529.271 2.248-.181 2.97-1.442 5.759-3.335 8.008-.992 1.08-2.163 2.07-3.515 2.61-.722.27-1.443.36-2.164.36-.72 0-1.442-.18-2.073-.54.721.18 1.352.27 2.073.27a7.168 7.168 0 001.983-.54c1.262-.63 2.254-1.53 3.155-2.61a17.82 17.82 0 002.073-3.599c.541-1.26.901-2.609.901-3.959s-.27-2.699-1.171-3.598l-.361-.27-.451-.18-.991-.36c-.361-.09-.631-.09-.992-.18h-.991c-1.352.18-2.614.9-3.605 1.8-.902.9-1.713 2.069-2.434 3.328z" fill="#C6957F"/><path d="M98.337 38.419s-.54 1.53.721 1.44c1.262-.09.721 1.53-.36 2.519-1.082.99 3.966 1.35 5.137-4.139 1.172-5.488-3.785-4.049-5.498.18z" fill="#F9C7BD"/><path d="M35.602 37.16s-3.154-7.558-9.193-5.04c-6.04 2.43.81 17.996 8.382 14.937" fill="#FDD8CF"/><path d="M35.603 37.16c-.72-1.26-1.532-2.43-2.524-3.33-.991-.9-2.253-1.62-3.605-1.8h-.991c-.361.09-.631.09-.992.18l-.991.36-.451.18-.36.27c-.992.81-1.263 2.25-1.172 3.6.09 1.35.36 2.699.9 3.958a17.877 17.877 0 002.074 3.6c.901 1.08 1.893 2.069 3.155 2.609.63.27 1.262.45 1.983.54a7.7 7.7 0 002.073-.27c-.631.27-1.352.45-2.073.54-.721 0-1.442-.09-2.163-.36-1.353-.54-2.524-1.53-3.516-2.61-1.893-2.25-3.154-5.038-3.335-8.008 0-.72.09-1.529.27-2.249.18-.72.632-1.44 1.262-1.98.18-.09.361-.27.451-.36l.541-.27c.36-.09.721-.179 1.082-.359.36-.09.72-.09 1.081-.18.36 0 .721 0 1.172.09 1.532.27 2.794 1.17 3.786 2.16a12.224 12.224 0 012.343 3.688z" fill="#C6957F"/><path d="M32.809 38.419s.54 1.53-.721 1.44c-1.262-.09-.721 1.53.36 2.519 1.082.99-3.965 1.35-5.137-4.139-1.172-5.488 3.785-4.049 5.498.18z" fill="#F9C7BD"/><path d="M61.832 1.98c-10.095.81-35.062 6.837-30.105 36.08-6.49 17.634 4.777 27.981 15.143 32.3 10.275 4.319 19.289 4.139 19.289 4.139s10.365.27 21.812-7.648c11.087-7.558 14.873-17.095 10.726-29.242 2.524-33.02-27.58-36.35-36.865-35.63z" fill="#FDD8CF"/><path d="M61.833 1.98c-4.507.36-8.924 1.439-13.16 3.148-4.146 1.71-8.112 4.14-11.087 7.558-1.532 1.71-2.794 3.51-3.785 5.579-.992 1.98-1.623 4.229-2.074 6.388-.9 4.409-.63 8.997.09 13.406v.09c-1.622 4.589-2.433 9.537-1.351 14.306a22.51 22.51 0 002.704 6.658c1.261 2.07 2.884 3.869 4.687 5.398 1.802 1.62 3.875 2.88 5.949 4.05 2.163 1.169 4.416 2.069 6.67 2.789 4.596 1.53 9.464 2.429 14.24 2.699 2.434.09 4.778-.27 7.212-.72 2.343-.54 4.687-1.17 6.94-2.07 4.507-1.799 8.743-4.318 12.439-7.467 3.695-3.15 6.67-7.108 7.931-11.787 1.262-4.679.722-9.717-.9-14.216v-.09c.36-4.858.18-9.897-1.263-14.576-1.442-4.678-4.056-9.087-7.751-12.326-3.696-3.33-8.203-5.579-12.98-6.928-4.597-1.53-9.554-2.16-14.511-1.89zm0 0c4.957-.36 9.914.36 14.692 1.709 4.777 1.35 9.283 3.599 12.979 6.928a26.115 26.115 0 014.867 5.578c1.352 2.07 2.344 4.41 3.155 6.748 1.532 4.769 1.803 9.808 1.442 14.756v-.09c1.622 4.589 2.344 9.717 1.082 14.576-1.262 4.859-4.327 8.997-8.022 12.236-3.696 3.24-8.022 5.759-12.62 7.648-2.253.9-4.686 1.71-7.03 2.16-2.433.54-4.867.9-7.39.72-4.958-.27-9.825-1.26-14.513-2.79-2.343-.81-4.596-1.71-6.85-2.879a31.601 31.601 0 01-6.039-4.229c-1.893-1.62-3.515-3.509-4.777-5.668-1.262-2.16-2.253-4.409-2.704-6.838-.992-4.859-.18-9.897 1.532-14.486v.09c-.72-4.499-.901-9.087 0-13.496.902-4.409 2.885-8.638 5.95-11.967 3.064-3.329 6.94-5.848 11.176-7.468 4.146-1.889 8.563-2.879 13.07-3.239z" fill="#C6957F"/><g opacity=".7"><path opacity=".7" d="M61.832 1.98c-10.095.81-35.062 6.837-30.105 36.08-6.49 17.634 4.777 27.981 15.143 32.3 10.275 4.319 19.289 4.139 19.289 4.139s10.365.27 21.812-7.648c11.087-7.558 14.873-17.095 10.726-29.242 2.524-33.02-27.58-36.35-36.865-35.63z" fill="#F28E94"/><path opacity=".7" d="M61.833 1.98c-4.507.36-8.924 1.439-13.16 3.148-4.146 1.71-8.112 4.14-11.087 7.558-1.532 1.71-2.794 3.51-3.785 5.579-.992 1.98-1.623 4.229-2.074 6.388-.9 4.409-.63 8.997.09 13.406v.09c-1.622 4.589-2.433 9.537-1.351 14.306a22.51 22.51 0 002.704 6.658c1.261 2.07 2.884 3.869 4.687 5.398 1.802 1.62 3.875 2.88 5.949 4.05 2.163 1.169 4.416 2.069 6.67 2.789 4.596 1.53 9.464 2.429 14.24 2.699 2.434.09 4.778-.27 7.212-.72 2.343-.54 4.687-1.17 6.94-2.07 4.507-1.799 8.743-4.318 12.439-7.467 3.695-3.15 6.67-7.108 7.931-11.787 1.262-4.679.722-9.717-.9-14.216v-.09c.36-4.858.18-9.897-1.263-14.576-1.442-4.678-4.056-9.087-7.751-12.326-3.696-3.33-8.203-5.579-12.98-6.928-4.597-1.53-9.554-2.16-14.511-1.89zm0 0c4.957-.36 9.914.36 14.692 1.709 4.777 1.35 9.283 3.599 12.979 6.928a26.115 26.115 0 014.867 5.578c1.352 2.07 2.344 4.41 3.155 6.748 1.532 4.769 1.803 9.808 1.442 14.756v-.09c1.622 4.589 2.344 9.717 1.082 14.576-1.262 4.859-4.327 8.997-8.022 12.236-3.696 3.24-8.022 5.759-12.62 7.648-2.253.9-4.686 1.71-7.03 2.16-2.433.54-4.867.9-7.39.72-4.958-.27-9.825-1.26-14.513-2.79-2.343-.81-4.596-1.71-6.85-2.879a31.601 31.601 0 01-6.039-4.229c-1.893-1.62-3.515-3.509-4.777-5.668-1.262-2.16-2.253-4.409-2.704-6.838-.992-4.859-.18-9.897 1.532-14.486v.09c-.72-4.499-.901-9.087 0-13.496.902-4.409 2.885-8.638 5.95-11.967 3.064-3.329 6.94-5.848 11.176-7.468 4.146-1.889 8.563-2.879 13.07-3.239z" fill="#C6957F"/></g><path opacity=".3" d="M33.26 52.185c-3.966-5.578 3.966-10.347 3.155-15.925-1.352-6.029-2.704-12.147-2.614-18.175-2.524 5.038-3.606 11.517-2.164 19.974-6.4 17.635 4.868 27.982 15.233 32.3 10.276 4.32 19.29 4.14 19.29 4.14s.9 0 2.523-.18C54.35 72.789 40.83 64.602 33.26 52.185z" fill="#F9C7BD"/><path d="M62.193 48.046c0 .63 0 1.17.09 1.71s.27.99.54 1.17c.271.18.902.09 1.443.09.54-.09 1.082-.27 1.713-.36-.451.45-.992.81-1.533.99-.54.18-1.262.45-2.073 0-.36-.27-.63-.54-.72-.9-.091-.18-.091-.36-.091-.54v-.45c.09-.63.27-1.17.631-1.71z" fill="#7C3D3D"/><path d="M61.111 58.033c.541-.63 1.172-1.08 1.983-1.35.721-.27 1.623-.449 2.434-.36.811.09 1.622.27 2.343.72.361.18.631.45.992.72.27.27.54.54.811.9l-1.082-.54c-.36-.18-.63-.36-.991-.45-.721-.27-1.352-.45-2.073-.45-1.532-.09-2.975.27-4.417.81z" fill="#EE8F93"/><path d="M61.562 55.064c.27.54.36 1.08.36 1.71 0 .54-.09 1.17-.36 1.71s-.721 1.079-1.262 1.349c-.54.36-1.171.36-1.712.27.54-.27.991-.54 1.261-.9.361-.36.632-.72.812-1.17.18-.45.36-.9.45-1.44l.451-1.529zm9.464-3.599c-.36.81-.72 1.62-.901 2.43-.27.81-.36 1.62-.36 2.429.09.81.45 1.44.99 1.98.271.27.632.54.992.81s.721.449 1.172.629c-.45-.09-.901-.09-1.352-.27-.45-.18-.901-.36-1.262-.63a3.29 3.29 0 01-1.442-2.43c-.09-.989.18-1.888.54-2.698.451-.99.992-1.71 1.623-2.25z" fill="#C6957F"/><path d="M41.913 40.668s5.047-3.509 9.193-2.789c4.146.72 3.245-.72.451-1.71-2.794-.989-6.58 1.08-9.644 4.5zm41.642-3.238s-5.588-2.61-9.554-1.17-3.335-.18-.721-1.62c2.523-1.44 6.58-.09 10.275 2.79z" fill="#A56438"/><path d="M71.387 42.558c.18 3.419 2.974 3.689 6.85 3.689 5.408 0 6.04-2.79 5.679-5.399-.36-2.609-4.778-3.779-7.391-3.329-2.524.36-5.318 2.43-5.138 5.039z" fill="#F9C7BD"/><path d="M71.927 43.098c.36 2.249 2.163 3.509 5.498 3.149 3.786-.36 5.228-2.43 4.958-4.679-.27-2.25-4.147-3.239-6.4-2.88-2.163.45-4.417 2.16-4.056 4.41z" fill="#fff"/><path d="M71.927 43.098c-.09-1.17.72-4.14 5.498-4.14 4.417 0 4.957 3.51 4.957 3.51s.541-1.17-.63-2.52c-1.172-1.35-3.966-2.159-6.58-1.44-2.164.63-3.696 2.61-3.245 4.59z" fill="#190902"/><mask id="a" maskUnits="userSpaceOnUse" x="73" y="39" width="9" height="7"><path d="M73.039 43.258c.278 1.842 1.667 2.874 4.237 2.579 2.918-.295 4.03-1.99 3.821-3.832-.208-1.842-3.195-2.652-4.932-2.357-1.667.368-3.404 1.768-3.126 3.61z" fill="#fff"/></mask><g mask="url(#a)"><path d="M74.722 48.046l-4.146-7.108 9.193-3.779 4.147 7.018-9.194 3.87z" fill="url(#paint0_linear)"/></g><path d="M79.77 42.468c0-1.08-1.262-2.16-2.975-1.8-1.712.36-2.253 1.17-2.253 2.16 0 .99 1.171 1.8 2.523 1.71 1.353 0 2.795-.72 2.705-2.07z" fill="#2E0606"/><path opacity=".8" d="M76.525 41.748c0-.54-.631-.99-1.442-.9-.812.18-1.082.54-1.082 1.08 0 .45.54.9 1.262.81.63 0 1.352-.27 1.262-.99z" fill="#F2F2F2"/><path d="M79.409 44.447c0-.36-.45-.63-.992-.54-.63.09-.72.36-.81.72 0 .27.36.54.9.54.451-.09.902-.36.902-.72z" fill="#F2F2F2"/><path opacity=".3" d="M81.752 46.337c-3.425-1.53-6.94.09-7.661.63-.811.63 1.352 1.08 3.786.99" fill="#F28E94"/><path d="M75.353 46.337c.63-.27 4.326-.63 6.039-.18 0 0-3.245-1.44-6.04.18z" fill="#FFEEEB"/><path d="M55.343 44.267c0 2.79-1.893 4.59-6.04 4.949-4.596.36-6.85-1.8-6.94-4.589-.18-2.789 4.327-4.768 7.121-4.768 2.794.09 5.859 1.71 5.859 4.408z" fill="#F9C7BD"/><path d="M54.712 44.987c0 2.25-1.532 3.78-4.867 4.049-3.786.36-5.499-1.44-5.679-3.689-.09-2.34 3.606-3.959 5.859-3.959s4.687 1.35 4.687 3.6z" fill="#fff"/><path d="M54.712 44.987c-.09-1.17-1.442-3.869-6.13-3.059-4.416.72-4.326 4.229-4.326 4.229s-.72-1.08.18-2.52c.902-1.529 3.606-2.699 6.22-2.429 2.433.09 4.236 1.8 4.056 3.78z" fill="#190902"/><mask id="b" maskUnits="userSpaceOnUse" x="45" y="42" width="9" height="7"><path d="M53.18 45.234c0 1.841-1.179 3.093-3.744 3.314-2.912.295-4.229-1.178-4.367-3.02-.07-1.914 2.773-3.24 4.506-3.24s3.604 1.105 3.604 2.946z" fill="#fff"/></mask><g mask="url(#b)"><path d="M48.222 51.285l-6.13-6.568 8.654-5.308 6.129 6.568-8.653 5.308z" fill="url(#paint1_linear)"/></g><path d="M46.78 45.527c-.18-1.08.811-2.25 2.614-2.25s2.434.81 2.614 1.71c.18.99-.811 1.89-2.163 2.07-1.443.27-2.885-.18-3.065-1.53z" fill="#2E0606"/><path opacity=".8" d="M50.025 44.447c-.09-.54.45-1.08 1.262-1.08.811 0 1.172.36 1.262.81.09.45-.451.9-1.082.99-.63.18-1.352-.09-1.442-.72z" fill="#F2F2F2"/><path d="M47.501 46.607c-.09-.45.27-.99.901-.9.631 0 .812.36.902.72.09.45-.27.81-.721.9-.451 0-.992-.18-1.082-.72z" fill="#F2F2F2"/><path opacity=".3" d="M50.836 51.016c1.082-.27 2.794-1.26 2.524-1.98s-2.614-1.8-7.03.63" fill="#F28E94"/><path d="M46.87 49.306c1.172-.18 3.155-1.17 5.949-.72 0 0-.721-.63-2.163-.54-1.172.18-3.065.72-3.786 1.26z" fill="#FFEEEB"/><path d="M57.686 67.03l3.786 1.44c.63.18 1.262.45 1.893.63.27.09.63.18.901.18h.901c1.262-.09 2.524-.45 3.786-.9 1.172-.45 2.434-1.17 3.786-1.35-.631.27-1.172.54-1.803.9-.54.36-1.172.72-1.713.99-1.171.63-2.613 1.08-3.965 1.17h-1.082l-1.082-.27c-.63-.27-1.261-.45-1.892-.81-1.262-.45-2.434-1.17-3.516-1.98z" fill="#C6957F"/><path d="M52.098 50.745l-1.352 2.7m3.064-3.689l-1.532 3.509m3.696-4.139l-1.442 3.24m2.974-2.07l-.631.9m20.461-2.25l1.802 2.43m-3.605-3.06l2.073 3.24m-4.326-3.51l1.892 2.97m-3.245-1.62l.812.81" stroke="#F9C7BD" stroke-miterlimit="10" stroke-linecap="round" stroke-linejoin="round"/><path d="M60.12.54c-2.794.63-8.653 3.059-7.842 8.188.812 5.038 10.816 6.568 10.366 11.066-.45 4.5 8.472.81 12.889-10.167C79.859-1.26 64.446-.36 60.12.54z" fill="#A56438"/><path d="M60.12.54c-1.442.36-2.794.9-4.056 1.62-1.262.72-2.434 1.799-3.065 3.059-.72 1.26-.72 2.879-.27 4.228.54 1.35 1.712 2.34 2.884 3.15s2.524 1.529 3.786 2.339 2.614 1.62 3.425 3.059c.18.36.27.81.36 1.17v1.08c.09.63.541.899 1.172.809.631 0 1.352-.27 1.893-.63.631-.36 1.262-.72 1.803-1.17 2.253-1.709 4.146-4.048 5.588-6.568a31.89 31.89 0 001.893-3.958c.27-.63.45-1.35.54-2.07.091-.72.091-1.44-.09-2.07-.36-1.349-1.441-2.519-2.703-3.148C72.018.72 70.576.36 69.043.18 65.98-.09 63.004 0 60.12.54zm0 0c2.884-.63 5.949-.72 8.833-.36 1.442.18 2.975.45 4.327 1.17 1.352.63 2.614 1.8 3.064 3.239.18.72.27 1.53.18 2.25-.09.719-.27 1.529-.45 2.248-.45 1.44-1.082 2.79-1.803 4.14-1.442 2.608-3.335 5.038-5.769 6.927-.63.45-1.261.9-1.982 1.26-.721.36-1.443.63-2.254.63-.45 0-.901-.09-1.262-.36-.45-.27-.63-.81-.63-1.26v-1.17c0-.36-.09-.63-.271-.9-.631-1.169-1.803-2.069-3.065-2.878-1.261-.81-2.523-1.62-3.695-2.52-1.172-.9-2.344-1.98-2.885-3.419-.45-1.44-.36-3.059.451-4.408.721-1.35 1.893-2.34 3.155-3.06C57.236 1.44 58.678.9 60.12.54z" fill="#7F3F34"/><path opacity=".4" d="M75.713 3.689c.36 5.129-2.794 10.257-6.94 13.136 1.442-2.16 2.884-4.318 2.884-6.838-.72 3.96-5.408 4.319-8.292 6.118.36-1.08.72-2.519 0-3.598-1.442-1.08-2.163-1.8-3.966-2.16-2.884-.99-4.236-3.869-5.138-6.928-1.442 1.26-2.343 3.06-1.983 5.219.811 5.128 10.816 6.658 10.366 11.156-.45 4.5 8.472.81 12.889-10.167.992-2.609.901-4.498.18-5.938z" fill="#BCBEC0"/></g><defs><linearGradient id="paint0_linear" x1="78.611" y1="44.97" x2="76.432" y2="39.676" gradientUnits="userSpaceOnUse"><stop stop-color="#C37819"/><stop offset="1" stop-color="#61280F"/></linearGradient><linearGradient id="paint1_linear" x1="51.658" y1="47.687" x2="48.592" y2="42.644" gradientUnits="userSpaceOnUse"><stop stop-color="#C37819"/><stop offset="1" stop-color="#61280F"/></linearGradient><clipPath id="clip0"><path fill="#fff" d="M0 0h127v140H0z"/></clipPath></defs></svg>