<svg width="153" height="221" fill="none" xmlns="http://www.w3.org/2000/svg"><path d="M56.37 62.458c3.751 23.245 10.316 35.929 13.129 39.366h-37.51c-24.382 0-35.634 17.808-30.946 43.114 4.69 25.306 29.07 19.682 55.327 14.996 21.006-3.749 31.258-11.56 33.759-14.996-2.813 5.311-10.878 19.12-20.63 31.867-12.19 15.933-26.257 35.616 0 42.177s36.571-2.812 45.011-29.055c6.752-20.995 2.813-38.741 0-44.989 5.939 8.748 19.693 29.992 27.195 44.989 9.377 18.745 43.136 26.243 58.139 13.121 15.004-13.121 13.129-40.302-15.003-58.11-22.506-14.247-44.387-15.309-52.514-14.059 9.065-1.875 32.258-6.749 52.514-11.247 25.319-5.624 34.696-29.056 28.132-46.864-6.564-17.808-39.385-21.557-61.891-10.31-18.005 8.998-31.883 29.993-36.572 39.366 1.563-13.122 3.751-43.49 0-59.986C109.821 21.218 92.942-6.9 69.499 1.536 46.055 9.97 51.682 33.403 56.37 62.458z" fill="#DFEBF3"/></svg>