<svg width="297" height="327" fill="none" xmlns="http://www.w3.org/2000/svg"><path opacity=".7" d="M55.027 309.065c-23.317-11.548-27.337-44.303-18.805-67.88-19.07-4.719-35.597-18.39-36.195-42.62-.632-25.613 9.934-48.427 25.123-60.979C10.137 121.135.774 97.042 15.027 72.565c16.927-29.07 46.041-31.6 65.02-24.93-.75-20.07 9.525-41.25 39.48-46.07 33.95-5.463 55.718 3.693 61.738 22.477 15.367-14.509 41.057-24.477 67.262-10.477 31.637 16.902 41.486 39.439 32.154 60.447 21.928-2.088 49.387 8.358 55.846 33.053 7.267 27.785 2.108 51.184-21.723 58.639 14.549 13.588 23.338 34.726 11.723 60.861-11.977 26.949-24.398 29.989-38.144 24.734 4.292 12.334 2.889 24.728-13.356 38.266-16.985 14.154-39.906 5.554-55.569-7.504-4.746 20.769-16.976 40.41-43.931 44.004-26.898 4.086-41.424-16.172-46.749-38.198-15.972 20.187-36.598 39.597-73.75 21.198z" fill="#F0E5E4"/></svg>