<svg width="80" height="97" fill="none" xmlns="http://www.w3.org/2000/svg"><rect y="17" width="80" height="80" rx="15" fill="#ED2486"/><g filter="url(#filter0_d)" clip-path="url(#clip0)"><g clip-path="url(#clip1)"><path d="M26.878 95.127s-6.902 1.304-8.592-2.33c-1.502-3.168 1.925-6.196 4.32-6.522 0 0 2.347-1.817 3.568-2.935.657-.606 2.112-1.677 3.427-2.33 1.174-.559 2.394-.372 2.629-.046.376.606-.188 1.025-1.502 1.957-.517.372-1.315 1.025-1.925 1.444 0 0 1.127.28 1.549 1.77.423 1.491.14 1.864.14 1.864s.752 2.516-1.22 3.727c-1.972 1.211-1.643-.56-1.643-.56s-1.643.84-1.596 1.678c0 .326.422.513 1.08.699-.047.466-.235 1.584-.235 1.584z" fill="url(#paint0_linear)" stroke="#EAECE4" stroke-width=".25" stroke-miterlimit="10"/><path d="M26.314 97.177c-.328 4.146 8.827 4.892 13.052 4.705l5.258-18.03c-4.037.14-10.516-.419-15.68-1.257-1.503 6.289-2.489 12.718-2.63 14.582z" fill="url(#paint1_linear)"/><path d="M40.446 102.581c-.892.047-2.817-5.125-1.033-14.489 1.596-4.38 7.042-3.68 9.014-2.888 3.38 1.397.798 15.327.798 15.327-3.52 1.118-5.493 1.957-8.78 2.05z" fill="url(#paint2_linear)" stroke="#66625D" stroke-miterlimit="10"/><path d="M26.455 98.015c-.188-.559-.234-.931.329-4.519.094.047.188-.046.282-.046-.235 1.258-.517 3.587-.61 4.565z" fill="url(#paint3_linear)"/><path d="M24.296 102.674s-.61 8.246 8.169 12.393c2.253 1.071 4.131 1.304 6.948 1.211-.516-8.106 6.244-7.92 11.362-7.128 4.319.699 2.535 3.494 1.925 5.078 3.286-.466 3.427-5.078 3.568-6.848.328-3.634-2.254-6.849-5.869-7.501l-1.83-.326c-7.654 4.239-23.147 2.329-22.16-2.656-3.428.513-5.634 3.355-2.113 5.777z" fill="url(#paint4_linear)"/><path d="M29.554 104.677c-2.347-.792-6.338-2.469-6.244-5.264.047-2.05 2.958-2.47 3.052-2.516-2.489.14-4.836 2.423-3.38 4.566 1.971 2.935 6.572 3.214 6.572 3.214z" fill="#D7D8AB"/><path d="M26.361 96.897c-.14 1.351.799 3.075 3.991 3.867 7.981 1.817 13.005.932 18.17-1.211-4.93 2.609-10.611 3.587-18.264 1.537-3.427-.978-4.225-2.935-3.896-4.193z" fill="#578A38"/><path d="M53.404 101.556c2.16-.745 1.878-2.609 2.394-2.888-.329-1.352-.892-3.914-1.596-5.591-1.925-4.659-4.32-7.734-5.822-9.178-1.127 0-4.319-.233-5.07.093-3.052 1.444-2.91 5.87-.657 9.877 1.08 1.677 2.816 2.795 4.225 4.24 1.315 1.35 2.394 1.817 3.38 3.354.423-.047 2.019.512 3.146.093z" fill="url(#paint5_linear)"/><path d="M48.568 83.9c.516.558 1.033 1.117 1.55 1.723 1.83 2.143 4.788 5.963 5.68 12.998-1.972-7.64-3.944-10.156-5.916-12.812l-1.549-1.956c.047.093.235.046.235.046z" fill="#6A6663"/><path d="M40.211 91.027c.675 0 1.221-.542 1.221-1.211 0-.67-.547-1.212-1.22-1.212-.675 0-1.221.543-1.221 1.212 0 .669.546 1.211 1.22 1.211z" fill="#EA2882"/><path d="M40.211 88.838c.517 0 .986.419.986.978a.96.96 0 01-.986.978.96.96 0 01-.986-.978.96.96 0 01.986-.978zm0-.466c-.798 0-1.455.652-1.455 1.444a1.457 1.457 0 002.911 0c0-.792-.705-1.444-1.456-1.444z" fill="#fff"/><path d="M38.334 93.17c.674 0 1.22-.542 1.22-1.211 0-.67-.546-1.211-1.22-1.211-.675 0-1.221.542-1.221 1.21 0 .67.546 1.212 1.22 1.212z" fill="#EA2882"/><path d="M38.333 90.98c.517 0 .986.42.986.979a.988.988 0 01-.986.978.959.959 0 01-.986-.978c0-.513.47-.978.986-.978zm0-.465c-.798 0-1.455.652-1.455 1.444a1.457 1.457 0 002.911 0c0-.792-.657-1.444-1.456-1.444z" fill="#fff"/><path d="M36.033 94.987c.7 0 1.268-.563 1.268-1.258 0-.694-.568-1.258-1.268-1.258-.7 0-1.268.564-1.268 1.258 0 .695.568 1.258 1.268 1.258z" fill="#EA2882"/><path d="M36.033 92.658c.563 0 1.033.466 1.033 1.025 0 .559-.47 1.025-1.033 1.025A1.038 1.038 0 0135 93.683c0-.56.47-1.025 1.033-1.025zm0-.466c-.845 0-1.502.652-1.502 1.49 0 .84.657 1.492 1.502 1.492s1.502-.653 1.502-1.491c0-.839-.657-1.491-1.502-1.491z" fill="#fff"/><path d="M33.545 96.292c.674 0 1.22-.543 1.22-1.212 0-.669-.546-1.211-1.22-1.211-.675 0-1.221.542-1.221 1.211 0 .67.547 1.212 1.22 1.212z" fill="#EA2882"/><path d="M33.544 94.102c.517 0 .986.42.986.978a.988.988 0 01-.986.979.959.959 0 01-.985-.979c.047-.559.47-.978.986-.978zm0-.466c-.798 0-1.455.652-1.455 1.444 0 .792.657 1.445 1.456 1.445.798 0 1.455-.653 1.455-1.445s-.657-1.444-1.456-1.444z" fill="#fff"/><path d="M30.822 96.757a1.31 1.31 0 001.314-1.304 1.31 1.31 0 00-1.314-1.304 1.31 1.31 0 00-1.315 1.304c0 .72.589 1.304 1.315 1.304z" fill="#EA2882"/><path d="M30.822 94.382c.61 0 1.08.465 1.08 1.071 0 .606-.47 1.072-1.08 1.072-.61 0-1.08-.466-1.08-1.072.047-.606.516-1.072 1.08-1.072zm0-.466c-.846 0-1.55.699-1.55 1.537 0 .839.704 1.537 1.55 1.537.845 0 1.549-.698 1.549-1.537 0-.838-.658-1.537-1.55-1.537z" fill="#fff"/><path d="M28.286 95.406c.674 0 1.221-.542 1.221-1.21 0-.67-.547-1.212-1.22-1.212-.675 0-1.221.542-1.221 1.211 0 .67.546 1.211 1.22 1.211z" fill="#EA2882"/><path d="M28.287 93.217a.96.96 0 01.985.978.96.96 0 01-.985.978.96.96 0 01-.986-.978c0-.559.469-.978.986-.978zm0-.466c-.799 0-1.456.652-1.456 1.444a1.457 1.457 0 002.911 0c0-.792-.657-1.444-1.456-1.444z" fill="#fff"/><path d="M26.925 93.31c.674 0 1.22-.542 1.22-1.211 0-.67-.546-1.212-1.22-1.212-.674 0-1.22.543-1.22 1.212 0 .669.546 1.21 1.22 1.21z" fill="#EA2882"/><path d="M26.925 91.12a.96.96 0 01.986.979.959.959 0 01-.986.978.959.959 0 01-.986-.978c0-.513.422-.979.986-.979zm0-.466c-.798 0-1.456.653-1.456 1.445s.658 1.444 1.456 1.444c.798 0 1.455-.652 1.455-1.444 0-.792-.657-1.445-1.455-1.445z" fill="#fff"/><path d="M43.404 83.34s-4.742 11.74-12.207 11.554c-7.465-.186-1.83-11.6-1.83-11.6s.656 1.304 5.82 1.63c5.165.326 8.217-1.584 8.217-1.584z" fill="url(#paint6_linear)" stroke="#fff" stroke-miterlimit="10"/><path d="M37.113 90.328a2.105 2.105 0 002.112-2.096 2.105 2.105 0 00-2.112-2.097A2.105 2.105 0 0035 88.232c0 1.158.946 2.096 2.113 2.096z" fill="#F8A536"/><path d="M37.113 89.583c.752 0 1.361-.605 1.361-1.351s-.61-1.351-1.361-1.351c-.752 0-1.362.605-1.362 1.35 0 .747.61 1.352 1.362 1.352z" fill="#8BBC3B" stroke="#D7D8AB" stroke-width=".75" stroke-miterlimit="10"/><path d="M32.606 93.776a1.73 1.73 0 001.737-1.724 1.73 1.73 0 00-1.737-1.724 1.73 1.73 0 00-1.737 1.724 1.73 1.73 0 001.737 1.724z" fill="#F8A536"/><path d="M32.606 93.124c.596 0 1.08-.48 1.08-1.072 0-.592-.484-1.071-1.08-1.071-.597 0-1.08.48-1.08 1.071 0 .592.483 1.072 1.08 1.072z" fill="#8BBC3B" stroke="#D7D8AB" stroke-width=".75" stroke-miterlimit="10"/><path d="M30.587 88.79a2.011 2.011 0 002.019-2.002 2.011 2.011 0 00-2.02-2.004 2.011 2.011 0 00-2.018 2.004c0 1.106.904 2.003 2.019 2.003z" fill="#F8A536"/><path d="M30.587 88.045c.7 0 1.268-.563 1.268-1.257 0-.695-.568-1.258-1.268-1.258-.7 0-1.268.563-1.268 1.258 0 .694.568 1.257 1.268 1.257z" fill="#8BBC3B" stroke="#D7D8AB" stroke-width=".75" stroke-miterlimit="10"/><path d="M25.751 64.472v.093c0 .093.047.186.047.28 0 .046 0 .093.047.14 0 .092.047.186.094.279 0 .046 0 .093.047.093.047.14.094.233.14.373.048.14.141.28.188.419 0 .046.047.093.047.14.047.093.094.186.094.233.047.046.047.093.094.14.047.046.047.14.094.186.047.046.047.093.094.14 0 .046.047.093.047.14.14.279.282.512.422.698.376.513.658.56.94.746.469.279 1.69-2.05 5.258-.84.14.047.234.094.375.14 2.113.84 3.099 3.169 3.099 3.169 5.54-1.864 18.122-4.333 23.662-1.165.328-1.165.563-2.562.751-4.193.376-3.168.657-6.15.657-9.038 0-5.544-.563-12.16-7.136-14.955-1.69-.745-3.662-1.211-7.512-1.351-4.178-.14-7.417 1.211-9.906 4.24-3.051-1.678-7.23 3.494-10.094 9.364-1.033 2.143-1.784 4.286-2.16 6.196a2.32 2.32 0 00-.093.559c.563.839.47 2.33.704 3.774z" fill="url(#paint7_radial)"/><path d="M58.286 44.112s.141 2.656-.188 6.383c-.375 4.147-1.643 10.063-1.83 13.604-.188 3.54 0 4.426 0 4.426 1.877.326 3.051.792 4.272 1.397.892-3.4 1.83-12.159 1.174-17.656-.188-1.584-.517-3.075-.892-4.007-1.033-2.795-2.536-4.147-2.536-4.147z" fill="url(#paint8_linear)"/><path d="M26.08 65.73c.986 2.329 1.408 2.562 1.83 2.748.047.047.141.047.188.093.235.14.752-.465 1.69-.885 1.127-1.817 2.583-4.1 3.146-6.848 1.268-6.616 2.207-13.185 1.08-13.371-1.174-.14-5.587 3.494-7.653 11.274-.281.979-.61 2.702-.798 3.727-.047 1.445-.094 1.817.517 3.261z" fill="#fff"/><path d="M26.033 65.963c1.127 2.702 1.549 2.562 2.018 2.842.235.14.752-.466 1.69-.886 1.127-1.817 2.583-4.1 3.146-6.848 1.268-6.616 2.207-13.185 1.08-13.371-1.174-.14-5.587 3.494-7.653 11.274-.281.979-.61 2.702-.798 3.727-.047 1.445-.094 1.817.517 3.262z" fill="url(#paint9_linear)"/><path d="M27.958 68.572c-.47-.28-.94-.373-2.16-3.355-.376-1.817-.376-.932-.329-2.47.188-.93.564-2.934.845-3.96 2.113-7.826 6.338-11.693 7.7-11.506.094 0 .235.046.375.233.658.931 0 5.497-1.502 13.464-.563 2.888-1.69 4.565-2.91 6.568-.47.187-1.08.327-1.503.653-.235.186-.235.559-.516.373zm-1.925-2.842c.939 2.236 1.69 2.655 2.018 2.841.094.047.188-.046.235 0l.423-.279c.235-.186.422-.606.892-.792l.282-.466c1.032-1.677 2.347-3.261 2.816-5.684 2.02-10.622 1.55-13.184 1.268-13.557l-.047-.047c-.892-.093-5.211 3.075-7.418 11.088-.235.886-.563 2.563-.798 3.728v.093c.047 1.258-.235 1.724.329 3.075z" fill="#5B5752"/><path d="M27.958 68.525c.094.046.14.093.234.14 0 0 .188-.14.376-.233a5 5 0 011.033-.606l.282-.466c1.032-1.677 2.394-3.54 2.863-5.963.188-.932.329-1.77.47-2.61 0-.092 0-.279-.047-.465-.235-.745-.563-1.211-1.08-1.398-1.08-.372-3.897 2.19-4.742 5.777-.47 1.957-.516 3.82-.14 5.172v.046c.328.42.563.513.75.606z" fill="url(#paint10_linear)"/><path d="M38.192 71.46l-.14-.233c-1.503-2.749-1.268-8.34.563-13.557 2.535-7.221 7.089-11.974 10.375-10.855 3.334 1.118 3.944 7.687 1.409 14.908-.986 2.842-2.348 5.87-3.897 7.827l-.094.093h-.14c-3.334.466-6.104 1.165-7.794 1.677 0 .047-.282.14-.282.14zm9.812-24.086c-2.816 0-6.62 4.472-8.732 10.529-1.69 4.798-1.925 9.643-.704 12.252a51.152 51.152 0 017.465-1.584c5.633-7.267 6.901-19.66 2.723-21.057-.235-.14-.517-.14-.752-.14z" fill="#5B5752"/><path d="M48.755 47.467a2.207 2.207 0 00-.798-.14c-2.816 0-6.666 3.54-8.92 10.203-1.643 4.799-1.737 10.436-.47 13.045a51.139 51.139 0 017.465-1.584c1.503-1.91 2.77-4.799 3.71-7.548 2.3-6.569 1.877-12.998-.986-13.976z" fill="url(#paint11_linear)"/><path d="M47.958 56.225c-1.925-.465-4.273 2.703-5.306 7.035-.516 2.237-.61 4.38-.234 5.964v.046c.422 1.724 1.643 1.445 3.615-.699 1.83-2.282 3.145-5.078 3.99-7.92-.094-2.422-.845-4.146-2.065-4.426z" fill="url(#paint12_linear)"/><path d="M31.526 59.394c-1.221-.28-2.77 1.723-3.427 4.519-.47 1.91-.376 3.68.14 4.705.188.373.329 0 .423-.093.188-.233.798-.699 1.22-.932l.094-.047c1.033-1.677 2.254-3.214 2.723-5.683 0-.047.094-.513-.047-.979-.187-.792-.563-1.397-1.126-1.49zm16.15-.327c-1.502-.419-3.427 1.817-4.272 4.939-.517 1.957-.517 3.773-.047 5.031.047.14.14.326.188.326.845-.14 1.83-.419 2.722-.559 1.268-1.584 2.113-3.727 3.005-5.916 0-2.004-.563-3.541-1.596-3.82z" fill="#14100E"/><path d="M47.958 61.164c.466 0 .845-.48.845-1.072 0-.591-.379-1.071-.845-1.071-.467 0-.846.48-.846 1.071 0 .592.379 1.072.846 1.072zm-15.944-.946c.053-.46-.218-.868-.605-.912-.386-.043-.742.295-.794.756-.052.46.219.868.605.911.387.043.742-.295.794-.755zM63.873 73.79a16.39 16.39 0 00-2.066-2.61c-3.051-2.981-7.417-3.26-16.995-1.63-2.066.373-7.136 1.863-8.169 1.397-.516-.233-.845-1.537-1.972-2.469-.234-.14-.47-.326-.704-.419-.047 0-.047-.047-.094-.047-.047-.046-.14-.046-.235-.093-3.85-1.49-4.647 1.025-5.258.792-.047 0-.047-.046-.094-.046-3.474-.327-2.253-6.942-4.366-8.06-1.972-.885-6.667 1.444-8.45 4.938-.142.42-.282.839-.376 1.258-.141 1.211 0 2.33.235 3.308-.47-2.097.985-4.193 1.924-4.752-.845 1.49-2.253 2.795-1.83 5.218.14.419.281.838.469 1.258 0 .046.047.046.047.093-.376-.699-.282-1.584.14-1.864l.048.047c.047.792-.798 1.863 1.502 3.4l.047.047c-.376-.652-.516-1.257-.282-1.863h.047c-.845 2.749 5.916 6.429 8.498 7.734 2.958 1.537 3.192 3.028 5.352 4.332 2.958 1.77 5.117-1.397 8.028-1.584v.047c-1.127.233-2.066.792-3.052 1.35.188 0 .564.047 1.033.094 2.63 0 10.61-.186 11.033-.186 7.136-.14 9.86-.466 11.315-1.398 1.737-1.072 1.83-.559 3.333-2.283.657-.745.845-1.071 1.409-2.422.75-1.724-.235-3.168-.517-3.588z" fill="#fff"/><path d="M31.197 74.255c1.919 0 3.474-1.543 3.474-3.447 0-1.904-1.555-3.448-3.474-3.448-1.919 0-3.474 1.544-3.474 3.448s1.555 3.447 3.474 3.447z" fill="url(#paint13_radial)"/><path d="M30.822 69.83a.327.327 0 00.328-.327.327.327 0 00-.328-.326.327.327 0 00-.33.326c0 .18.148.326.33.326zm2.3.931a.327.327 0 00.328-.326.327.327 0 00-.328-.326.327.327 0 00-.329.326c0 .18.147.326.329.326z" fill="#fff" fill-opacity=".6"/><path d="M43.92 74.814c.235.653-7.465 8.107-11.127 7.268-1.596-.373-1.596-2.283-2.488-3.4-.986-1.259-4.038-5.032-3.615-5.312.094-.093 5.4 3.215 11.268 2.609 4.413-.466 5.868-1.398 5.962-1.165z" fill="#341D1A"/><path d="M35.14 79.613c-.14 0-.234 0-.328-.047-.47-.233-1.69-.372-2.582-.14-1.08.28-1.08 1.165-.61 1.864.469.652 1.032 1.025 1.971.885 1.644-.186 5.446-1.863 3.991-2.422-.704-.28-1.925-.187-2.441-.14z" fill="url(#paint14_linear)"/><path d="M34.108 75.84c-2.254-.327-4.225-1.072-5.587-1.631.047.326.094.699.188 1.025.892 2.282 2.066 3.96 3.709 3.494 1.033-.233 1.643-1.398 1.69-2.889z" fill="#fff"/><path d="M31.76 78.821c-.14-.326-.75-1.072-.798-2.376-.047-.978 0-.978.047-1.304-.094-.047-.14-.047-.235-.094-.047.466-.187 1.025.094 2.143.235.979.892 1.631.892 1.631z" fill="#BCA8A5"/><path d="M28.286 68.665c-3.474-.326-2.253-6.942-4.366-8.06-2.019-.885-6.995 1.63-8.592 5.264.705-2.05 2.958-4.286 5.494-5.31 1.267-.467 3.239-.886 4.084.093.329.372.516.745.657 1.164.658 2.19.376 5.59 2.723 6.849zM17.253 65.31c-1.032.606-2.629 2.982-1.784 5.218-.47-2.422.94-3.68 1.784-5.218zm-1.126 4.706c-.564.372-.564 1.863.422 2.422-.798-1.025-.282-1.817-.328-2.422h-.094zm1.314 1.63c-.892 2.516 4.554 5.87 6.855 7.222 4.742 2.748 2.535 1.49 5.399 4.193 4.178 3.913 6.338-.187 9.671-.84v-.046c-2.864.187-5.023 3.308-8.028 1.584-2.16-1.304-2.394-2.795-5.352-4.332-2.63-1.351-9.39-5.032-8.545-7.78zm19.249-.698c1.033.512 6.103-1.025 8.169-1.398 9.578-1.63 13.897-1.258 16.995 1.724 1.08.978 1.925 2.236 2.63 3.54-.61-1.35-1.362-2.655-2.442-3.727-3.38-3.54-7.887-3.354-12.817-2.795-8.638 1.025-11.878 3.448-12.817 1.864-.657-1.072-1.408-2.19-3.38-2.563.704.186 1.268.466 1.69.792 1.127 1.025 1.409 2.283 1.972 2.563zm26.338 8.851c1.502-1.35.798-3.54-.094-5.357.329 1.817 1.174 3.54.094 5.357zm-3.521 2.423c1.69-.839 3.052-2.702 2.958-4.473-.564 1.724-1.409 3.122-2.958 4.473zM48.38 83.433c-.47 0-9.483.233-11.502.187 1.83.233 4.178.233 6.01.28 11.596.232 13.38-.746 16.15-2.33-2.583 1.118-3.475 1.77-10.658 1.863z" fill="url(#paint15_linear)"/><path d="M51.197 4c-.282.047-.892 5.684-1.55 9.364-.657 3.68-2.065 5.637-1.69 9.55.376 3.914 3.803 8.713 5.306 16.26.75 3.774-.658 4.752.47 5.684.328.233-.048-1.63.656-1.63.376 0 .94.698.798 2.748-.093 1.072.517 2.236.986 2.003.752-.372-1.455-1.77.658-1.584 1.83.187 1.032 1.91 1.925 1.398.422-.233.704-1.072 1.08-2.283.375-1.211 4.319-8.06 4.929-12.812.61-4.752-.094-7.873-1.22-11.414-2.583-5.078-3.85-6.429-5.494-8.619-.047-.046-6.572-8.712-6.854-8.665z" fill="url(#paint16_linear)"/><path d="M27.347 9.218c-.563 0-1.314 5.917-.657 10.482 1.22 9.038 7.042 14.582 10.376 18.59 1.596 1.956 2.253 3.353 2.629 4.052 2.77-1.724 5.164-2.236 8.638-1.956.423-1.817 1.08-5.777-1.361-9.644-2.16-3.401-2.395-4.846-10.141-11.135-.798-.652-3.193-2.33-4.93-4.1-2.488-2.609-4.366-6.29-4.554-6.29z" fill="url(#paint17_linear)"/><path d="M64.436 24.685c-.094-.466-.234-2.143-1.361-4.519-.423-.932-3.334-5.264-5.07-7.5a332.36 332.36 0 00-6.245-8.06s.564.978.845 1.537c.141.326.329.606.564.885 1.69 2.236 8.122 10.762 9.483 13.278.94 1.724 1.315 2.888 1.456 4.193.047-.047.281.14.328.186zm-5.962 19.987s.563-1.491.516-1.445c.188-5.45-1.643-12.113-4.93-17.983-1.924-3.447-1.642-14.349-1.595-14.861 0-.047 0-.047-.047.046 0 0-.141 2.516-.188 3.168-.047.652-.047 2.283-.047 2.889.094 3.727.375 7.128 1.784 9.643 3.145 5.684 4.742 11.554 4.554 17.052l-.047 1.49z" fill="#5E564E"/><path d="M52.746 6.47c-.188.139-1.22 14.302 1.643 19.427 3.287 5.87 4.79 11.833 4.601 17.284 2.817-3.68 4.601-5.917 4.93-13.371.188-4.007.798-5.73-1.268-9.55-1.502-2.796-9.906-13.79-9.906-13.79z" fill="url(#paint18_radial)"/><path d="M44.014 40.572s.61-3.401.422-5.078c-.234-2.05-.939-4.426-2.77-6.942-3.474-4.705-8.732-7.314-11.08-10.203-.938-1.165-2.347-2.702-2.91-4.705-.517-1.91-.188-4.38-.376-4.38-.235-.046-.563 1.119-.75 3.401-.283 2.703-.283 6.756 1.877 11.74 2.63 6.104 10.14 13.93 11.22 18.03 1.55-1.118 2.677-1.397 4.367-1.863z" fill="url(#paint19_linear)"/><path d="M30.587 48.492s1.737-4.333 5.07-4.892c2.488-.42 1.362 4.24 1.362 4.24s.516-3.728-2.02-3.215c-1.83.42-4.412 3.867-4.412 3.867zm22.3-1.165s.423-4.845-1.925-5.684c-3.004-1.118-5.54 3.215-5.54 3.215s3.005-3.028 4.93-2.33c1.925.746 2.535 4.8 2.535 4.8z" fill="#14100E"/><path d="M43.967 40.618c.14-1.164.329-3.307.282-4.472-.141-2.47-1.08-4.985-2.395-7.082-3.943-6.289-14.695-9.224-14.46-18.495V9.31c.047.606.047.792.047 1.258-.047 9.178 10.751 12.02 14.789 18.263 1.408 2.143 2.347 4.705 2.441 7.267.047 1.305-.235 3.168-.422 4.473-.047 0-.141 0-.282.046z" fill="url(#paint20_linear)"/><path d="M37.864 20.446c3.568 2.748 5.634 4.985 7.652 7.687 3.334 4.565 3.38 7.36 3.193 10.11-.094-4.8-2.113-8.666-6.995-13.977-1.174-1.304-2.536-2.702-3.85-3.82z" fill="url(#paint21_linear)"/><path d="M53.498 41.923c-.705-10.948-8.967-14.722-4.226-26.835-1.971 6.755-1.408 9.038 2.207 17.89.798 2.003 1.83 4.007 2.066 7.175.093.559.047 1.397-.047 1.77z" fill="#D8D0CC"/><path d="M22.512 89.536c-.564-1.118-.705-2.562.093-3.26.799-.7 2.348-1.818 3.569-2.936.657-.606 2.112-1.677 3.427-2.33 1.174-.559 2.394-.372 2.629-.046.376.606-.188 1.025-1.502 1.957-.517.372-1.315 1.025-1.925 1.444 0 0 1.127.28 1.549 1.77.282.979.188 1.491.14 1.724l-.656-.373-.61-.326s1.267.7 1.267.792c.14.653.329 2.796-1.268 3.774-1.361.838-1.784-.047-1.784-.466 0-.42 1.315-1.258 1.315-1.258s-1.362 1.165-1.643 1.398a4.884 4.884 0 00-.986.978c-.376.42-1.127.28-1.597.093-.563-.326-.939-.792-2.018-2.935z" fill="url(#paint22_linear)"/><path d="M29.225 87.207c2.958.14 1.503 5.078-1.033 4.845 1.878-.28 2.676-2.702 2.3-3.867-.187-.512-.703-.792-1.267-.978z" fill="#ADA59C"/><path d="M28.521 84.318c.422 0 .845.14 1.174.373.328.233.61.606.798.978.094.187.14.373.188.606.047.186.047.42.047.606 0 .419-.047.838-.235 1.164.047-.372 0-.792-.047-1.164a4.008 4.008 0 00-.282-1.072 3.08 3.08 0 00-.657-.932c-.282-.186-.61-.419-.986-.559zm.469 5.684c-.328.233-.61.42-.938.606-1.409 1.025-1.174 2.05-2.536 1.957 1.409-.373.94-1.957 3.475-2.563zm-4.319-5.404c1.643-1.817 5.305-5.078 7.418-3.867 1.455.839-1.455 2.33-2.77 3.261 1.596-1.444 3.615-2.469 2.63-3.028-1.926-.978-5.26 1.957-7.278 3.634z" fill="#ADA59C"/></g></g><defs><linearGradient id="paint0_linear" x1="17.901" y1="91.794" x2="34.073" y2="85.862" gradientUnits="userSpaceOnUse"><stop stop-color="#DAD3CB"/><stop offset=".293" stop-color="#A49B90"/></linearGradient><linearGradient id="paint1_linear" x1="35.855" y1="84.7" x2="34.622" y2="103.801" gradientUnits="userSpaceOnUse"><stop stop-color="#F9F1F4"/><stop offset=".295" stop-color="#F6EFF1"/><stop offset=".538" stop-color="#EEE7E7"/><stop offset=".763" stop-color="#E1DAD5"/><stop offset=".976" stop-color="#CEC7BD"/><stop offset="1" stop-color="#CBC5BA"/></linearGradient><linearGradient id="paint2_linear" x1="38.674" y1="93.584" x2="50.191" y2="93.584" gradientUnits="userSpaceOnUse"><stop stop-color="#CBC2BC"/><stop offset=".996" stop-color="#9D958E"/></linearGradient><linearGradient id="paint3_linear" x1="26.776" y1="95.774" x2="26.471" y2="95.736" gradientUnits="userSpaceOnUse"><stop stop-color="#DAD3CB"/><stop offset="1" stop-color="#A49B90"/></linearGradient><linearGradient id="paint4_linear" x1="22.511" y1="106.615" x2="56.256" y2="106.615" gradientUnits="userSpaceOnUse"><stop offset=".412" stop-color="#93C256"/><stop offset="1" stop-color="#53B253"/></linearGradient><linearGradient id="paint5_linear" x1="40.308" y1="90.626" x2="63.75" y2="96.08" gradientUnits="userSpaceOnUse"><stop stop-color="#CBC2BC"/><stop offset=".996" stop-color="#9D958E"/></linearGradient><linearGradient id="paint6_linear" x1="27.322" y1="89.129" x2="43.398" y2="89.129" gradientUnits="userSpaceOnUse"><stop stop-color="#F1428E"/><stop offset="1" stop-color="#E13989"/></linearGradient><linearGradient id="paint8_linear" x1="56.153" y1="57.004" x2="61.892" y2="57.004" gradientUnits="userSpaceOnUse"><stop stop-color="#76736F"/><stop offset="1" stop-color="#757470"/></linearGradient><linearGradient id="paint9_linear" x1="25.308" y1="67.27" x2="35.876" y2="48.825" gradientUnits="userSpaceOnUse"><stop offset=".721" stop-color="#fff"/><stop offset="1" stop-color="#E0D8D0"/></linearGradient><linearGradient id="paint10_linear" x1="26.976" y1="62.719" x2="33.232" y2="62.719" gradientUnits="userSpaceOnUse"><stop stop-color="#328142"/><stop offset=".009" stop-color="#358343"/><stop offset=".16" stop-color="#5E9E4B"/><stop offset=".298" stop-color="#7BB151"/><stop offset=".416" stop-color="#8EBD55"/><stop offset=".5" stop-color="#94C156"/><stop offset=".65" stop-color="#91BF55"/><stop offset=".743" stop-color="#89BA54"/><stop offset=".821" stop-color="#7AB051"/><stop offset=".89" stop-color="#66A34D"/><stop offset=".953" stop-color="#4B9247"/><stop offset="1" stop-color="#328142"/></linearGradient><linearGradient id="paint11_linear" x1="44.464" y1="70.606" x2="44.464" y2="47.352" gradientUnits="userSpaceOnUse"><stop offset=".477" stop-color="#fff"/><stop offset=".664" stop-color="#FDFDFC"/><stop offset=".793" stop-color="#F7F5F3"/><stop offset=".906" stop-color="#EDE8E4"/><stop offset="1" stop-color="#E0D8D0"/></linearGradient><linearGradient id="paint12_linear" x1="42.992" y1="58.501" x2="48.301" y2="67.767" gradientUnits="userSpaceOnUse"><stop stop-color="#328142"/><stop offset=".009" stop-color="#358343"/><stop offset=".16" stop-color="#5E9E4B"/><stop offset=".298" stop-color="#7BB151"/><stop offset=".416" stop-color="#8EBD55"/><stop offset=".5" stop-color="#94C156"/><stop offset=".65" stop-color="#91BF55"/><stop offset=".743" stop-color="#89BA54"/><stop offset=".821" stop-color="#7AB051"/><stop offset=".89" stop-color="#66A34D"/><stop offset=".953" stop-color="#4B9247"/><stop offset="1" stop-color="#328142"/></linearGradient><linearGradient id="paint14_linear" x1="32.489" y1="78.708" x2="36.277" y2="82.027" gradientUnits="userSpaceOnUse"><stop stop-color="#E94239"/><stop offset=".5" stop-color="#B73632"/><stop offset="1" stop-color="#E94239"/></linearGradient><linearGradient id="paint15_linear" x1="17.657" y1="77.973" x2="61.447" y2="64.851" gradientUnits="userSpaceOnUse"><stop stop-color="#D4D3D1"/><stop offset="1" stop-color="#686764"/></linearGradient><linearGradient id="paint16_linear" x1="41.303" y1="13.82" x2="66.93" y2="39.645" gradientUnits="userSpaceOnUse"><stop stop-color="#C1BAAF"/><stop offset="1" stop-color="#64605B"/></linearGradient><linearGradient id="paint17_linear" x1="26.418" y1="25.787" x2="48.747" y2="25.787" gradientUnits="userSpaceOnUse"><stop stop-color="#C1BAAF"/><stop offset=".638" stop-color="#6F6A66"/><stop offset=".66" stop-color="#6C6864"/><stop offset=".858" stop-color="#5A5854"/><stop offset="1" stop-color="#54524F"/></linearGradient><linearGradient id="paint19_linear" x1="26.439" y1="25.786" x2="44.481" y2="25.786" gradientUnits="userSpaceOnUse"><stop stop-color="#ECE6DF"/><stop offset="1" stop-color="#D7CCC2"/></linearGradient><linearGradient id="paint20_linear" x1="27.373" y1="24.947" x2="44.657" y2="24.947" gradientUnits="userSpaceOnUse"><stop stop-color="#9C9289"/><stop offset=".996" stop-color="#1C1713"/></linearGradient><linearGradient id="paint21_linear" x1="37.843" y1="29.327" x2="48.755" y2="29.327" gradientUnits="userSpaceOnUse"><stop stop-color="#CBC2BC"/><stop offset=".996" stop-color="#9D958E"/></linearGradient><linearGradient id="paint22_linear" x1="21.983" y1="87.489" x2="33.03" y2="85.924" gradientUnits="userSpaceOnUse"><stop offset=".069" stop-color="#A49B90"/><stop offset=".266" stop-color="#BDB5AB"/><stop offset=".588" stop-color="#ECE6DF"/><stop offset=".681" stop-color="#E8E2DB"/><stop offset=".772" stop-color="#DED7CF"/><stop offset=".863" stop-color="#CCC4BB"/><stop offset=".953" stop-color="#B3AAA0"/><stop offset=".996" stop-color="#A49B90"/></linearGradient><radialGradient id="paint7_radial" cx="0" cy="0" r="1" gradientUnits="userSpaceOnUse" gradientTransform="matrix(26.6169 0 0 26.4129 35.483 61.476)"><stop stop-color="#ECE6DF"/><stop offset="1" stop-color="#88827D"/></radialGradient><radialGradient id="paint13_radial" cx="0" cy="0" r="1" gradientUnits="userSpaceOnUse" gradientTransform="matrix(4.12934 0 0 4.09768 30.866 69.862)"><stop stop-color="#E94239"/><stop offset="1" stop-color="#982F2E"/></radialGradient><radialGradient id="paint18_radial" cx="0" cy="0" r="1" gradientUnits="userSpaceOnUse" gradientTransform="matrix(12.964 0 0 12.8646 60.248 19.974)"><stop stop-color="#ECE6DF"/><stop offset="1" stop-color="#D7CCC2"/></radialGradient><clipPath id="clip0"><path fill="#fff" d="M14 0h55v97H14z"/></clipPath><clipPath id="clip1"><path d="M15 4h50v127H15V4z" fill="#fff"/></clipPath><filter id="filter0_d" x="12" y="-1" width="56" height="133" filterUnits="userSpaceOnUse" color-interpolation-filters="sRGB"><feFlood flood-opacity="0" result="BackgroundImageFix"/><feColorMatrix in="SourceAlpha" values="0 0 0 0 0 0 0 0 0 0 0 0 0 0 0 0 0 0 127 0"/><feOffset dy="-2"/><feGaussianBlur stdDeviation="1.5"/><feColorMatrix values="0 0 0 0 0.682353 0 0 0 0 0.603922 0 0 0 0 0.592157 0 0 0 0.3 0"/><feBlend in2="BackgroundImageFix" result="effect1_dropShadow"/><feBlend in="SourceGraphic" in2="effect1_dropShadow" result="shape"/></filter></defs></svg>