<svg width="80" height="97" viewBox="0 0 80 97" fill="none" xmlns="http://www.w3.org/2000/svg">
<rect y="17" width="80" height="80" rx="15" fill="#ED2486"/>
<g clip-path="url(#clip0)">
<g filter="url(#filter0_d)">
<g clip-path="url(#clip1)">
<path d="M26.8779 95.1269C26.8779 95.1269 19.9764 96.4314 18.2863 92.7975C16.784 89.6295 20.2112 86.6012 22.6056 86.2751C22.6056 86.2751 24.953 84.4581 26.1736 83.34C26.8309 82.7344 28.2863 81.6628 29.6009 81.0106C30.7746 80.4515 31.9952 80.6379 32.23 80.964C32.6056 81.5696 32.0422 81.9889 30.7276 82.9207C30.2112 83.2934 29.4131 83.9457 28.8027 84.365C28.8027 84.365 29.9295 84.6445 30.352 86.1353C30.7746 87.6261 30.4929 87.9989 30.4929 87.9989C30.4929 87.9989 31.2441 90.5146 29.2722 91.7259C27.3004 92.9372 27.629 91.1669 27.629 91.1669C27.629 91.1669 25.9858 92.0055 26.0328 92.8441C26.0328 93.1702 26.4553 93.3565 27.1126 93.5429C27.0656 94.0088 26.8779 95.1269 26.8779 95.1269Z" fill="url(#paint0_linear)" stroke="#EAECE4" stroke-width="0.25" stroke-miterlimit="10"/>
<path d="M26.3145 97.1768C25.9859 101.323 35.1408 102.069 39.3662 101.882L44.6244 83.8525C40.5868 83.9923 34.108 83.4332 28.9436 82.5946C27.4413 88.884 26.4554 95.3132 26.3145 97.1768Z" fill="url(#paint1_linear)"/>
<path d="M40.4459 102.581C39.5538 102.628 37.6289 97.4562 39.413 88.092C41.0092 83.7127 46.4552 84.4115 48.4271 85.2035C51.8073 86.6011 49.2252 100.531 49.2252 100.531C45.7041 101.649 43.7322 102.488 40.4459 102.581Z" fill="url(#paint2_linear)" stroke="#66625D" stroke-miterlimit="10"/>
<path d="M26.4553 98.0154C26.2675 97.4563 26.2206 97.0836 26.784 93.4963C26.8779 93.5429 26.9718 93.4497 27.0657 93.4497C26.8309 94.7076 26.5492 97.037 26.4553 98.0154Z" fill="url(#paint3_linear)"/>
<path d="M24.2958 102.674C24.2958 102.674 23.6854 110.92 32.4648 115.067C34.7183 116.138 36.5962 116.371 39.4131 116.278C38.8967 108.172 45.6573 108.358 50.7746 109.15C55.0939 109.849 53.3098 112.644 52.6995 114.228C55.9859 113.762 56.1267 109.15 56.2676 107.38C56.5962 103.746 54.0141 100.531 50.399 99.8789L48.5681 99.5528C40.9155 103.792 25.4225 101.882 26.4084 96.8972C22.9812 97.4097 20.7746 100.252 24.2958 102.674Z" fill="url(#paint4_linear)"/>
<path d="M29.554 104.677C27.2066 103.885 23.216 102.208 23.3099 99.413C23.3568 97.3631 26.2676 96.9438 26.3615 96.8972C23.8733 97.037 21.5258 99.3198 22.9812 101.463C24.9531 104.398 29.554 104.677 29.554 104.677Z" fill="#D7D8AB"/>
<path d="M26.3615 96.8972C26.2207 98.2483 27.1596 99.9721 30.3521 100.764C38.3333 102.581 43.3568 101.696 48.5211 99.5528C43.5915 102.162 37.9108 103.14 30.2582 101.09C26.831 100.112 26.0329 98.1551 26.3615 96.8972Z" fill="#578A38"/>
<path d="M53.4038 101.556C55.5634 100.811 55.2817 98.9471 55.7981 98.6676C55.4695 97.3165 54.9061 94.7542 54.2019 93.077C52.277 88.4182 49.8826 85.3433 48.3803 83.8991C47.2535 83.8991 44.061 83.6661 43.3099 83.9923C40.2582 85.4365 40.3991 89.8624 42.6526 93.869C43.7324 95.5462 45.4695 96.6643 46.8779 98.1085C48.1925 99.4596 49.2723 99.9255 50.2582 101.463C50.6808 101.416 52.277 101.975 53.4038 101.556Z" fill="url(#paint5_linear)"/>
<path d="M48.568 83.8991C49.0844 84.4582 49.6009 85.0173 50.1173 85.6229C51.9483 87.766 54.906 91.5862 55.798 98.6211C53.8262 90.9806 51.8544 88.4648 49.8825 85.8093C49.3661 85.157 48.8497 84.5048 48.3333 83.8525C48.3802 83.9457 48.568 83.8991 48.568 83.8991Z" fill="#6A6663"/>
<path d="M40.2114 91.0271C40.8855 91.0271 41.432 90.4848 41.432 89.8158C41.432 89.1468 40.8855 88.6045 40.2114 88.6045C39.5372 88.6045 38.9907 89.1468 38.9907 89.8158C38.9907 90.4848 39.5372 91.0271 40.2114 91.0271Z" fill="#EA2882"/>
<path d="M40.2113 88.8375C40.7277 88.8375 41.1972 89.2568 41.1972 89.8158C41.1972 90.3749 40.7746 90.7942 40.2113 90.7942C39.6479 90.7942 39.2253 90.3749 39.2253 89.8158C39.2253 89.2568 39.6479 88.8375 40.2113 88.8375ZM40.2113 88.3716C39.4131 88.3716 38.7559 89.0238 38.7559 89.8158C38.7559 90.6078 39.4131 91.2601 40.2113 91.2601C41.0094 91.2601 41.6667 90.6078 41.6667 89.8158C41.6667 89.0238 40.9624 88.3716 40.2113 88.3716Z" fill="white"/>
<path d="M38.3335 93.1702C39.0076 93.1702 39.5541 92.6278 39.5541 91.9589C39.5541 91.2899 39.0076 90.7476 38.3335 90.7476C37.6593 90.7476 37.1128 91.2899 37.1128 91.9589C37.1128 92.6278 37.6593 93.1702 38.3335 93.1702Z" fill="#EA2882"/>
<path d="M38.3333 90.9805C38.8498 90.9805 39.3192 91.3998 39.3192 91.9589C39.3192 92.4714 38.8967 92.9372 38.3333 92.9372C37.7699 92.9372 37.3474 92.5179 37.3474 91.9589C37.3474 91.4464 37.8169 90.9805 38.3333 90.9805ZM38.3333 90.5146C37.5352 90.5146 36.8779 91.1669 36.8779 91.9589C36.8779 92.7509 37.5352 93.4031 38.3333 93.4031C39.1315 93.4031 39.7887 92.7509 39.7887 91.9589C39.7887 91.1669 39.1315 90.5146 38.3333 90.5146Z" fill="white"/>
<path d="M36.033 94.9872C36.7331 94.9872 37.3006 94.424 37.3006 93.7293C37.3006 93.0346 36.7331 92.4714 36.033 92.4714C35.3329 92.4714 34.7654 93.0346 34.7654 93.7293C34.7654 94.424 35.3329 94.9872 36.033 94.9872Z" fill="#EA2882"/>
<path d="M36.0329 92.6578C36.5962 92.6578 37.0657 93.1237 37.0657 93.6827C37.0657 94.2418 36.5962 94.7077 36.0329 94.7077C35.4695 94.7077 35 94.2418 35 93.6827C35 93.1237 35.4695 92.6578 36.0329 92.6578ZM36.0329 92.1919C35.1878 92.1919 34.5305 92.8441 34.5305 93.6827C34.5305 94.5213 35.1878 95.1736 36.0329 95.1736C36.8779 95.1736 37.5352 94.5213 37.5352 93.6827C37.5352 92.8441 36.8779 92.1919 36.0329 92.1919Z" fill="white"/>
<path d="M33.5446 96.2916C34.2188 96.2916 34.7653 95.7493 34.7653 95.0803C34.7653 94.4113 34.2188 93.869 33.5446 93.869C32.8705 93.869 32.324 94.4113 32.324 95.0803C32.324 95.7493 32.8705 96.2916 33.5446 96.2916Z" fill="#EA2882"/>
<path d="M33.5445 94.102C34.0609 94.102 34.5304 94.5213 34.5304 95.0804C34.5304 95.5928 34.1079 96.0587 33.5445 96.0587C32.9811 96.0587 32.5586 95.6394 32.5586 95.0804C32.6055 94.5213 33.0281 94.102 33.5445 94.102ZM33.5445 93.6361C32.7464 93.6361 32.0891 94.2883 32.0891 95.0804C32.0891 95.8724 32.7464 96.5246 33.5445 96.5246C34.3426 96.5246 34.9999 95.8724 34.9999 95.0804C34.9999 94.2883 34.3426 93.6361 33.5445 93.6361Z" fill="white"/>
<path d="M30.8216 96.7575C31.5476 96.7575 32.1362 96.1735 32.1362 95.453C32.1362 94.7326 31.5476 94.1486 30.8216 94.1486C30.0956 94.1486 29.5071 94.7326 29.5071 95.453C29.5071 96.1735 30.0956 96.7575 30.8216 96.7575Z" fill="#EA2882"/>
<path d="M30.8215 94.3815C31.4318 94.3815 31.9013 94.8474 31.9013 95.4531C31.9013 96.0587 31.4318 96.5246 30.8215 96.5246C30.2112 96.5246 29.7417 96.0587 29.7417 95.4531C29.7886 94.8474 30.2581 94.3815 30.8215 94.3815ZM30.8215 93.9156C29.9764 93.9156 29.2722 94.6145 29.2722 95.4531C29.2722 96.2917 29.9764 96.9905 30.8215 96.9905C31.6666 96.9905 32.3708 96.2917 32.3708 95.4531C32.3708 94.6145 31.7135 93.9156 30.8215 93.9156Z" fill="white"/>
<path d="M28.2863 95.4064C28.9605 95.4064 29.507 94.8641 29.507 94.1951C29.507 93.5261 28.9605 92.9838 28.2863 92.9838C27.6122 92.9838 27.0657 93.5261 27.0657 94.1951C27.0657 94.8641 27.6122 95.4064 28.2863 95.4064Z" fill="#EA2882"/>
<path d="M28.2865 93.2167C28.8498 93.2167 29.2724 93.636 29.2724 94.1951C29.2724 94.7541 28.8498 95.1734 28.2865 95.1734C27.7231 95.1734 27.3005 94.7541 27.3005 94.1951C27.3005 93.636 27.77 93.2167 28.2865 93.2167ZM28.2865 92.7509C27.4883 92.7509 26.8311 93.4031 26.8311 94.1951C26.8311 94.9871 27.4883 95.6393 28.2865 95.6393C29.0846 95.6393 29.7419 94.9871 29.7419 94.1951C29.7419 93.4031 29.0846 92.7509 28.2865 92.7509Z" fill="white"/>
<path d="M26.925 93.3099C27.5992 93.3099 28.1457 92.7676 28.1457 92.0986C28.1457 91.4296 27.5992 90.8873 26.925 90.8873C26.2509 90.8873 25.7043 91.4296 25.7043 92.0986C25.7043 92.7676 26.2509 93.3099 26.925 93.3099Z" fill="#EA2882"/>
<path d="M26.9249 91.1203C27.4883 91.1203 27.9108 91.5396 27.9108 92.0987C27.9108 92.6577 27.4883 93.077 26.9249 93.077C26.3615 93.077 25.939 92.6577 25.939 92.0987C25.939 91.5862 26.3615 91.1203 26.9249 91.1203ZM26.9249 90.6544C26.1268 90.6544 25.4695 91.3067 25.4695 92.0987C25.4695 92.8907 26.1268 93.5429 26.9249 93.5429C27.723 93.5429 28.3803 92.8907 28.3803 92.0987C28.3803 91.3067 27.723 90.6544 26.9249 90.6544Z" fill="white"/>
<path d="M43.4038 83.34C43.4038 83.34 38.662 95.0803 31.1972 94.894C23.7324 94.7076 29.3662 83.2935 29.3662 83.2935C29.3662 83.2935 30.0235 84.5979 35.1878 84.9241C40.3521 85.2502 43.4038 83.34 43.4038 83.34Z" fill="url(#paint6_linear)" stroke="white" stroke-miterlimit="10"/>
<path d="M37.1127 90.3283C38.2795 90.3283 39.2254 89.3897 39.2254 88.2319C39.2254 87.074 38.2795 86.1354 37.1127 86.1354C35.9459 86.1354 35 87.074 35 88.2319C35 89.3897 35.9459 90.3283 37.1127 90.3283Z" fill="#F8A536"/>
<path d="M37.1127 89.583C37.8647 89.583 38.4742 88.9781 38.4742 88.2319C38.4742 87.4858 37.8647 86.8809 37.1127 86.8809C36.3608 86.8809 35.7512 87.4858 35.7512 88.2319C35.7512 88.9781 36.3608 89.583 37.1127 89.583Z" fill="#8BBC3B" stroke="#D7D8AB" stroke-width="0.75" stroke-miterlimit="10"/>
<path d="M32.6057 93.7759C33.5651 93.7759 34.3428 93.0042 34.3428 92.0521C34.3428 91.1001 33.5651 90.3284 32.6057 90.3284C31.6464 90.3284 30.8687 91.1001 30.8687 92.0521C30.8687 93.0042 31.6464 93.7759 32.6057 93.7759Z" fill="#F8A536"/>
<path d="M32.6057 93.1237C33.2021 93.1237 33.6855 92.6439 33.6855 92.0521C33.6855 91.4603 33.2021 90.9806 32.6057 90.9806C32.0093 90.9806 31.5259 91.4603 31.5259 92.0521C31.5259 92.6439 32.0093 93.1237 32.6057 93.1237Z" fill="#8BBC3B" stroke="#D7D8AB" stroke-width="0.75" stroke-miterlimit="10"/>
<path d="M30.5869 88.7909C31.7018 88.7909 32.6057 87.894 32.6057 86.7876C32.6057 85.6812 31.7018 84.7843 30.5869 84.7843C29.472 84.7843 28.5681 85.6812 28.5681 86.7876C28.5681 87.894 29.472 88.7909 30.5869 88.7909Z" fill="#F8A536"/>
<path d="M30.5869 88.0454C31.287 88.0454 31.8545 87.4823 31.8545 86.7876C31.8545 86.0928 31.287 85.5297 30.5869 85.5297C29.8869 85.5297 29.3193 86.0928 29.3193 86.7876C29.3193 87.4823 29.8869 88.0454 30.5869 88.0454Z" fill="#8BBC3B" stroke="#D7D8AB" stroke-width="0.75" stroke-miterlimit="10"/>
<path d="M25.7511 64.4717C25.7511 64.5183 25.7511 64.5183 25.7511 64.5649C25.7511 64.6581 25.798 64.7512 25.798 64.8444C25.798 64.891 25.798 64.9376 25.845 64.9842C25.845 65.0774 25.8919 65.1705 25.9389 65.2637C25.9389 65.3103 25.9389 65.3569 25.9858 65.3569C26.0328 65.4967 26.0797 65.5898 26.1267 65.7296C26.1736 65.8694 26.2675 66.0091 26.3145 66.1489C26.3145 66.1955 26.3614 66.2421 26.3614 66.2887C26.4084 66.3818 26.4553 66.475 26.4553 66.5216C26.5023 66.5682 26.5023 66.6148 26.5492 66.6614C26.5962 66.708 26.5962 66.8011 26.6431 66.8477C26.6901 66.8943 26.6901 66.9409 26.737 66.9875C26.737 67.0341 26.784 67.0807 26.784 67.1272C26.9248 67.4068 27.0657 67.6397 27.2065 67.8261C27.5821 68.3385 27.8638 68.3851 28.1455 68.5715C28.6149 68.851 29.8356 66.5216 33.4037 67.7329C33.5445 67.7795 33.6384 67.8261 33.7793 67.8727C35.8919 68.7113 36.8779 71.0407 36.8779 71.0407C42.4178 69.1771 54.9999 66.7079 60.5398 69.876C60.8685 68.7113 61.1032 67.3136 61.291 65.683C61.6666 62.515 61.9483 59.5333 61.9483 56.6449C61.9483 51.1008 61.3849 44.4853 54.8121 41.69C53.122 40.9446 51.1502 40.4787 47.3004 40.3389C43.122 40.1991 39.8826 41.5502 37.3943 44.5785C34.3426 42.9013 30.1642 48.0726 27.3004 53.9427C26.2675 56.0858 25.5164 58.2289 25.1408 60.139C25.0938 60.3253 25.0469 60.5117 25.0469 60.698C25.6103 61.5366 25.5164 63.0275 25.7511 64.4717Z" fill="url(#paint7_radial)"/>
<path d="M58.2863 44.1125C58.2863 44.1125 58.4272 46.7681 58.0985 50.4952C57.7229 54.6415 56.4553 60.5583 56.2675 64.099C56.0798 67.6397 56.2675 68.5249 56.2675 68.5249C58.1455 68.851 59.3192 69.3169 60.5398 69.9225C61.4319 66.5216 62.3708 57.763 61.7136 52.2655C61.5258 50.6815 61.1971 49.1907 60.8215 48.2589C59.7887 45.4636 58.2863 44.1125 58.2863 44.1125Z" fill="url(#paint8_linear)"/>
<path d="M26.0796 65.7295C27.0655 68.059 27.4881 68.2919 27.9106 68.4783C27.9575 68.5248 28.0514 68.5248 28.0984 68.5714C28.3331 68.7112 28.8496 68.1055 29.7885 67.6862C30.9153 65.8693 32.3707 63.5865 32.9341 60.8378C34.2017 54.2222 35.1406 47.6532 34.0139 47.4669C32.8402 47.3271 28.427 50.961 26.3613 58.7413C26.0796 59.7196 25.751 61.4434 25.5632 62.4684C25.5162 63.9126 25.4693 64.2853 26.0796 65.7295Z" fill="white"/>
<path d="M26.0327 65.9626C27.1595 68.6647 27.582 68.5249 28.0515 68.8045C28.2863 68.9442 28.8027 68.3386 29.7417 67.9193C30.8684 66.1023 32.3238 63.8195 32.8872 61.0708C34.1548 54.4552 35.0938 47.8863 33.967 47.6999C32.7933 47.5602 28.3802 51.1941 26.3144 58.9743C26.0327 59.9527 25.7041 61.6764 25.5163 62.7014C25.4694 64.1456 25.4224 64.5183 26.0327 65.9626Z" fill="url(#paint9_linear)"/>
<path d="M27.9576 68.5715C27.4881 68.292 27.0186 68.1988 25.798 65.2171C25.4224 63.4002 25.4224 64.2854 25.4693 62.7479C25.6571 61.8162 26.0327 59.8129 26.3144 58.7879C28.4271 50.9611 32.6524 47.0942 34.0139 47.2806C34.1078 47.2806 34.2487 47.3272 34.3895 47.5135C35.0468 48.4453 34.3895 53.011 32.8872 60.9776C32.3238 63.8661 31.197 65.5432 29.9764 67.5465C29.5069 67.7329 28.8966 67.8727 28.474 68.1988C28.2393 68.3851 28.2393 68.7579 27.9576 68.5715ZM26.0327 65.7296C26.9717 67.9658 27.7228 68.3851 28.0515 68.5715C28.1454 68.6181 28.2393 68.5249 28.2862 68.5715C28.2862 68.5715 28.5679 68.3851 28.7088 68.292C28.9435 68.1056 29.1313 67.6863 29.6008 67.5L29.8825 67.0341C30.9153 65.3569 32.2299 63.7729 32.6994 61.3503C34.7181 50.7281 34.2487 48.1658 33.967 47.7931L33.92 47.7465C33.028 47.6533 28.7088 50.8213 26.5022 58.8345C26.2674 59.7197 25.9388 61.3969 25.7041 62.5616V62.6548C25.751 63.9127 25.4693 64.3785 26.0327 65.7296Z" fill="#5B5752"/>
<path d="M27.9576 68.5248C28.0515 68.5714 28.0985 68.618 28.1924 68.6646C28.1924 68.6646 28.3802 68.5248 28.5679 68.4316C28.8027 68.2453 29.1783 68.0123 29.6008 67.826L29.8825 67.3601C30.9154 65.6829 32.2769 63.8194 32.7464 61.3968C32.9341 60.465 33.075 59.6264 33.2158 58.7878C33.2158 58.6947 33.2158 58.5083 33.1689 58.322C32.9341 57.5765 32.6055 57.1107 32.0891 56.9243C31.0093 56.5516 28.1924 59.114 27.3473 62.7013C26.8778 64.658 26.8309 66.5215 27.2064 67.8726C27.2064 67.9192 27.2064 67.9192 27.2064 67.9192C27.5351 68.3385 27.7698 68.4316 27.9576 68.5248Z" fill="url(#paint10_linear)"/>
<path d="M38.1922 71.4599L38.0514 71.227C36.549 68.4783 36.7838 62.8877 38.6148 57.6698C41.15 50.4485 45.704 45.6965 48.9903 46.8147C52.3237 47.9328 52.934 54.5017 50.3988 61.7229C49.4129 64.5648 48.0514 67.5931 46.5021 69.5498L46.4082 69.643H46.2673C42.934 70.1089 40.1641 70.8077 38.4739 71.3202C38.4739 71.3667 38.1922 71.4599 38.1922 71.4599ZM48.0044 47.3737C45.1875 47.3737 41.3847 51.8462 39.272 57.9027C37.5819 62.7013 37.3472 67.5465 38.5678 70.1554C40.3049 69.643 42.934 68.9907 46.0326 68.5714C51.6664 61.3037 52.934 48.9111 48.7556 47.5135C48.5209 47.3737 48.2392 47.3737 48.0044 47.3737Z" fill="#5B5752"/>
<path d="M48.7555 47.4669C48.5208 47.3737 48.2391 47.3271 47.9574 47.3271C45.1405 47.3271 41.2907 50.8679 39.0372 57.53C37.394 62.3286 37.3001 67.9658 38.5677 70.5748C40.3048 70.0623 42.9339 69.4101 46.0325 68.9908C47.5349 67.0806 48.8025 64.1922 49.7414 61.4434C52.0419 54.8745 51.6194 48.4453 48.7555 47.4669Z" fill="url(#paint11_linear)"/>
<path d="M47.9576 56.2255C46.0327 55.7596 43.6853 58.9276 42.6524 63.2604C42.136 65.4966 42.0421 67.6397 42.4177 69.2237V69.2703C42.8402 70.994 44.0608 70.7145 46.0327 68.5714C47.8637 66.2886 49.1782 63.4933 50.0233 60.6514C49.9294 58.2288 49.1782 56.5051 47.9576 56.2255Z" fill="url(#paint12_linear)"/>
<path d="M31.5257 59.3936C30.305 59.114 28.7557 61.1174 28.0985 63.9127C27.629 65.8228 27.7229 67.5931 28.2393 68.6181C28.4271 68.9908 28.5679 68.6181 28.6618 68.5249C28.8496 68.292 29.46 67.8261 29.8825 67.5931L29.9764 67.5465C31.0092 65.8694 32.2299 64.3319 32.6994 61.8628C32.6994 61.8162 32.7933 61.3503 32.6524 60.8844C32.4646 60.0924 32.0891 59.4868 31.5257 59.3936Z" fill="#14100E"/>
<path d="M47.676 59.0674C46.1736 58.6481 44.2487 60.8844 43.4037 64.0058C42.8872 65.9625 42.8872 67.7794 43.3567 69.0373C43.4037 69.1771 43.4976 69.3635 43.5445 69.3635C44.3896 69.2237 45.3755 68.9442 46.2675 68.8044C47.5351 67.2204 48.3802 65.0773 49.2722 62.8877C49.2722 60.8844 48.7088 59.3469 47.676 59.0674Z" fill="#14100E"/>
<path d="M47.9576 61.1639C48.4243 61.1639 48.8027 60.6842 48.8027 60.0924C48.8027 59.5006 48.4243 59.0209 47.9576 59.0209C47.4909 59.0209 47.1125 59.5006 47.1125 60.0924C47.1125 60.6842 47.4909 61.1639 47.9576 61.1639Z" fill="white"/>
<path d="M32.0144 60.218C32.0666 59.7578 31.7957 59.3497 31.4092 59.3065C31.0227 59.2633 30.6671 59.6014 30.6148 60.0616C30.5626 60.5218 30.8336 60.9299 31.2201 60.9731C31.6065 61.0163 31.9622 60.6782 32.0144 60.218Z" fill="white"/>
<path d="M63.8731 73.7893C63.1689 72.6712 62.2769 71.6463 61.8074 71.1804C58.7558 68.1987 54.3896 67.9192 44.8121 69.5498C42.7464 69.9225 37.6759 71.4133 36.6431 70.9474C36.1267 70.7145 35.798 69.41 34.6713 68.4782C34.4365 68.3385 34.2018 68.1521 33.967 68.059C33.9201 68.059 33.9201 68.0124 33.8731 68.0124C33.8262 67.9658 33.7323 67.9658 33.6384 67.9192C29.7886 66.4284 28.9905 68.9441 28.3802 68.7112C28.3332 68.7112 28.3332 68.6646 28.2863 68.6646C24.8121 68.3385 26.0328 61.7229 23.9201 60.6048C21.9483 59.7196 17.2534 62.049 15.4694 65.5432C15.3285 65.9625 15.1877 66.3818 15.0938 66.8011C14.9529 68.0124 15.0938 69.1305 15.3285 70.1088C14.8591 68.0124 16.3144 65.9159 17.2534 65.3568C16.4083 66.8477 14.9999 68.1521 15.4224 70.5747C15.5633 70.994 15.7041 71.4133 15.8919 71.8326C15.8919 71.8792 15.9389 71.8792 15.9389 71.9258C15.5633 71.227 15.6572 70.3418 16.0797 70.0623L16.1267 70.1088C16.1736 70.9008 15.3285 71.9724 17.629 73.5098L17.676 73.5564C17.3004 72.9041 17.1595 72.2985 17.3943 71.6928H17.4412C16.5961 74.4416 23.3567 78.122 25.9389 79.4265C28.8966 80.9639 29.1314 82.4548 31.291 83.7592C34.2487 85.5296 36.4083 82.3616 39.3191 82.1752V82.2218C38.1924 82.4548 37.2534 83.0138 36.2675 83.5729C36.4553 83.5729 36.8309 83.6195 37.3004 83.6661C39.9295 83.6661 47.9107 83.4797 48.3332 83.4797C55.4694 83.34 58.1924 83.0138 59.6478 82.0821C61.3849 81.0105 61.4788 81.523 62.9811 79.7992C63.6384 79.0538 63.8262 78.7277 64.3896 77.3766C65.1407 75.6529 64.1548 74.2086 63.8731 73.7893Z" fill="white"/>
<path d="M31.1971 74.2553C33.1158 74.2553 34.6713 72.7118 34.6713 70.8078C34.6713 68.9037 33.1158 67.3602 31.1971 67.3602C29.2783 67.3602 27.7229 68.9037 27.7229 70.8078C27.7229 72.7118 29.2783 74.2553 31.1971 74.2553Z" fill="url(#paint13_radial)"/>
<path d="M30.8216 69.8294C31.0031 69.8294 31.1502 69.6834 31.1502 69.5032C31.1502 69.3231 31.0031 69.1771 30.8216 69.1771C30.6401 69.1771 30.4929 69.3231 30.4929 69.5032C30.4929 69.6834 30.6401 69.8294 30.8216 69.8294Z" fill="white" fill-opacity="0.6"/>
<path d="M33.1218 70.7611C33.3034 70.7611 33.4505 70.6151 33.4505 70.435C33.4505 70.2549 33.3034 70.1089 33.1218 70.1089C32.9403 70.1089 32.7932 70.2549 32.7932 70.435C32.7932 70.6151 32.9403 70.7611 33.1218 70.7611Z" fill="white" fill-opacity="0.6"/>
<path d="M43.9201 74.8143C44.1548 75.4666 36.4553 82.9207 32.7933 82.0821C31.1971 81.7094 31.1971 79.7993 30.3051 78.6812C29.3191 77.4233 26.2675 73.6496 26.69 73.3701C26.7839 73.2769 32.0891 76.5847 37.9576 75.979C42.3708 75.5132 43.8262 74.5814 43.9201 74.8143Z" fill="#341D1A"/>
<path d="M35.1407 79.613C34.9998 79.613 34.9059 79.613 34.812 79.5664C34.3425 79.3334 33.1219 79.1937 32.2299 79.4266C31.1501 79.7061 31.1501 80.5913 31.6195 81.2901C32.089 81.9424 32.6524 82.3151 33.5914 82.1753C35.2346 81.989 39.0374 80.3118 37.582 79.7527C36.8778 79.4732 35.6571 79.5664 35.1407 79.613Z" fill="url(#paint14_linear)"/>
<path d="M34.1079 75.8393C31.8543 75.5132 29.8825 74.7678 28.521 74.2087C28.5679 74.5349 28.6149 74.9076 28.7088 75.2337C29.6008 77.5165 30.7745 79.1937 32.4177 78.7278C33.4506 78.4949 34.0609 77.3302 34.1079 75.8393Z" fill="white"/>
<path d="M31.7603 78.821C31.6195 78.4949 31.0092 77.7495 30.9622 76.445C30.9153 75.4667 30.9622 75.4667 31.0092 75.1405C30.9153 75.094 30.8683 75.094 30.7744 75.0474C30.7275 75.5132 30.5866 76.0723 30.8683 77.1904C31.103 78.1688 31.7603 78.821 31.7603 78.821Z" fill="#BCA8A5"/>
<path d="M28.2863 68.6647C24.8121 68.3386 26.0328 61.723 23.9201 60.6049C21.9013 59.7197 16.9248 62.2355 15.3285 65.8694C16.0328 63.8195 18.2863 61.5833 20.8215 60.5583C22.0891 60.0924 24.0609 59.6731 24.906 60.6515C25.2346 61.0242 25.4224 61.3969 25.5633 61.8162C26.2205 64.0059 25.9389 67.4068 28.2863 68.6647ZM17.2534 65.3103C16.2205 65.916 14.6243 68.292 15.4694 70.5282C14.9999 68.1056 16.4083 66.8478 17.2534 65.3103ZM16.1267 70.0158C15.5633 70.3885 15.5633 71.8793 16.5492 72.4384C15.7511 71.4134 16.2675 70.6214 16.2205 70.0158H16.1267ZM17.4412 71.6464C16.5492 74.1621 21.9952 77.5165 24.2957 78.8676C29.0375 81.6163 26.8309 80.3584 29.6947 83.0605C33.8731 86.9739 36.0328 82.8742 39.3661 82.2219V82.1753C36.5022 82.3617 34.3426 85.4831 31.3379 83.7593C29.1783 82.4549 28.9436 80.964 25.9858 79.4266C23.3567 78.0756 16.5961 74.3951 17.4412 71.6464ZM36.69 70.9475C37.7229 71.46 42.7933 69.9226 44.859 69.5499C54.4365 67.9193 58.7558 68.292 61.8544 71.2737C62.9342 72.252 63.7792 73.5099 64.4835 74.8144C63.8731 73.4633 63.122 72.1588 62.0421 71.0873C58.6619 67.5466 54.1548 67.7329 49.2252 68.292C40.5867 69.3169 37.3473 71.7395 36.4083 70.1555C35.7511 69.084 34.9999 67.9659 33.0281 67.5932C33.7323 67.7795 34.2957 68.0591 34.7182 68.3852C35.845 69.4101 36.1267 70.668 36.69 70.9475ZM63.0281 79.7993C64.5304 78.4483 63.8262 76.2586 62.9342 74.4417C63.2628 76.2586 64.1079 77.9824 63.0281 79.7993ZM59.5069 82.2219C61.1971 81.3833 62.5586 79.5198 62.4647 77.7494C61.9013 79.4732 61.0562 80.8709 59.5069 82.2219ZM48.3802 83.4332C47.9107 83.4332 38.8966 83.6662 36.8778 83.6196C38.7088 83.8525 41.0562 83.8525 42.8872 83.8991C54.4835 84.1321 56.2675 83.1537 59.0375 81.5697C56.4553 82.6878 55.5633 83.3401 48.3802 83.4332Z" fill="url(#paint15_linear)"/>
<path d="M51.1969 3.99994C50.9152 4.04653 50.3048 9.68373 49.6476 13.3642C48.9903 17.0447 47.5818 19.0014 47.9574 22.9148C48.333 26.8283 51.7602 31.6269 53.2626 39.1742C54.0138 42.9479 52.6053 43.9262 53.7321 44.858C54.0607 45.0909 53.6851 43.2274 54.3894 43.2274C54.7649 43.2274 55.3283 43.9262 55.1875 45.9761C55.0936 47.0476 55.7039 48.2123 56.1734 47.9794C56.9246 47.6067 54.718 46.209 56.8307 46.3954C58.6617 46.5817 57.8635 48.3055 58.7556 47.793C59.1781 47.5601 59.4598 46.7215 59.8354 45.5102C60.211 44.2989 64.1546 37.4504 64.7649 32.6984C65.3753 27.9464 64.671 24.825 63.5443 21.2842C60.9621 16.2061 59.6945 14.855 58.0513 12.6654C58.0044 12.6188 51.4786 3.95335 51.1969 3.99994Z" fill="url(#paint16_linear)"/>
<path d="M27.3473 9.2179C26.7839 9.2179 26.0327 15.1346 26.69 19.7003C27.9107 28.7384 33.7323 34.2825 37.0656 38.2891C38.6618 40.2458 39.3191 41.6434 39.6947 42.3423C42.4646 40.6185 44.859 40.106 48.3332 40.3855C48.7557 38.5686 49.413 34.6086 46.9717 30.7417C44.8121 27.3408 44.5773 25.8965 36.8308 19.6071C36.0327 18.9549 33.6384 17.2777 31.9013 15.5073C29.413 12.8984 27.5351 9.2179 27.3473 9.2179Z" fill="url(#paint17_linear)"/>
<path d="M64.4363 24.6852C64.3424 24.2193 64.2016 22.5421 63.0748 20.1661C62.6523 19.2344 59.7415 14.9016 58.0044 12.6654C56.6429 10.8484 54.7649 8.37925 51.7603 4.60559C51.7603 4.60559 52.3236 5.58395 52.6053 6.14301C52.7462 6.46913 52.934 6.74866 53.1687 7.02819C54.8588 9.26443 61.2908 17.7901 62.6523 20.3059C63.5912 22.0297 63.9668 23.1944 64.1077 24.4988C64.1546 24.4523 64.3894 24.6386 64.4363 24.6852Z" fill="#5E564E"/>
<path d="M58.4739 44.6716C58.4739 44.6716 59.0373 43.1808 58.9904 43.2274C59.1782 37.7765 57.3472 31.1144 54.0608 25.2442C52.1359 21.7967 52.4176 10.895 52.4646 10.3825C52.4646 10.3359 52.4646 10.3359 52.4176 10.4291C52.4176 10.4291 52.2768 12.9449 52.2298 13.5971C52.1829 14.2494 52.1829 15.88 52.1829 16.4856C52.2768 20.2127 52.5584 23.6136 53.9669 26.1294C57.1124 31.8132 58.7087 37.6833 58.5209 43.1808L58.4739 44.6716Z" fill="#5E564E"/>
<path d="M52.7463 6.46912C52.5585 6.60888 51.5256 20.7718 54.3895 25.8965C57.6758 31.7666 59.1782 37.7299 58.9904 43.1808C61.8073 39.5003 63.5913 37.2641 63.92 29.8099C64.1078 25.8033 64.7181 24.0795 62.6524 20.2593C61.15 17.464 52.7463 6.46912 52.7463 6.46912Z" fill="url(#paint18_radial)"/>
<path d="M44.0139 40.5718C44.0139 40.5718 44.6242 37.1709 44.4364 35.4937C44.2017 33.4438 43.4974 31.0678 41.6665 28.552C38.1923 23.8466 32.9341 21.2376 30.5866 18.3491C29.6477 17.1844 28.2392 15.647 27.6758 13.6437C27.1594 11.7336 27.4881 9.26441 27.3003 9.26441C27.0655 9.21782 26.7369 10.3825 26.5491 12.6654C26.2674 15.3675 26.2674 19.4207 28.427 24.4056C31.0561 30.5087 38.5679 38.3356 39.6477 42.4354C41.197 41.3172 42.3237 41.0377 44.0139 40.5718Z" fill="url(#paint19_linear)"/>
<path d="M30.5867 48.4918C30.5867 48.4918 32.3238 44.1591 35.6571 43.6001C38.1454 43.1808 37.0186 47.8396 37.0186 47.8396C37.0186 47.8396 37.535 44.1125 34.9998 44.625C33.1688 45.0443 30.5867 48.4918 30.5867 48.4918Z" fill="#14100E"/>
<path d="M52.8871 47.3271C52.8871 47.3271 53.3097 42.482 50.9623 41.6434C47.9576 40.5252 45.4224 44.858 45.4224 44.858C45.4224 44.858 48.4271 41.8297 50.3519 42.5285C52.2768 43.274 52.8871 47.3271 52.8871 47.3271Z" fill="#14100E"/>
<path d="M43.9669 40.6184C44.1078 39.4537 44.2956 37.3107 44.2486 36.146C44.1078 33.6768 43.1688 31.161 41.8543 29.0645C37.9106 22.7751 27.1594 19.84 27.3942 10.5689C27.3942 10.1496 27.3942 9.73033 27.3942 9.31104C27.4411 9.91668 27.4411 10.103 27.4411 10.5689C27.3942 19.7468 38.1923 22.5887 42.2299 28.8316C43.6383 30.9746 44.5773 33.537 44.6712 36.0994C44.7181 37.4038 44.4364 39.2674 44.2486 40.5719C44.2017 40.5719 44.1078 40.5719 43.9669 40.6184Z" fill="url(#paint20_linear)"/>
<path d="M37.8638 20.4457C41.4318 23.1944 43.4976 25.4306 45.5164 28.1328C48.8497 32.6984 48.8966 35.4937 48.7088 38.2424C48.6149 33.4438 46.5962 29.577 41.7135 24.2659C40.5398 22.9615 39.1783 21.5638 37.8638 20.4457Z" fill="url(#paint21_linear)"/>
<path d="M53.4976 41.9229C52.7934 30.9747 44.5305 27.201 49.2723 15.088C47.3005 21.8433 47.8638 24.1262 51.4789 32.978C52.277 34.9813 53.3098 36.9846 53.5446 40.1526C53.6385 40.7116 53.5915 41.5502 53.4976 41.9229Z" fill="#D8D0CC"/>
<path d="M22.5116 89.5363C21.9482 88.4181 21.8074 86.9739 22.6055 86.2751C23.4036 85.5763 24.9529 84.4581 26.1736 83.34C26.8309 82.7344 28.2863 81.6628 29.6008 81.0106C30.7745 80.4515 31.9952 80.6379 32.2299 80.964C32.6055 81.5696 32.0421 81.9889 30.7276 82.9207C30.2111 83.2934 29.413 83.9457 28.8027 84.365C28.8027 84.365 29.9295 84.6445 30.352 86.1353C30.6337 87.1137 30.5398 87.6261 30.4928 87.8591L29.8356 87.4864L29.2252 87.1603C29.2252 87.1603 30.4928 87.8591 30.4928 87.9523C30.6337 88.6045 30.8215 90.7476 29.2252 91.7259C27.8637 92.5645 27.4412 91.6793 27.4412 91.26C27.4412 90.8407 28.7557 90.0022 28.7557 90.0022C28.7557 90.0022 27.3942 91.1669 27.1126 91.3998C26.7839 91.6327 26.3614 92.052 26.1266 92.3782C25.7511 92.7975 24.9999 92.6577 24.5304 92.4713C23.967 92.1452 23.5914 91.6793 22.5116 89.5363Z" fill="url(#paint22_linear)"/>
<path d="M29.2252 87.2069C32.183 87.3467 30.7276 92.285 28.1924 92.0521C30.0703 91.7726 30.8684 89.35 30.4929 88.1853C30.3051 87.6728 29.7886 87.3933 29.2252 87.2069Z" fill="#ADA59C"/>
<path d="M28.521 84.3184C28.9435 84.3184 29.3661 84.4581 29.6947 84.6911C30.0233 84.924 30.305 85.2967 30.4928 85.6694C30.5867 85.8558 30.6337 86.0421 30.6806 86.2751C30.7276 86.4614 30.7276 86.6944 30.7276 86.8807C30.7276 87.3 30.6806 87.7193 30.4928 88.0454C30.5398 87.6727 30.4928 87.2534 30.4459 86.8807C30.3989 86.508 30.305 86.1353 30.1642 85.8092C30.0233 85.4831 29.7886 85.157 29.5069 84.8774C29.2252 84.6911 28.8966 84.4581 28.521 84.3184Z" fill="#ADA59C"/>
<path d="M28.9905 90.0022C28.6619 90.2351 28.3802 90.4215 28.0516 90.6078C26.6431 91.6328 26.8779 92.6577 25.5164 92.5646C26.9248 92.1919 26.4553 90.6078 28.9905 90.0022Z" fill="#ADA59C"/>
<path d="M24.6711 84.5979C26.3143 82.781 29.9763 79.5198 32.089 80.7311C33.5444 81.5696 30.6336 83.0605 29.319 83.9922C30.9153 82.548 32.9341 81.5231 31.9481 80.964C30.0233 79.9856 26.6899 82.9207 24.6711 84.5979Z" fill="#ADA59C"/>
</g>
</g>
</g>
<defs>
<filter id="filter0_d" x="12" y="-1" width="56" height="133" filterUnits="userSpaceOnUse" color-interpolation-filters="sRGB">
<feFlood flood-opacity="0" result="BackgroundImageFix"/>
<feColorMatrix in="SourceAlpha" type="matrix" values="0 0 0 0 0 0 0 0 0 0 0 0 0 0 0 0 0 0 127 0"/>
<feOffset dy="-2"/>
<feGaussianBlur stdDeviation="1.5"/>
<feColorMatrix type="matrix" values="0 0 0 0 0.682353 0 0 0 0 0.603922 0 0 0 0 0.592157 0 0 0 0.3 0"/>
<feBlend mode="normal" in2="BackgroundImageFix" result="effect1_dropShadow"/>
<feBlend mode="normal" in="SourceGraphic" in2="effect1_dropShadow" result="shape"/>
</filter>
<linearGradient id="paint0_linear" x1="17.9007" y1="91.7937" x2="34.0726" y2="85.8621" gradientUnits="userSpaceOnUse">
<stop stop-color="#DAD3CB"/>
<stop offset="0.2934" stop-color="#A49B90"/>
</linearGradient>
<linearGradient id="paint1_linear" x1="35.855" y1="84.6997" x2="34.6222" y2="103.801" gradientUnits="userSpaceOnUse">
<stop stop-color="#F9F1F4"/>
<stop offset="0.2947" stop-color="#F6EFF1"/>
<stop offset="0.5381" stop-color="#EEE7E7"/>
<stop offset="0.7631" stop-color="#E1DAD5"/>
<stop offset="0.976" stop-color="#CEC7BD"/>
<stop offset="1" stop-color="#CBC5BA"/>
</linearGradient>
<linearGradient id="paint2_linear" x1="38.674" y1="93.5843" x2="50.1913" y2="93.5843" gradientUnits="userSpaceOnUse">
<stop stop-color="#CBC2BC"/>
<stop offset="0.9958" stop-color="#9D958E"/>
</linearGradient>
<linearGradient id="paint3_linear" x1="26.7759" y1="95.7737" x2="26.4709" y2="95.7359" gradientUnits="userSpaceOnUse">
<stop stop-color="#DAD3CB"/>
<stop offset="1" stop-color="#A49B90"/>
</linearGradient>
<linearGradient id="paint4_linear" x1="22.5109" y1="106.615" x2="56.2557" y2="106.615" gradientUnits="userSpaceOnUse">
<stop offset="0.4124" stop-color="#93C256"/>
<stop offset="1" stop-color="#53B253"/>
</linearGradient>
<linearGradient id="paint5_linear" x1="40.308" y1="90.6259" x2="63.7499" y2="96.0798" gradientUnits="userSpaceOnUse">
<stop stop-color="#CBC2BC"/>
<stop offset="0.9958" stop-color="#9D958E"/>
</linearGradient>
<linearGradient id="paint6_linear" x1="27.3215" y1="89.1286" x2="43.3975" y2="89.1286" gradientUnits="userSpaceOnUse">
<stop stop-color="#F1428E"/>
<stop offset="1" stop-color="#E13989"/>
</linearGradient>
<radialGradient id="paint7_radial" cx="0" cy="0" r="1" gradientUnits="userSpaceOnUse" gradientTransform="translate(35.4827 61.4762) scale(26.6169 26.4129)">
<stop stop-color="#ECE6DF"/>
<stop offset="1" stop-color="#88827D"/>
</radialGradient>
<linearGradient id="paint8_linear" x1="56.1529" y1="57.0037" x2="61.8915" y2="57.0037" gradientUnits="userSpaceOnUse">
<stop stop-color="#76736F"/>
<stop offset="1" stop-color="#757470"/>
</linearGradient>
<linearGradient id="paint9_linear" x1="25.3085" y1="67.27" x2="35.8759" y2="48.8253" gradientUnits="userSpaceOnUse">
<stop offset="0.7205" stop-color="white"/>
<stop offset="1" stop-color="#E0D8D0"/>
</linearGradient>
<linearGradient id="paint10_linear" x1="26.976" y1="62.719" x2="33.2324" y2="62.719" gradientUnits="userSpaceOnUse">
<stop stop-color="#328142"/>
<stop offset="0.00871018" stop-color="#358343"/>
<stop offset="0.1601" stop-color="#5E9E4B"/>
<stop offset="0.2977" stop-color="#7BB151"/>
<stop offset="0.4156" stop-color="#8EBD55"/>
<stop offset="0.5" stop-color="#94C156"/>
<stop offset="0.6498" stop-color="#91BF55"/>
<stop offset="0.7429" stop-color="#89BA54"/>
<stop offset="0.8206" stop-color="#7AB051"/>
<stop offset="0.8898" stop-color="#66A34D"/>
<stop offset="0.9527" stop-color="#4B9247"/>
<stop offset="1" stop-color="#328142"/>
</linearGradient>
<linearGradient id="paint11_linear" x1="44.4643" y1="70.6062" x2="44.4643" y2="47.3525" gradientUnits="userSpaceOnUse">
<stop offset="0.4775" stop-color="white"/>
<stop offset="0.6636" stop-color="#FDFDFC"/>
<stop offset="0.7934" stop-color="#F7F5F3"/>
<stop offset="0.9058" stop-color="#EDE8E4"/>
<stop offset="1" stop-color="#E0D8D0"/>
</linearGradient>
<linearGradient id="paint12_linear" x1="42.9923" y1="58.5014" x2="48.3006" y2="67.7667" gradientUnits="userSpaceOnUse">
<stop stop-color="#328142"/>
<stop offset="0.00871018" stop-color="#358343"/>
<stop offset="0.1601" stop-color="#5E9E4B"/>
<stop offset="0.2977" stop-color="#7BB151"/>
<stop offset="0.4156" stop-color="#8EBD55"/>
<stop offset="0.5" stop-color="#94C156"/>
<stop offset="0.6498" stop-color="#91BF55"/>
<stop offset="0.7429" stop-color="#89BA54"/>
<stop offset="0.8206" stop-color="#7AB051"/>
<stop offset="0.8898" stop-color="#66A34D"/>
<stop offset="0.9527" stop-color="#4B9247"/>
<stop offset="1" stop-color="#328142"/>
</linearGradient>
<radialGradient id="paint13_radial" cx="0" cy="0" r="1" gradientUnits="userSpaceOnUse" gradientTransform="translate(30.866 69.8621) scale(4.12934 4.09768)">
<stop stop-color="#E94239"/>
<stop offset="1" stop-color="#982F2E"/>
</radialGradient>
<linearGradient id="paint14_linear" x1="32.4886" y1="78.708" x2="36.2771" y2="82.0267" gradientUnits="userSpaceOnUse">
<stop stop-color="#E94239"/>
<stop offset="0.5" stop-color="#B73632"/>
<stop offset="1" stop-color="#E94239"/>
</linearGradient>
<linearGradient id="paint15_linear" x1="17.6569" y1="77.973" x2="61.4468" y2="64.8512" gradientUnits="userSpaceOnUse">
<stop stop-color="#D4D3D1"/>
<stop offset="1" stop-color="#686764"/>
</linearGradient>
<linearGradient id="paint16_linear" x1="41.3033" y1="13.8204" x2="66.9299" y2="39.645" gradientUnits="userSpaceOnUse">
<stop stop-color="#C1BAAF"/>
<stop offset="1" stop-color="#64605B"/>
</linearGradient>
<linearGradient id="paint17_linear" x1="26.4184" y1="25.7865" x2="48.7473" y2="25.7865" gradientUnits="userSpaceOnUse">
<stop stop-color="#C1BAAF"/>
<stop offset="0.6381" stop-color="#6F6A66"/>
<stop offset="0.6604" stop-color="#6C6864"/>
<stop offset="0.8581" stop-color="#5A5854"/>
<stop offset="1" stop-color="#54524F"/>
</linearGradient>
<radialGradient id="paint18_radial" cx="0" cy="0" r="1" gradientUnits="userSpaceOnUse" gradientTransform="translate(60.2478 19.9736) scale(12.964 12.8646)">
<stop stop-color="#ECE6DF"/>
<stop offset="1" stop-color="#D7CCC2"/>
</radialGradient>
<linearGradient id="paint19_linear" x1="26.4392" y1="25.7861" x2="44.4806" y2="25.7861" gradientUnits="userSpaceOnUse">
<stop stop-color="#ECE6DF"/>
<stop offset="1" stop-color="#D7CCC2"/>
</linearGradient>
<linearGradient id="paint20_linear" x1="27.3732" y1="24.9474" x2="44.6572" y2="24.9474" gradientUnits="userSpaceOnUse">
<stop stop-color="#9C9289"/>
<stop offset="0.9958" stop-color="#1C1713"/>
</linearGradient>
<linearGradient id="paint21_linear" x1="37.8433" y1="29.3268" x2="48.7553" y2="29.3268" gradientUnits="userSpaceOnUse">
<stop stop-color="#CBC2BC"/>
<stop offset="0.9958" stop-color="#9D958E"/>
</linearGradient>
<linearGradient id="paint22_linear" x1="21.9831" y1="87.4888" x2="33.0301" y2="85.9243" gradientUnits="userSpaceOnUse">
<stop offset="0.0690816" stop-color="#A49B90"/>
<stop offset="0.2657" stop-color="#BDB5AB"/>
<stop offset="0.5877" stop-color="#ECE6DF"/>
<stop offset="0.6806" stop-color="#E8E2DB"/>
<stop offset="0.772" stop-color="#DED7CF"/>
<stop offset="0.8629" stop-color="#CCC4BB"/>
<stop offset="0.9528" stop-color="#B3AAA0"/>
<stop offset="0.9958" stop-color="#A49B90"/>
</linearGradient>
<clipPath id="clip0">
<rect x="14" width="55" height="97" fill="white"/>
</clipPath>
<clipPath id="clip1">
<path d="M15 4H65V131H15V4Z" fill="white"/>
</clipPath>
</defs>
</svg>
