<svg width="130" height="160" fill="none" xmlns="http://www.w3.org/2000/svg"><path fill-rule="evenodd" clip-rule="evenodd" d="M85.812 159.927h-6.95c-.668-5.194-1.514-9.664-2.609-13.11-.674-2.167-1.521-4.159-2.319-6.033-.439-1.032-.863-2.028-1.234-2.998-3.552-9.031-7.105-13.441-7.105-13.441-2.887-6.315-6.189-11.382-7.66-13.509 4.498 5.546 13.511 3.848 13.511 3.848l6.061 18.692s5.495 14.532 8.305 26.551zm-27.878-49.091a35.41 35.41 0 00-.699-.982c.218.35.452.677.7.982z" fill="url(#paint0_linear)"/><path opacity=".4" fill-rule="evenodd" clip-rule="evenodd" d="M85.763 159.927h-1.217c-.645-3.699-1.601-7.128-3.069-9.959-2.508-5.041-6.06-9.031-8.777-11.762-3.553-9.031-6.688-12.811-6.688-12.811s-8.15-14.491-8.568-15.541c4.18 6.72 14.002 5.04 14.002 5.04l6.06 18.692s5.432 14.363 8.257 26.341z" fill="url(#paint1_linear)"/><path d="M77.716 103.973l-3.135 5.671-3.97 6.721c-2.718 2.1-13.167-4.41-13.167-4.41-.209-1.891-.836-4.621-1.672-7.561-.418-1.261-.627-2.521-1.045-3.571-1.254-3.99-2.298-7.56-2.716-7.771.208.21.417.42.627.84 4.18 4.62 11.703 9.871 25.078 10.081z" fill="url(#paint2_linear)" fill-opacity=".8"/><path opacity=".3" d="M77.718 103.973l-3.135 5.671c-3.97-.42-11.076-1.47-18.6-5.25-.417-1.261-.627-2.521-1.044-3.571-1.254-3.99-2.3-7.56-2.717-7.771.209.21.418.42.627.84 3.97 4.62 11.494 9.871 24.869 10.081z" fill="#DF7553" fill-opacity=".8"/><path d="M45.741 93.472c0 2.1-.627 9.451-4.806 19.532-.419 1.05-.837 2.1-1.463 3.361-.21.42-.418 1.05-.627 1.47-5.016 8.821-14.002 9.661-18.182 9.241-1.463-.21-2.299-.21-2.299-.21.836.21 1.672 0 2.299-.21 1.254-.42 2.09-1.471 2.508-2.941 1.672-4.62.209-13.231-4.807-21.212v-.21c-.209-.42-.418-.84-.627-1.05-6.896-11.551-12.54-22.682-16.092-38.224-3.762-16.171-1.88-35.703 14.211-44.314 16.092-8.611 25.079-.84 26.332 1.05-.418.42-.627.84-1.045 1.05-2.298 2.73-4.18 5.88-5.642 8.821-.21.42-.418.63-.418 1.05-2.09 4.41-3.553 9.031-4.18 13.021-1.88 11.971 0 31.713 7.524 42.845 2.716 3.57 5.224 5.88 7.314 6.93z" fill="url(#paint3_linear)"/><g opacity=".62" fill="#5E442F"><path opacity=".62" d="M20.872 126.445l-.209.42h-2.299c1.045 0 1.672 0 2.508-.42zM35.71 20.385v1.05c-5.643-.42-22.78.42-29.467 9.451-3.553 4.83-3.553 11.341-.209 19.322 1.254 2.94 2.299 5.67 3.553 8.4 8.568 20.163 14.21 33.394 8.986 43.685-.209-.42-.418-.84-.627-1.05 4.389-9.87-1.045-22.682-9.404-42.214-1.045-2.73-2.299-5.46-3.553-8.4-3.553-8.402-3.344-15.122.418-20.373 6.897-9.45 24.242-10.29 30.303-9.87z"/><path opacity=".62" d="M40.935 113.005c-.418 1.05-.836 2.1-1.463 3.36-.21.42-.418 1.05-.627 1.47 2.926-8.4 1.254-18.481-2.508-24.362-1.672-2.73-3.762-5.46-6.06-8.19-6.897-8.823-14.84-18.693-15.049-36.545 0-8.821 1.672-14.492 5.225-17.432 4.18-3.57 10.24-2.52 15.465-1.47-.209.42-.418.63-.418 1.05-4.806-1.05-10.45-1.89-14.21 1.26-3.345 2.73-5.017 8.19-4.808 16.592.21 17.431 7.942 27.302 14.838 35.913 2.3 2.73 4.39 5.46 6.061 8.4 2.926 4.621 4.598 12.602 3.553 19.953z"/></g><path opacity=".34" d="M45.741 93.472c0 2.1-.627 9.451-4.807 19.532-.418 1.051-.835 2.101-1.462 3.361-.21.42-.419 1.05-.628 1.47-5.015 8.821-14.002 9.661-18.181 9.241-1.463-.21-2.3-.21-2.3-.21.837.21 1.673 0 2.3-.21 1.254-.42 2.09-1.47 2.508-2.941 19.226-9.03 4.18-49.144-5.016-65.526C8.75 40.757 25.887 25.006 31.53 23.326c0 0 8.36-2.52 9.613-2.94 0 0 .21 0 .21.42-2.3 2.73-4.18 5.88-5.643 8.82-.21.42-.418.63-.418 1.05-2.09 4.41-3.553 9.031-4.18 13.022-1.88 11.97 0 31.713 7.524 42.844 2.507 3.57 5.015 5.88 7.105 6.93z" fill="url(#paint4_linear)"/><path fill-rule="evenodd" clip-rule="evenodd" d="M78.94 159.927H18.761c1.62-8.426 3.303-15.384 4.619-17.94 2.716-5.671 11.285-17.852 16.091-22.892.149-.149.27-.298.385-.437.208-.255.39-.478.66-.613l3.762-2.941c3.148 1.808 8.23 4.649 13.232 7.444 4.296 2.401 8.532 4.768 11.429 6.418l4.388 10.081c.339.936.712 1.94 1.105 3 .578 1.557 1.2 3.231 1.821 4.98 1.126 3.394 1.999 7.792 2.688 12.9z" fill="url(#paint5_linear)"/><path fill-rule="evenodd" clip-rule="evenodd" d="M109.671 159.927H86.322c-1.671-7.298-4.409-15.474-6.307-20.881-1.254-3.57-2.09-5.88-2.09-5.88l1.254-1.89 5.642-8.611s1.463 2.1 3.762 6.09c1.672 2.941 3.97 7.141 6.688 12.182 6.269 12.391 12.33 18.061 12.33 18.061l2.07.929z" fill="#BCE2DE"/><path d="M112.408 74.78c.418 5.251-.836 15.752-10.032 22.683-4.597 3.36-11.285 5.881-20.48 6.511h-4.18c-13.375-.42-20.899-5.46-24.87-10.291-.208-.21-.417-.42-.626-.84-2.926-3.57-3.762-6.721-3.762-6.721s-2.926-.21-5.852-1.89c-1.88-1.05-3.761-2.73-4.806-5.04-2.09-4.831-2.926-10.292-.836-12.812.627-.84 1.672-1.26 2.925-1.26 5.225-.42 9.196 5.67 9.196 5.67s-1.463-14.071-1.463-22.262c0-8.19 4.598-18.062 13.584-22.472 4.18-2.1 7.942-3.57 11.703-4.41 15.465-3.78 25.915 2.73 31.975 8.4 2.508 2.52 4.389 5.04 5.643 7.351 4.597 8.821 1.254 29.613 1.881 37.384z" fill="url(#paint6_linear)" fill-opacity=".8"/><path d="M59.116 48.738c-1.88.63 4.18-7.561 11.495-7.771 7.314-.21 8.36 3.99 8.36 3.99s-12.75 1.26-19.855 3.78z" fill="url(#paint7_linear)"/><path d="M96.316 42.857c-.419-1.89 1.253-4.41 6.687-5.25 5.643-.84 8.568 4.62 8.568 4.62s-4.597-2.1-7.105-.63c-2.717 1.26-7.941 2.52-8.15 1.26z" fill="url(#paint8_linear)"/><path d="M38.636 12.825c.208-.21-4.598-2.31-7.524 1.68-3.135 3.99 0 9.871 0 9.871s1.254-4.62 7.524-11.552z" fill="url(#paint9_linear)"/><path d="M105.511 27.736c-.209 1.05-.418 1.89-.836 2.31-2.298-2.1-5.015-4.2-8.15-5.88-.418-.21-.836-.42-1.045-.42-3.135-1.26-6.897-2.101-11.494-2.101h-1.254c-5.434.21-11.703 1.47-19.436 4.2-8.777 3.15-14.42 16.592-14.42 24.993v9.03c0 5.881.21 10.922.21 10.922s-3.763-5.88-9.196-5.67c-5.225.42-5.016 7.77-2.09 14.07 2.717 6.301 10.658 7.141 10.658 7.141s1.045 3.57 4.389 7.351v.84s-2.926 1.05-7.106-1.05c-2.09-1.26-4.597-3.36-7.314-7.14-7.524-10.922-9.613-29.823-10.032-42.005v-6.93c.837-11.972 5.225-26.253 23.407-31.924.627-.21 1.463-.42 2.09-.63.627-.21 1.254-.42 2.09-.42 8.36-1.89 15.883-1.68 22.57-.63l3.135.63c9.195 2.1 16.092 5.88 19.436 9.031 4.597 3.57 5.015 10.501 4.388 14.282z" fill="url(#paint10_linear)"/><path opacity=".62" d="M96.316 24.166c-.418-.21-.836-.42-1.045-.42-.836-5.25-4.18-13.232-16.51-19.953l3.135.63c11.076 6.721 14.002 14.702 14.42 19.743zm-12.54-2.52h-1.254c-2.925-5.04-10.658-12.182-30.72-16.172.627-.21 1.462-.42 2.09-.63 19.644 4.2 26.959 11.761 29.884 16.802zM48.667 58.61v1.26c-8.778-5.461-15.465-12.392-20.272-20.583v-1.89c4.807 8.4 11.494 15.542 20.272 21.212z" fill="#5E442F"/><path opacity=".27" d="M105.511 27.736c-.209 1.05-.418 1.89-.836 2.31-2.299-2.1-5.016-4.2-8.15-5.88-.418-.21-.836-.42-1.045-.42-3.135-1.26-6.897-2.1-11.495-2.1h-1.253c-5.434.21-11.704 1.47-19.436 4.2-8.777 3.15-14.42 16.591-14.42 24.992v9.032c0 5.88.209 10.921.209 10.921s-3.762-5.88-9.196-5.67c-5.224.42-5.015 7.77-2.09 14.071 2.718 6.3 10.659 7.14 10.659 7.14s1.045 3.571 4.389 7.351v.84s-2.926 1.05-7.106-1.05c-2.09-1.26-4.598-3.36-7.314-7.14-7.524-10.921-9.614-29.823-10.032-42.004v-5.041c9.823 7.77 17.764 1.89 24.66-11.131C60.37 14.295 78.97 13.875 90.674 17.235c8.986 2.73 12.957 6.09 14.838 10.5z" fill="url(#paint11_linear)"/><path opacity=".2" d="M102.377 97.463c-4.598 3.36-11.285 5.881-20.48 6.511h-4.18c-13.376-.42-20.9-5.46-24.87-10.291-.209-.21-.418-.42-.627-.84-2.926-3.57-3.762-6.721-3.762-6.721s-2.925-.21-5.851-1.89c-.836-4.83-2.508-11.971-5.643-17.852.627-.84 1.672-1.26 2.926-1.26 5.225-.42 9.195 5.67 9.195 5.67s-1.463-14.07-1.463-22.262c0-8.19 4.598-18.061 13.584-22.472 4.18-2.1 7.942-3.57 11.704-4.41-13.166 9.03-19.018 13.861-19.436 32.343-.418 18.692.836 34.653 15.465 41.164 9.822 4.2 23.615 4.62 33.438 2.31z" fill="#DF7553" fill-opacity=".8"/><path d="M41.144 68.48s6.27 8.82 6.27 14.282c0 0-3.345-.63-5.226-3.57-1.671-2.941.836-2.941.836-2.941l-1.88-7.771z" fill="#DF7553"/><path opacity=".63" d="M73.327 138.837c-6.06-3.57-24.451-14.702-34.065-19.952.418-.42.627-.84 1.045-1.05l3.762-2.941c5.851 3.361 18.39 10.292 24.66 13.862l4.598 10.081zm15.257-10.081c-2.09 4.62-6.688 8.821-8.778 10.501-1.254-3.57-2.09-5.881-2.09-5.881l1.254-1.89 5.643-8.611c0-.21 1.463 1.89 3.97 5.881z" fill="#BCE2DE"/><path d="M87.33 122.455s-7.733 17.853-8.987 13.022c0-.21-.21-.63-.21-.84-1.044-3.36-3.552-9.451-5.433-13.652-1.254-2.73-2.09-4.62-2.09-4.62l4.18-7.141c1.88 1.05 5.643 4.83 8.36 8.191 2.298 2.73 4.18 5.04 4.18 5.04zM72.7 137.576c-1.462-2.94-11.076-8.61-20.69-12.391-9.612-3.78-12.538-6.51-12.538-6.51s2.716-2.521 6.06-5.461c4.598-4.2 10.032-9.241 10.24-9.241 0 0 2.09 7.141 6.688 13.862.627.84 1.254 1.89 1.881 2.94 3.97 6.72 8.15 16.171 8.36 16.801z" fill="#C7EFE9"/><path opacity=".63" d="M62.46 117.835c.627.84 1.254 1.89 1.88 2.94-7.94-1.47-15.046-5.25-18.808-7.561 4.598-4.2 10.031-9.241 10.24-9.241-.209 0 1.881 7.141 6.688 13.862zm20.69-.42c-3.344 2.31-6.897 3.36-10.45 3.78-1.254-2.73-2.09-4.62-2.09-4.62l4.18-7.141c1.88.84 5.434 4.62 8.36 7.981z" fill="#BCE2DE"/><path d="M77.09 84.021s6.896 1.68 14.42 1.26c7.523-.42 10.03-1.89 10.03-1.89s-3.761 9.661-7.523 10.712c-3.762 1.05-14.42-2.73-16.928-10.082zm5.014-21.631s-.835 3.99-8.568 4.41h-1.463c-6.688 0-9.404-3.15-9.404-3.15.418-1.68 1.672-7.142 9.404-8.192 3.344-.42 5.643.42 7.106 1.68 1.88 1.68 2.716 4.201 2.925 5.251zm30.095-5.041s-1.045 3.36-6.479 4.83c-.836.21-1.672.42-2.508.42-3.762.21-5.642-1.68-5.642-1.68s-.21-8.401 6.687-9.871c3.135-.63 5.016.21 6.27 1.47 1.254 1.68 1.672 3.99 1.672 4.83z" fill="#fff"/><path d="M94.435 52.938c-.418 4.2-.418 8.401 2.508 13.442 2.716 5.04 4.597 7.56 5.015 8.401.418.84-.627 3.57-4.18 4.41-3.343.84-8.15-.63-8.15-1.47.21-.84 1.045.21 4.389.42 3.344.21 6.478-1.68 6.269-3.15-.209-1.26-3.97-3.57-6.06-10.711-2.299-7.351.209-11.342.209-11.342z" fill="#DF7553"/><path d="M82.104 62.39s-.836 3.99-8.568 4.41h-1.463c-.627-1.05-1.045-2.1-1.045-3.57 0-3.571 2.926-6.302 6.27-6.302.627 0 1.254 0 1.88.21 1.881 1.68 2.717 4.201 2.926 5.251zm30.095-5.041s-1.045 3.36-6.479 4.83c-.835.21-1.671.42-2.507.42-1.045-1.05-1.463-2.52-1.463-4.2 0-3.57 2.926-6.301 6.269-6.301.836 0 1.672.21 2.508.42 1.254 1.68 1.672 3.99 1.672 4.83z" fill="#502D14"/><path d="M62.878 63.65s.418-8.611 9.195-10.922c8.778-2.31 10.24 9.451 10.24 9.451s-2.925-6.72-9.613-6.3c-6.896.63-9.822 7.77-9.822 7.77z" fill="url(#paint12_linear)"/><path d="M97.57 61.34s-.836-9.242 6.269-11.763c7.106-2.52 8.151 7.352 8.151 7.352s-1.254-4.831-6.688-4.201c-5.643.42-7.732 8.611-7.732 8.611z" fill="url(#paint13_linear)"/><path opacity=".4" d="M62.878 63.65s3.344-5.041 9.404-5.881c6.27-.63 9.823 4.41 9.823 4.41s-2.508-8.19-9.823-7.56c-7.314.63-9.404 9.03-9.404 9.03zm34.692-2.311s3.553-6.51 7.732-7.351c3.971-.63 7.106 3.36 7.106 3.36s-1.463-7.35-7.106-6.72c-6.687 1.05-7.732 10.711-7.732 10.711z" fill="#A5A5A5"/><path d="M71.238 65.119c.808 0 1.463-.659 1.463-1.47 0-.812-.655-1.47-1.463-1.47s-1.463.658-1.463 1.47c0 .811.655 1.47 1.463 1.47zm30.929-4.201c.808 0 1.463-.658 1.463-1.47 0-.811-.655-1.47-1.463-1.47-.807 0-1.462.659-1.462 1.47 0 .812.655 1.47 1.462 1.47z" fill="#fff"/><path d="M48.6 159.9s.868.027 1.495.027c.418 0 1.576.183 1.994-.027.627-.211.963-.393-.29-12.365 0-.42-.419-.63-.837-.63s-.627.42-.627.84c0 .63 0 1.05.21 1.68.208 4.201.417 8.402.208 9.452-.627.21-1.672 0-2.09 0-.209 0-.354-.108-.561.023-.499.315-.499.5-.499.5-.192.737.499.5.997.5zm-9.727-11.286c.418 10.291 1.463 10.711 1.88 10.921.419.21 1.046.21 1.464.21.836 0 1.672-.21 1.88-.21.418 0 .627-.42.418-.84 0-.21-.209-.21-.209-.42-.209-.21-.417-.21-.627-.21-.627.21-1.671.21-2.298 0-.418-.84-.836-5.25-1.045-9.241v-.63c0-.42-.418-.63-.627-.63-.627.21-.836.63-.836 1.05z" fill="#989C9C"/><path opacity=".3" d="M40.307 156.268c.418 2.941-.418 3.781 3.135 3.361.209 0 .627-.21.836-.21-.21-.21-.418-.21-.627-.21-.627.21-1.672.21-2.3 0-.417-.84-.835-5.251-1.044-9.241-.627 1.26-.418 3.57 0 6.3z" fill="#989C9C"/><path d="M40.307 138.627c.836-1.051 1.881-1.891 3.135-2.101-1.463-18.271 8.36-27.512 13.166-30.033l.627 1.891c-4.18 2.52-13.375 11.131-12.12 27.932 1.253 0 2.298.42 3.343 1.26 3.553 2.941 3.553 10.501 3.553 10.711 0 .421-.418.841-.836.841s-.836-.42-.836-.841c0-1.89-.627-7.35-2.926-9.45-.836-.631-1.672-1.051-2.717-.841-1.254.21-2.09.631-2.717 1.681-2.299 3.15-1.463 9.241-1.463 9.241 0 .21 0 .42-.209.63-.209.21-.418.42-.627.42h-.209c-.417 0-.835-.42-.835-.84-.21 0-1.254-6.721 1.671-10.501z" fill="url(#paint14_linear)"/><path opacity=".4" d="M40.098 149.758c0-.21.21-.42.21-.63 0 0-.837-6.301 1.462-9.241.627-.84 1.672-1.47 2.717-1.68 1.045-.21 2.09.21 2.717.84 2.298 2.1 2.925 7.561 2.925 9.451 0 .42.418.84.836.84s.836-.42.836-.84c-.627.42-1.463.63-1.463 0 0 0 .21-2.52-.627-5.461-1.044-2.94-2.09-5.67-5.851-5.04-3.344.63-5.643 5.46-3.762 11.761z" fill="#153E42"/><path d="M84.194 157.109a3.353 3.353 0 003.344-3.361 3.352 3.352 0 00-3.344-3.36 3.352 3.352 0 00-3.343 3.36 3.353 3.353 0 003.343 3.361z" fill="#C2C0BD"/><path d="M84.821 128.336c.627 6.51.627 13.441.21 18.271-.628.21-1.255.21-1.882.21.21-4.83.418-11.761-.209-18.271-.626-7.561-3.761-17.222-8.777-18.692.418-.84.627-1.05.836-1.47 5.016 1.26 8.777 8.4 9.822 19.952z" fill="url(#paint15_linear)"/><path d="M85.03 151.858v.63c0 .42-.418.84-.836.84s-.836-.42-.836-1.05v-.63c0-1.05.21-2.731.21-4.831.626 0 1.253-.21 1.88-.21-.418 2.31-.418 3.991-.418 5.251z" fill="#AEADAD"/><path d="M84.194 155.218c.924 0 1.672-.752 1.672-1.68 0-.928-.748-1.68-1.672-1.68-.923 0-1.672.752-1.672 1.68 0 .928.749 1.68 1.672 1.68z" fill="#D2D2D2"/><defs><linearGradient id="paint0_linear" x1="57.45" y1="242.183" x2="115.378" y2="242.183" gradientUnits="userSpaceOnUse"><stop offset=".005" stop-color="#19456A"/><stop offset="1" stop-color="#0B375F"/></linearGradient><linearGradient id="paint1_linear" x1="57.511" y1="242.07" x2="115.377" y2="242.07" gradientUnits="userSpaceOnUse"><stop offset=".005" stop-color="#19456A"/><stop offset="1" stop-color="#0B375F"/></linearGradient><linearGradient id="paint2_linear" x1="66.252" y1="125.279" x2="64.834" y2="97.997" gradientUnits="userSpaceOnUse"><stop stop-color="#F3C9A5"/><stop offset="1" stop-color="#F2AB8D"/></linearGradient><linearGradient id="paint3_linear" x1="17.102" y1="144.263" x2="28.446" y2="3.169" gradientUnits="userSpaceOnUse"><stop stop-color="#6C3D31"/><stop offset=".995" stop-color="#7E4631"/></linearGradient><linearGradient id="paint4_linear" x1="64.864" y1="67.428" x2="1.807" y2="79.589" gradientUnits="userSpaceOnUse"><stop offset=".01" stop-color="#884B2D"/><stop offset=".995" stop-color="#7E4631"/></linearGradient><linearGradient id="paint5_linear" x1="63.744" y1="119.639" x2="61.617" y2="336.936" gradientUnits="userSpaceOnUse"><stop stop-color="#ABD9E1"/><stop offset="1" stop-color="#A0D6D1"/></linearGradient><linearGradient id="paint6_linear" x1="102.87" y1="100.426" x2="51.276" y2="26.111" gradientUnits="userSpaceOnUse"><stop stop-color="#F3C9A5"/><stop offset="1" stop-color="#F2AB8D"/></linearGradient><linearGradient id="paint7_linear" x1="85.019" y1="40.913" x2="54.821" y2="46.737" gradientUnits="userSpaceOnUse"><stop offset=".01" stop-color="#875D3A"/><stop offset=".995" stop-color="#7E4631"/></linearGradient><linearGradient id="paint8_linear" x1="92.141" y1="45.118" x2="116.59" y2="36.464" gradientUnits="userSpaceOnUse"><stop offset=".01" stop-color="#875D3A"/><stop offset=".995" stop-color="#7E4631"/></linearGradient><linearGradient id="paint9_linear" x1="42.758" y1="16.503" x2="27.822" y2="19.384" gradientUnits="userSpaceOnUse"><stop stop-color="#D87F07"/><stop offset="1" stop-color="#C87F07"/></linearGradient><linearGradient id="paint10_linear" x1="78.244" y1="2.548" x2="47.533" y2="75.036" gradientUnits="userSpaceOnUse"><stop offset=".01" stop-color="#884B2D"/><stop offset=".995" stop-color="#7E4631"/></linearGradient><linearGradient id="paint11_linear" x1="135.179" y1="41.15" x2="16.369" y2="64.064" gradientUnits="userSpaceOnUse"><stop offset=".01" stop-color="#884B2D"/><stop offset=".995" stop-color="#7E4631"/></linearGradient><linearGradient id="paint12_linear" x1="85.855" y1="55.883" x2="49.686" y2="62.754" gradientUnits="userSpaceOnUse"><stop offset=".005" stop-color="#A16E47"/><stop offset="1" stop-color="#3D2A18"/></linearGradient><linearGradient id="paint13_linear" x1="97.442" y1="55.232" x2="112.039" y2="55.232" gradientUnits="userSpaceOnUse"><stop offset=".005" stop-color="#A16E47"/><stop offset="1" stop-color="#3D2A18"/></linearGradient><linearGradient id="paint14_linear" x1="49.492" y1="112.361" x2="46.329" y2="138.475" gradientUnits="userSpaceOnUse"><stop stop-color="#153E42"/><stop offset="1" stop-color="#1F4D55"/></linearGradient><linearGradient id="paint15_linear" x1="80.498" y1="145.352" x2="79.323" y2="106.465" gradientUnits="userSpaceOnUse"><stop stop-color="#153E42"/><stop offset="1" stop-color="#264C49"/></linearGradient></defs></svg>